<?xml version="1.0" encoding="UTF-8"?>
<svg xmlns="http://www.w3.org/2000/svg" xmlns:xlink="http://www.w3.org/1999/xlink" width="151px" height="71px"
     viewBox="0 0 150 71" version="1.1">
    <g id="surface1">
        <path style=" stroke:none;fill-rule:nonzero;fill:rgb(7.058824%,7.843137%,15.686275%);fill-opacity:1;"
              d="M 97.042969 29.132812 L 94.257812 29.132812 L 94.257812 31.945312 L 97.042969 31.945312 Z M 97.042969 29.132812 "/>
        <path style=" stroke:none;fill-rule:nonzero;fill:rgb(7.058824%,7.843137%,15.686275%);fill-opacity:1;"
              d="M 91.519531 29.132812 L 88.734375 29.132812 L 88.734375 31.945312 L 91.519531 31.945312 Z M 91.519531 29.132812 "/>
        <path style=" stroke:none;fill-rule:nonzero;fill:rgb(7.058824%,7.843137%,15.686275%);fill-opacity:1;"
              d="M 88.691406 12.351562 L 83.167969 12.351562 L 83.167969 29.132812 L 88.691406 29.132812 Z M 88.691406 12.351562 "/>
        <path style=" stroke:none;fill-rule:nonzero;fill:rgb(7.058824%,7.843137%,15.686275%);fill-opacity:1;"
              d="M 94.257812 20.742188 L 91.476562 20.742188 L 91.476562 29.132812 L 94.257812 29.132812 Z M 94.257812 20.742188 "/>
        <path style=" stroke:none;fill-rule:nonzero;fill:rgb(7.058824%,7.843137%,15.686275%);fill-opacity:1;"
              d="M 102.566406 12.351562 L 97.042969 12.351562 L 97.042969 29.132812 L 102.566406 29.132812 Z M 102.566406 12.351562 "/>
        <path style=" stroke:none;fill-rule:nonzero;fill:rgb(7.058824%,7.843137%,15.686275%);fill-opacity:1;"
              d="M 108.09375 31.945312 L 119.183594 31.945312 L 119.183594 29.132812 L 110.875 29.132812 L 110.875 26.320312 L 121.96875 26.320312 L 121.96875 20.742188 L 119.183594 20.742188 L 119.183594 17.929688 L 108.09375 17.929688 L 108.09375 20.742188 L 105.308594 20.742188 L 105.308594 29.132812 L 108.09375 29.132812 Z M 110.875 20.742188 L 116.402344 20.742188 L 116.402344 23.554688 L 110.875 23.554688 Z M 110.875 20.742188 "/>
        <path style=" stroke:none;fill-rule:nonzero;fill:rgb(7.058824%,7.843137%,15.686275%);fill-opacity:1;"
              d="M 135.800781 29.132812 L 133.015625 29.132812 L 133.015625 12.351562 L 124.707031 12.351562 L 124.707031 15.164062 L 127.492188 15.164062 L 127.492188 29.132812 L 124.707031 29.132812 L 124.707031 31.945312 L 135.800781 31.945312 Z M 135.800781 29.132812 "/>
        <path style=" stroke:none;fill-rule:nonzero;fill:rgb(7.058824%,7.843137%,15.686275%);fill-opacity:1;"
              d="M 146.890625 29.132812 L 146.890625 12.351562 L 138.585938 12.351562 L 138.585938 15.164062 L 141.324219 15.164062 L 141.324219 29.132812 L 138.585938 29.132812 L 138.585938 31.945312 L 149.632812 31.945312 L 149.632812 29.132812 Z M 146.890625 29.132812 "/>
        <path style=" stroke:none;fill-rule:nonzero;fill:rgb(7.058824%,7.843137%,15.686275%);fill-opacity:1;"
              d="M 88.980469 41.996094 L 86.195312 41.996094 L 86.195312 47.617188 L 88.980469 47.617188 L 88.980469 50.386719 L 94.503906 50.386719 L 94.503906 56.007812 L 86.195312 56.007812 L 86.195312 58.777344 L 97.289062 58.777344 L 97.289062 56.007812 L 100.070312 56.007812 L 100.070312 50.386719 L 97.289062 50.386719 L 97.289062 47.617188 L 91.761719 47.617188 L 91.761719 41.996094 L 100.070312 41.996094 L 100.070312 39.226562 L 88.980469 39.226562 Z M 88.980469 41.996094 "/>
        <path style=" stroke:none;fill-rule:nonzero;fill:rgb(7.058824%,7.843137%,15.686275%);fill-opacity:1;"
              d="M 113.90625 44.804688 L 105.597656 44.804688 L 105.597656 47.617188 L 102.8125 47.617188 L 102.8125 56.007812 L 105.597656 56.007812 L 105.597656 58.820312 L 113.90625 58.820312 L 113.90625 56.007812 L 116.6875 56.007812 L 116.6875 47.617188 L 113.90625 47.617188 Z M 111.121094 56.007812 L 108.335938 56.007812 L 108.335938 47.617188 L 111.121094 47.617188 Z M 111.121094 56.007812 "/>
        <path style=" stroke:none;fill-rule:nonzero;fill:rgb(7.058824%,7.843137%,15.686275%);fill-opacity:1;"
              d="M 133.304688 39.226562 L 130.519531 39.226562 L 130.519531 42.039062 L 133.304688 42.039062 Z M 133.304688 39.226562 "/>
        <path style=" stroke:none;fill-rule:nonzero;fill:rgb(7.058824%,7.843137%,15.686275%);fill-opacity:1;"
              d="M 124.996094 36.414062 L 124.996094 39.226562 L 122.214844 39.226562 L 122.214844 47.617188 L 119.429688 47.617188 L 119.429688 50.386719 L 122.214844 50.386719 L 122.214844 58.777344 L 127.738281 58.777344 L 127.738281 50.386719 L 130.519531 50.386719 L 130.519531 47.617188 L 127.738281 47.617188 L 127.738281 39.226562 L 130.519531 39.226562 L 130.519531 36.414062 Z M 124.996094 36.414062 "/>
        <path style=" stroke:none;fill-rule:nonzero;fill:rgb(7.058824%,7.843137%,15.686275%);fill-opacity:1;"
              d="M 149.921875 53.195312 L 147.136719 53.195312 L 147.136719 56.007812 L 149.921875 56.007812 Z M 149.921875 53.195312 "/>
        <path style=" stroke:none;fill-rule:nonzero;fill:rgb(7.058824%,7.843137%,15.686275%);fill-opacity:1;"
              d="M 144.355469 47.617188 L 147.136719 47.617188 L 147.136719 44.804688 L 144.355469 44.804688 L 144.355469 39.226562 L 138.828125 39.226562 L 138.828125 44.804688 L 136.046875 44.804688 L 136.046875 47.617188 L 138.828125 47.617188 L 138.828125 56.007812 L 141.613281 56.007812 L 141.613281 58.777344 L 147.136719 58.777344 L 147.136719 56.007812 L 144.355469 56.007812 Z M 144.355469 47.617188 "/>
        <path style=" stroke:none;fill-rule:nonzero;fill:rgb(13.72549%,31.372549%,44.313725%);fill-opacity:1;"
              d="M 33.824219 41.695312 C 34.160156 41.695312 34.160156 41.695312 34.160156 41.355469 C 34.160156 40.761719 34.160156 40.164062 34.160156 39.566406 C 34.160156 39.3125 34.246094 39.226562 34.5 39.226562 C 35.132812 39.269531 35.722656 39.226562 36.355469 39.269531 C 36.566406 39.269531 36.566406 39.140625 36.566406 38.972656 C 36.523438 38.375 36.566406 37.734375 36.566406 37.140625 C 36.566406 36.757812 36.605469 36.757812 36.945312 36.757812 C 38.378906 36.757812 39.8125 36.757812 41.246094 36.757812 C 41.414062 36.757812 41.457031 36.714844 41.457031 36.542969 C 41.457031 35.90625 41.457031 35.265625 41.457031 34.625 C 41.457031 34.414062 41.542969 34.328125 41.753906 34.328125 C 43.988281 34.328125 46.222656 34.328125 48.457031 34.328125 C 48.667969 34.328125 48.753906 34.285156 48.753906 34.074219 C 48.753906 33.476562 48.753906 32.839844 48.753906 32.242188 C 48.753906 32.027344 48.710938 31.984375 48.5 31.984375 C 47.867188 31.984375 47.277344 31.984375 46.644531 31.984375 C 46.308594 31.984375 46.265625 31.945312 46.265625 31.601562 C 46.265625 31.007812 46.265625 30.453125 46.265625 29.855469 C 46.265625 29.644531 46.179688 29.558594 45.96875 29.558594 C 45.378906 29.558594 44.832031 29.558594 44.242188 29.558594 C 43.859375 29.558594 43.859375 29.515625 43.820312 29.132812 C 43.820312 28.535156 43.820312 27.941406 43.820312 27.34375 C 43.820312 27.128906 43.777344 27.046875 43.523438 27.046875 C 42.933594 27.089844 42.34375 27.046875 41.753906 27.046875 C 41.582031 27.046875 41.457031 26.960938 41.457031 26.746094 C 41.457031 26.066406 41.457031 25.34375 41.457031 24.660156 C 41.457031 24.449219 41.582031 24.40625 41.753906 24.40625 C 42.34375 24.40625 42.933594 24.40625 43.523438 24.40625 C 43.945312 24.40625 43.945312 24.363281 43.945312 23.980469 C 43.945312 23.46875 43.945312 22.957031 43.945312 22.402344 C 43.945312 22.191406 44.03125 22.0625 44.242188 22.0625 C 46.136719 22.0625 48.078125 22.0625 49.976562 22.0625 C 50.273438 22.0625 50.566406 22.0625 50.863281 22.0625 C 51.15625 22.0625 51.199219 21.976562 51.199219 21.679688 C 51.199219 21.125 51.199219 20.527344 51.199219 19.976562 C 51.199219 19.632812 51.242188 19.632812 51.535156 19.632812 C 52.886719 19.632812 54.234375 19.632812 55.628906 19.632812 C 56.007812 19.632812 56.050781 19.59375 56.050781 19.207031 C 56.050781 18.65625 56.050781 18.058594 56.050781 17.503906 C 56.050781 17.25 56.132812 17.207031 56.386719 17.207031 C 56.933594 17.207031 57.527344 17.207031 58.074219 17.207031 C 58.328125 17.207031 58.410156 17.292969 58.410156 17.546875 C 58.410156 18.101562 58.410156 18.699219 58.410156 19.25 C 58.410156 19.550781 58.453125 19.59375 58.75 19.59375 C 59.339844 19.59375 59.929688 19.59375 60.519531 19.59375 C 60.773438 19.59375 60.855469 19.675781 60.855469 19.933594 C 60.855469 20.570312 60.855469 21.167969 60.855469 21.808594 C 60.855469 21.976562 60.898438 22.0625 61.109375 22.0625 C 61.742188 22.0625 62.332031 22.0625 62.964844 22.0625 C 63.261719 22.0625 63.304688 22.105469 63.304688 22.445312 C 63.304688 23.808594 63.304688 25.171875 63.304688 26.578125 C 63.304688 26.960938 63.304688 26.960938 63.683594 26.960938 C 64.273438 26.960938 64.863281 26.960938 65.453125 26.960938 C 65.621094 26.960938 65.707031 26.917969 65.707031 26.746094 C 65.707031 26.40625 65.707031 26.109375 65.707031 25.769531 C 65.707031 22.191406 65.707031 18.65625 65.707031 15.078125 C 65.707031 14.695312 65.707031 14.695312 66.085938 14.695312 C 66.675781 14.695312 67.226562 14.695312 67.816406 14.695312 C 68.070312 14.695312 68.152344 14.609375 68.152344 14.351562 C 68.152344 13.757812 68.152344 13.203125 68.152344 12.605469 C 68.152344 12.265625 68.195312 12.222656 68.53125 12.222656 C 69.125 12.222656 69.714844 12.222656 70.304688 12.222656 C 70.515625 12.222656 70.597656 12.136719 70.597656 11.925781 C 70.597656 11.285156 70.597656 10.691406 70.597656 10.050781 C 70.597656 9.796875 70.683594 9.710938 70.9375 9.710938 C 71.527344 9.710938 72.117188 9.710938 72.707031 9.710938 C 72.960938 9.710938 73.046875 9.625 73.003906 9.371094 C 73.003906 8.773438 73.003906 8.21875 73.003906 7.625 C 73.003906 7.410156 72.960938 7.324219 72.707031 7.324219 C 71.316406 7.324219 69.882812 7.324219 68.492188 7.324219 C 68.195312 7.324219 68.152344 7.28125 68.152344 6.984375 C 68.152344 6.429688 68.152344 5.835938 68.152344 5.28125 C 68.152344 4.941406 68.109375 4.898438 67.773438 4.898438 C 67.183594 4.898438 66.636719 4.898438 66.042969 4.898438 C 65.792969 4.898438 65.707031 4.8125 65.707031 4.558594 C 65.707031 3.960938 65.707031 3.320312 65.707031 2.726562 C 65.707031 2.511719 65.621094 2.425781 65.410156 2.425781 C 64.863281 2.425781 64.273438 2.425781 63.726562 2.425781 C 63.304688 2.425781 63.304688 2.425781 63.304688 2 C 63.304688 1.449219 63.304688 0.851562 63.304688 0.296875 C 63.304688 0.0859375 63.21875 0 63.007812 0 C 59.972656 0 56.933594 0 53.898438 0 C 53.6875 0 53.601562 0.0859375 53.601562 0.296875 C 53.601562 0.9375 53.601562 1.535156 53.601562 2.171875 C 53.601562 2.386719 53.519531 2.46875 53.308594 2.46875 C 52.675781 2.46875 52.042969 2.46875 51.453125 2.46875 C 51.242188 2.46875 51.199219 2.554688 51.199219 2.726562 C 51.199219 3.320312 51.199219 3.960938 51.199219 4.558594 C 51.199219 4.769531 51.242188 4.855469 51.496094 4.855469 C 52.886719 4.855469 54.277344 4.855469 55.667969 4.855469 C 55.964844 4.855469 56.007812 4.898438 56.007812 5.195312 C 56.007812 5.792969 56.007812 6.347656 56.007812 6.941406 C 56.007812 7.199219 56.089844 7.28125 56.34375 7.28125 C 56.933594 7.28125 57.527344 7.28125 58.117188 7.28125 C 58.367188 7.28125 58.453125 7.367188 58.453125 7.625 C 58.453125 8.21875 58.453125 8.773438 58.453125 9.371094 C 58.453125 9.667969 58.496094 9.710938 58.789062 9.710938 C 59.382812 9.710938 59.929688 9.710938 60.519531 9.710938 C 60.898438 9.710938 60.941406 9.667969 60.898438 9.285156 C 60.898438 8.730469 60.898438 8.136719 60.898438 7.582031 C 60.898438 7.410156 60.984375 7.324219 61.152344 7.324219 C 61.742188 7.324219 62.332031 7.324219 62.921875 7.324219 C 63.09375 7.324219 63.175781 7.367188 63.175781 7.582031 C 63.175781 8.175781 63.175781 8.730469 63.175781 9.328125 C 63.175781 9.582031 63.21875 9.667969 63.515625 9.667969 C 63.976562 9.667969 64.441406 9.667969 64.90625 9.667969 C 65.832031 9.667969 65.707031 9.582031 65.707031 10.476562 C 65.707031 10.945312 65.707031 11.371094 65.707031 11.839844 C 65.707031 12.097656 65.621094 12.179688 65.371094 12.179688 C 64.78125 12.179688 64.1875 12.179688 63.597656 12.179688 C 63.34375 12.179688 63.304688 12.265625 63.304688 12.480469 C 63.304688 13.074219 63.304688 13.671875 63.304688 14.269531 C 63.304688 14.523438 63.21875 14.609375 62.964844 14.609375 C 59.929688 14.609375 56.894531 14.609375 53.855469 14.609375 C 53.601562 14.609375 53.519531 14.523438 53.519531 14.269531 C 53.519531 13.671875 53.519531 13.074219 53.519531 12.480469 C 53.519531 12.222656 53.433594 12.136719 53.179688 12.136719 C 52.589844 12.136719 52.042969 12.136719 51.453125 12.136719 C 51.113281 12.136719 51.074219 12.097656 51.074219 11.753906 C 51.074219 11.160156 51.074219 10.5625 51.074219 9.964844 C 51.074219 9.753906 50.988281 9.667969 50.777344 9.667969 C 50.1875 9.667969 49.554688 9.667969 48.964844 9.667969 C 48.710938 9.667969 48.625 9.582031 48.625 9.328125 C 48.625 8.730469 48.625 8.09375 48.625 7.496094 C 48.625 7.324219 48.585938 7.242188 48.414062 7.242188 C 47.78125 7.242188 47.152344 7.242188 46.519531 7.242188 C 46.308594 7.242188 46.265625 7.324219 46.265625 7.539062 C 46.265625 8.136719 46.265625 8.773438 46.265625 9.371094 C 46.265625 9.582031 46.179688 9.667969 45.925781 9.667969 C 45.335938 9.667969 44.703125 9.667969 44.113281 9.667969 C 43.902344 9.667969 43.820312 9.753906 43.820312 9.964844 C 43.820312 10.5625 43.820312 11.203125 43.820312 11.796875 C 43.820312 12.054688 43.734375 12.136719 43.480469 12.136719 C 42.890625 12.136719 42.300781 12.136719 41.710938 12.136719 C 41.457031 12.136719 41.414062 12.222656 41.414062 12.480469 C 41.414062 13.074219 41.414062 13.628906 41.414062 14.226562 C 41.414062 14.566406 41.371094 14.609375 40.992188 14.609375 C 40.402344 14.609375 39.8125 14.609375 39.222656 14.609375 C 39.011719 14.609375 38.925781 14.695312 38.925781 14.90625 C 38.925781 15.503906 38.925781 16.097656 38.925781 16.695312 C 38.925781 17.035156 38.882812 17.035156 38.546875 17.035156 C 37.957031 17.035156 37.367188 17.035156 36.777344 17.035156 C 36.523438 17.035156 36.480469 17.121094 36.480469 17.335938 C 36.480469 17.929688 36.480469 18.527344 36.480469 19.125 C 36.480469 19.464844 36.4375 19.507812 36.101562 19.507812 C 35.511719 19.507812 34.960938 19.507812 34.371094 19.507812 C 34.117188 19.507812 34.035156 19.59375 34.035156 19.847656 C 34.035156 20.445312 34.035156 21.039062 34.035156 21.636719 C 34.035156 21.976562 33.992188 22.019531 33.65625 22.019531 C 33.066406 22.019531 32.472656 22.019531 31.882812 22.019531 C 31.671875 22.019531 31.589844 22.0625 31.589844 22.316406 C 31.589844 22.914062 31.589844 23.511719 31.589844 24.105469 C 31.589844 24.363281 31.503906 24.449219 31.25 24.449219 C 30.660156 24.449219 30.027344 24.449219 29.4375 24.449219 C 29.226562 24.449219 29.183594 24.53125 29.183594 24.703125 C 29.183594 25.34375 29.183594 25.980469 29.183594 26.621094 C 29.183594 26.832031 29.101562 26.917969 28.890625 26.917969 C 28.296875 26.917969 27.707031 26.917969 27.117188 26.917969 C 26.78125 26.917969 26.738281 26.960938 26.78125 27.257812 C 26.78125 27.855469 26.78125 28.449219 26.78125 29.046875 C 26.78125 29.304688 26.863281 29.386719 27.117188 29.34375 C 27.707031 29.34375 28.257812 29.34375 28.847656 29.34375 C 29.015625 29.34375 29.101562 29.429688 29.101562 29.601562 C 29.101562 30.199219 29.101562 30.792969 29.101562 31.390625 C 29.101562 31.558594 29.015625 31.644531 28.847656 31.644531 C 28.214844 31.644531 27.625 31.644531 26.992188 31.644531 C 26.78125 31.644531 26.78125 31.476562 26.78125 31.347656 C 26.78125 30.75 26.78125 30.15625 26.78125 29.558594 C 26.78125 29.386719 26.738281 29.304688 26.570312 29.304688 C 25.894531 29.304688 25.21875 29.304688 24.546875 29.304688 C 24.375 29.304688 24.335938 29.386719 24.335938 29.558594 C 24.335938 30.238281 24.335938 30.878906 24.335938 31.558594 C 24.335938 31.730469 24.292969 31.773438 24.125 31.773438 C 23.492188 31.773438 22.859375 31.773438 22.226562 31.773438 C 21.972656 31.773438 21.929688 31.859375 21.929688 32.113281 C 21.929688 32.710938 21.929688 33.304688 21.929688 33.902344 C 21.929688 34.242188 21.929688 34.242188 21.550781 34.242188 C 20.160156 34.242188 18.726562 34.242188 17.332031 34.242188 C 17.082031 34.242188 17.039062 34.328125 17.039062 34.542969 C 17.039062 35.179688 17.039062 35.820312 17.039062 36.457031 C 17.039062 36.671875 16.996094 36.714844 16.785156 36.714844 C 16.152344 36.714844 15.5625 36.714844 14.929688 36.714844 C 14.71875 36.714844 14.632812 36.800781 14.632812 37.011719 C 14.632812 37.652344 14.632812 38.289062 14.632812 38.929688 C 14.632812 39.140625 14.59375 39.183594 14.382812 39.183594 C 12.949219 39.183594 11.511719 39.183594 10.078125 39.183594 C 9.785156 39.183594 9.742188 39.269531 9.742188 39.523438 C 9.742188 40.25 9.742188 40.972656 9.742188 41.65625 C 8.984375 41.570312 8.265625 41.613281 7.507812 41.613281 C 7.339844 41.613281 7.339844 41.78125 7.339844 41.910156 C 7.339844 42.546875 7.339844 43.144531 7.339844 43.785156 C 7.339844 44.039062 7.296875 44.082031 7.042969 44.082031 C 5.652344 44.082031 4.21875 44.082031 2.785156 44.082031 C 2.445312 44.082031 2.445312 44.082031 2.445312 44.421875 C 2.445312 45.0625 2.445312 45.699219 2.445312 46.339844 C 2.445312 46.511719 2.402344 46.550781 2.234375 46.511719 C 1.601562 46.511719 0.96875 46.511719 0.296875 46.511719 C 0.0859375 46.511719 0 46.550781 0 46.808594 C 0 47.445312 0 48.042969 0 48.683594 C 0 48.894531 0.0429688 48.9375 0.253906 48.9375 C 0.886719 48.9375 1.476562 48.9375 2.109375 48.9375 C 2.363281 48.9375 2.445312 49.023438 2.402344 49.277344 C 2.402344 49.875 2.402344 50.511719 2.402344 51.109375 C 2.402344 51.324219 2.445312 51.40625 2.699219 51.40625 C 3.289062 51.40625 3.878906 51.40625 4.46875 51.40625 C 4.808594 51.40625 4.851562 51.449219 4.851562 51.792969 C 4.851562 52.386719 4.851562 52.941406 4.851562 53.539062 C 4.851562 53.792969 4.933594 53.878906 5.1875 53.878906 C 5.734375 53.878906 6.324219 53.878906 6.875 53.878906 C 7.128906 53.878906 7.210938 53.792969 7.167969 53.582031 C 7.167969 52.984375 7.167969 52.386719 7.167969 51.792969 C 7.167969 51.449219 7.210938 51.40625 7.550781 51.40625 C 8.140625 51.40625 8.6875 51.40625 9.277344 51.40625 C 9.53125 51.40625 9.617188 51.324219 9.617188 51.066406 C 9.617188 50.472656 9.617188 49.875 9.617188 49.277344 C 9.617188 49.023438 9.699219 48.9375 9.953125 48.9375 C 11.34375 48.9375 12.777344 48.9375 14.171875 48.980469 C 14.421875 48.980469 14.464844 48.894531 14.464844 48.683594 C 14.464844 48.085938 14.464844 47.445312 14.464844 46.851562 C 14.464844 46.59375 14.550781 46.511719 14.804688 46.511719 C 15.394531 46.511719 15.984375 46.511719 16.574219 46.511719 C 16.828125 46.511719 16.910156 46.425781 16.910156 46.167969 C 16.910156 45.617188 16.910156 45.019531 16.910156 44.464844 C 16.910156 44.082031 16.910156 44.082031 17.292969 44.082031 C 19.441406 44.082031 21.636719 44.082031 23.785156 44.082031 C 24.164062 44.082031 24.164062 44.082031 24.164062 43.699219 C 24.164062 43.144531 24.164062 42.546875 24.164062 41.996094 C 24.164062 41.65625 24.207031 41.613281 24.546875 41.613281 C 27.792969 41.695312 30.828125 41.695312 33.824219 41.695312 Z M 29.734375 27.046875 C 30.28125 27.046875 30.871094 27.046875 31.417969 27.046875 C 31.628906 27.046875 31.714844 27.128906 31.714844 27.34375 C 31.714844 27.941406 31.714844 28.492188 31.714844 29.089844 C 31.714844 29.304688 31.628906 29.429688 31.417969 29.429688 C 30.828125 29.429688 30.28125 29.429688 29.691406 29.429688 C 29.480469 29.429688 29.394531 29.34375 29.394531 29.132812 C 29.394531 28.835938 29.394531 28.578125 29.394531 28.28125 C 29.394531 27.984375 29.394531 27.726562 29.394531 27.429688 C 29.351562 27.128906 29.480469 27.046875 29.734375 27.046875 Z M 14.71875 43.785156 C 14.71875 44.082031 14.675781 44.167969 14.339844 44.167969 C 13.75 44.167969 13.199219 44.167969 12.609375 44.167969 C 12.316406 44.167969 12.273438 44.253906 12.273438 44.550781 C 12.273438 45.148438 12.273438 45.699219 12.273438 46.296875 C 12.273438 46.550781 12.144531 46.636719 11.933594 46.636719 C 11.34375 46.636719 10.753906 46.636719 10.164062 46.636719 C 9.910156 46.636719 9.828125 46.722656 9.828125 46.9375 C 9.828125 47.488281 9.828125 48.042969 9.828125 48.597656 C 9.828125 49.023438 9.828125 49.066406 9.363281 49.066406 C 8.6875 49.066406 8.011719 49.066406 7.378906 49.066406 C 5.90625 49.066406 4.46875 49.066406 2.996094 49.066406 C 2.65625 49.066406 2.613281 49.023438 2.613281 48.683594 C 2.613281 48.171875 2.613281 47.660156 2.613281 47.105469 C 2.613281 46.722656 2.65625 46.679688 3.035156 46.679688 C 4.34375 46.679688 5.695312 46.679688 7 46.679688 C 7.464844 46.679688 7.464844 46.636719 7.464844 46.167969 C 7.464844 45.65625 7.464844 45.105469 7.464844 44.59375 C 7.464844 44.296875 7.589844 44.210938 7.886719 44.210938 C 8.433594 44.210938 9.023438 44.210938 9.574219 44.210938 C 9.742188 44.210938 9.867188 44.125 9.867188 43.953125 C 9.867188 43.230469 9.867188 42.507812 9.867188 41.824219 C 9.996094 41.824219 10.078125 41.78125 10.207031 41.78125 C 11.597656 41.78125 12.988281 41.78125 14.382812 41.78125 C 14.632812 41.78125 14.675781 41.867188 14.675781 42.121094 C 14.71875 42.632812 14.71875 43.1875 14.71875 43.785156 Z M 16.910156 41.695312 C 16.617188 41.695312 16.320312 41.695312 16.027344 41.695312 C 15.730469 41.695312 15.476562 41.695312 15.183594 41.695312 C 14.886719 41.695312 14.84375 41.613281 14.84375 41.3125 C 14.84375 40.761719 14.84375 40.207031 14.84375 39.609375 C 14.84375 39.398438 14.929688 39.269531 15.140625 39.269531 C 15.730469 39.269531 16.363281 39.269531 16.953125 39.269531 C 17.121094 39.269531 17.25 39.355469 17.25 39.523438 C 17.25 40.121094 17.25 40.761719 17.25 41.355469 C 17.164062 41.613281 17.082031 41.695312 16.910156 41.695312 Z M 19.273438 39.269531 C 18.683594 39.269531 18.09375 39.269531 17.503906 39.269531 C 17.292969 39.269531 17.207031 39.183594 17.207031 38.972656 C 17.207031 38.375 17.207031 37.820312 17.207031 37.226562 C 17.207031 36.96875 17.332031 36.839844 17.585938 36.882812 C 18.175781 36.925781 18.726562 36.925781 19.316406 36.925781 C 19.527344 36.925781 19.570312 37.011719 19.570312 37.226562 C 19.570312 37.523438 19.570312 37.820312 19.570312 38.121094 C 19.570312 38.417969 19.570312 38.714844 19.570312 39.015625 C 19.570312 39.183594 19.484375 39.269531 19.273438 39.269531 Z M 24.460938 36.414062 C 24.460938 36.628906 24.375 36.714844 24.164062 36.714844 C 23.871094 36.714844 23.574219 36.714844 23.28125 36.714844 C 22.984375 36.714844 22.648438 36.714844 22.351562 36.714844 C 22.183594 36.714844 22.097656 36.628906 22.097656 36.457031 C 22.097656 35.863281 22.097656 35.265625 22.097656 34.667969 C 22.097656 34.457031 22.226562 34.371094 22.4375 34.371094 C 23.027344 34.371094 23.617188 34.371094 24.207031 34.371094 C 24.417969 34.371094 24.503906 34.457031 24.503906 34.667969 C 24.460938 35.265625 24.460938 35.863281 24.460938 36.414062 Z M 24.503906 34.03125 C 24.503906 33.734375 24.503906 33.476562 24.503906 33.179688 C 24.503906 32.878906 24.503906 32.582031 24.503906 32.285156 C 24.503906 32.070312 24.585938 31.945312 24.796875 31.945312 C 25.390625 31.945312 25.980469 31.945312 26.570312 31.945312 C 26.738281 31.945312 26.824219 32.027344 26.824219 32.199219 C 26.824219 32.839844 26.824219 33.433594 26.824219 34.074219 C 26.824219 34.242188 26.738281 34.328125 26.570312 34.328125 C 25.980469 34.328125 25.390625 34.328125 24.796875 34.328125 C 24.585938 34.328125 24.503906 34.199219 24.503906 34.03125 Z M 24.503906 34.03125 "/>
        <path style=" stroke:none;fill-rule:nonzero;fill:rgb(13.72549%,31.372549%,44.313725%);fill-opacity:1;"
              d="M 75.828125 44.210938 C 75.535156 44.210938 75.492188 44.167969 75.492188 43.828125 C 75.492188 43.230469 75.492188 42.632812 75.492188 42.039062 C 75.492188 41.78125 75.40625 41.695312 75.152344 41.695312 C 74.394531 41.695312 73.636719 41.695312 72.875 41.695312 C 71.441406 41.695312 70.007812 41.695312 68.574219 41.695312 C 68.238281 41.695312 68.238281 41.695312 68.238281 42.039062 C 68.238281 43.402344 68.238281 44.804688 68.238281 46.167969 C 68.238281 46.59375 68.238281 46.59375 67.816406 46.59375 C 67.265625 46.59375 66.71875 46.59375 66.171875 46.59375 C 65.75 46.59375 65.707031 46.550781 65.707031 46.082031 C 65.707031 45.0625 65.707031 43.996094 65.707031 42.976562 C 65.707031 42.632812 65.707031 42.292969 65.707031 41.996094 C 65.707031 41.78125 65.621094 41.65625 65.410156 41.695312 C 64.863281 41.695312 64.273438 41.695312 63.726562 41.695312 C 63.304688 41.695312 63.304688 41.695312 63.304688 41.269531 C 63.304688 40.675781 63.304688 40.121094 63.304688 39.523438 C 63.304688 39.3125 63.21875 39.226562 63.007812 39.226562 C 62.417969 39.226562 61.828125 39.226562 61.238281 39.226562 C 61.027344 39.226562 60.941406 39.269531 60.941406 39.480469 C 60.941406 41.695312 60.941406 43.953125 60.941406 46.167969 C 60.941406 46.425781 61.027344 46.511719 61.277344 46.511719 C 61.871094 46.511719 62.460938 46.511719 63.050781 46.511719 C 63.34375 46.511719 63.429688 46.550781 63.429688 46.851562 C 63.429688 48.257812 63.429688 49.703125 63.429688 51.109375 C 63.429688 51.449219 63.34375 51.492188 63.050781 51.492188 C 62.460938 51.492188 61.910156 51.492188 61.320312 51.492188 C 61.066406 51.492188 60.984375 51.578125 60.984375 51.832031 C 60.984375 53.238281 60.984375 54.601562 60.984375 56.007812 C 60.984375 56.347656 60.941406 56.390625 60.605469 56.390625 C 60.011719 56.390625 59.421875 56.390625 58.832031 56.390625 C 58.539062 56.390625 58.496094 56.347656 58.496094 56.007812 C 58.496094 55.410156 58.496094 54.816406 58.496094 54.21875 C 58.496094 54.007812 58.453125 53.921875 58.199219 53.921875 C 56.007812 53.921875 53.8125 53.921875 51.621094 53.921875 C 51.199219 53.921875 51.199219 53.921875 51.199219 53.496094 C 51.199219 52.941406 51.199219 52.34375 51.199219 51.792969 C 51.199219 51.578125 51.113281 51.492188 50.902344 51.492188 C 50.3125 51.492188 49.765625 51.492188 49.175781 51.492188 C 48.796875 51.492188 48.796875 51.492188 48.796875 51.109375 C 48.796875 50.511719 48.796875 49.960938 48.796875 49.363281 C 48.796875 49.152344 48.753906 49.023438 48.5 49.023438 C 47.910156 49.023438 47.277344 49.023438 46.6875 49.023438 C 46.433594 49.023438 46.347656 48.9375 46.347656 48.683594 C 46.347656 48.042969 46.347656 47.402344 46.347656 46.765625 C 46.347656 46.550781 46.433594 46.46875 46.644531 46.46875 C 47.234375 46.46875 47.867188 46.46875 48.457031 46.46875 C 48.710938 46.46875 48.796875 46.382812 48.796875 46.125 C 48.796875 45.53125 48.796875 44.976562 48.796875 44.378906 C 48.796875 44.039062 48.796875 44.039062 48.457031 44.039062 C 47.992188 44.039062 47.53125 44.039062 47.066406 44.039062 C 44.578125 44.039062 42.132812 44.039062 39.644531 44.039062 C 39.558594 44.039062 39.476562 44.039062 39.390625 44.039062 C 39.222656 44.039062 39.179688 44.125 39.179688 44.296875 C 39.179688 45.785156 39.179688 47.234375 39.179688 48.722656 C 39.179688 48.9375 39.265625 48.980469 39.433594 48.980469 C 40.023438 48.980469 40.570312 48.980469 41.160156 48.980469 C 41.625 48.980469 41.625 48.980469 41.625 49.449219 C 41.625 50.003906 41.625 50.554688 41.625 51.109375 C 41.625 51.367188 41.710938 51.449219 41.964844 51.40625 C 42.554688 51.40625 43.144531 51.40625 43.734375 51.40625 C 43.945312 51.40625 44.070312 51.492188 44.070312 51.707031 C 44.070312 53.152344 44.070312 54.601562 44.070312 56.050781 C 44.070312 56.304688 43.945312 56.390625 43.734375 56.390625 C 43.144531 56.390625 42.554688 56.390625 41.964844 56.390625 C 41.710938 56.390625 41.625 56.476562 41.625 56.730469 C 41.625 58.09375 41.625 59.5 41.625 60.863281 C 41.625 61.289062 41.582031 61.289062 41.203125 61.289062 C 39.054688 61.289062 36.902344 61.289062 34.710938 61.289062 C 34.328125 61.289062 34.328125 61.289062 34.328125 61.671875 C 34.328125 62.226562 34.328125 62.78125 34.328125 63.332031 C 34.328125 63.714844 34.289062 63.757812 33.90625 63.757812 C 30.957031 63.757812 28.003906 63.757812 25.050781 63.757812 C 24.585938 63.757812 24.585938 63.757812 24.585938 64.226562 C 24.585938 64.738281 24.585938 65.25 24.585938 65.804688 C 24.585938 66.058594 24.671875 66.144531 24.925781 66.101562 C 25.515625 66.101562 26.105469 66.101562 26.695312 66.101562 C 26.949219 66.101562 27.035156 66.230469 27.035156 66.441406 C 27.035156 66.996094 27.035156 67.59375 27.035156 68.144531 C 27.035156 68.488281 27.074219 68.53125 27.414062 68.53125 C 27.960938 68.53125 28.507812 68.53125 29.058594 68.53125 C 29.4375 68.53125 29.480469 68.570312 29.480469 68.957031 C 29.480469 69.507812 29.480469 70.105469 29.480469 70.660156 C 29.480469 70.914062 29.523438 71 29.773438 71 C 31.96875 71 34.117188 71 36.3125 71 C 36.648438 71 36.648438 71 36.648438 70.617188 C 36.648438 70.0625 36.648438 69.464844 36.648438 68.914062 C 36.648438 68.570312 36.691406 68.53125 37.070312 68.53125 C 38.421875 68.53125 39.8125 68.53125 41.160156 68.53125 C 41.5 68.53125 41.542969 68.53125 41.542969 68.1875 C 41.542969 67.636719 41.542969 67.082031 41.542969 66.527344 C 41.542969 66.101562 41.542969 66.058594 42.003906 66.058594 C 43.820312 66.058594 45.632812 66.058594 47.488281 66.058594 C 47.867188 66.058594 48.246094 66.058594 48.625 66.058594 C 48.796875 66.058594 48.835938 65.972656 48.835938 65.804688 C 48.835938 65.207031 48.835938 64.609375 48.835938 64.015625 C 48.835938 63.632812 48.835938 63.632812 49.21875 63.632812 C 51.410156 63.632812 53.601562 63.632812 55.839844 63.632812 C 56.089844 63.632812 56.175781 63.546875 56.132812 63.292969 C 56.132812 62.695312 56.132812 62.140625 56.132812 61.542969 C 56.132812 61.160156 56.132812 61.160156 56.511719 61.160156 C 57.652344 61.160156 58.832031 61.160156 59.972656 61.160156 C 60.308594 61.160156 60.644531 61.160156 61.027344 61.160156 C 62.542969 61.160156 64.0625 61.160156 65.582031 61.160156 C 65.792969 61.160156 65.832031 61.035156 65.832031 60.863281 C 65.832031 60.308594 65.832031 59.714844 65.832031 59.160156 C 65.832031 58.777344 65.875 58.734375 66.253906 58.734375 C 68.40625 58.734375 70.597656 58.734375 72.75 58.734375 C 73.085938 58.734375 73.085938 58.734375 73.085938 58.394531 C 73.085938 57.839844 73.085938 57.242188 73.085938 56.6875 C 73.085938 56.476562 73.003906 56.347656 72.792969 56.390625 C 72.203125 56.390625 71.613281 56.390625 71.019531 56.390625 C 70.726562 56.390625 70.683594 56.347656 70.683594 56.007812 C 70.683594 55.453125 70.683594 54.859375 70.683594 54.304688 C 70.683594 53.964844 70.683594 53.964844 70.347656 53.921875 C 68.996094 53.921875 67.648438 53.921875 66.253906 53.921875 C 65.875 53.921875 65.832031 53.878906 65.832031 53.496094 C 65.832031 52.898438 65.832031 52.34375 65.832031 51.75 C 65.832031 51.449219 65.875 51.367188 66.214844 51.367188 C 66.804688 51.367188 67.394531 51.367188 67.984375 51.367188 C 68.195312 51.367188 68.28125 51.324219 68.28125 51.066406 C 68.28125 50.472656 68.28125 49.875 68.28125 49.277344 C 68.28125 48.9375 68.320312 48.894531 68.660156 48.894531 C 70.007812 48.894531 71.402344 48.894531 72.75 48.894531 C 73.128906 48.894531 73.128906 48.894531 73.128906 48.511719 C 73.128906 47.957031 73.128906 47.363281 73.128906 46.808594 C 73.128906 46.46875 73.214844 46.425781 73.507812 46.425781 C 74.859375 46.425781 76.25 46.425781 77.601562 46.425781 C 77.980469 46.425781 77.980469 46.425781 77.980469 46.042969 C 77.980469 45.488281 77.980469 44.890625 77.980469 44.335938 C 77.980469 44.125 77.894531 44.039062 77.683594 44.039062 C 77.011719 44.210938 76.417969 44.210938 75.828125 44.210938 Z M 75.828125 44.210938 "/>
        <path style=" stroke:none;fill-rule:nonzero;fill:rgb(91.372549%,78.039216%,8.627451%);fill-opacity:1;"
              d="M 63.304688 27.34375 C 63.304688 27.003906 63.261719 26.960938 62.964844 26.960938 C 62.375 26.960938 61.742188 26.960938 61.152344 26.960938 C 60.941406 26.960938 60.898438 27.046875 60.898438 27.214844 C 60.898438 28.707031 60.898438 30.15625 60.898438 31.644531 C 60.898438 31.816406 60.984375 31.859375 61.152344 31.859375 C 61.785156 31.859375 62.417969 31.859375 63.050781 31.859375 C 63.261719 31.859375 63.34375 31.773438 63.34375 31.558594 C 63.34375 30.835938 63.34375 30.113281 63.34375 29.386719 C 63.304688 28.707031 63.304688 28.023438 63.304688 27.34375 Z M 63.304688 27.34375 "/>
        <path style=" stroke:none;fill-rule:nonzero;fill:rgb(91.372549%,78.039216%,8.627451%);fill-opacity:1;"
              d="M 58.707031 36.757812 C 59.339844 36.757812 60.011719 36.757812 60.644531 36.757812 C 60.816406 36.757812 60.898438 36.671875 60.898438 36.5 C 60.898438 35.054688 60.898438 33.605469 60.898438 32.15625 C 60.898438 31.945312 60.816406 31.859375 60.605469 31.859375 C 59.972656 31.859375 59.382812 31.859375 58.75 31.859375 C 58.578125 31.859375 58.496094 31.902344 58.496094 32.113281 C 58.496094 32.839844 58.496094 33.5625 58.496094 34.328125 C 58.496094 35.054688 58.496094 35.777344 58.496094 36.5 C 58.453125 36.671875 58.496094 36.757812 58.707031 36.757812 Z M 58.707031 36.757812 "/>
        <path style=" stroke:none;fill-rule:nonzero;fill:rgb(91.372549%,78.039216%,8.627451%);fill-opacity:1;"
              d="M 53.222656 41.695312 C 51.832031 41.695312 50.441406 41.695312 49.046875 41.695312 C 48.796875 41.695312 48.753906 41.824219 48.753906 42.039062 C 48.753906 42.632812 48.753906 43.230469 48.753906 43.828125 C 48.753906 44.082031 48.878906 44.125 49.046875 44.125 C 49.765625 44.125 50.441406 44.125 51.15625 44.125 C 51.875 44.125 52.589844 44.125 53.265625 44.125 C 53.476562 44.125 53.601562 44.082031 53.5625 43.828125 C 53.5625 43.230469 53.5625 42.675781 53.5625 42.082031 C 53.601562 41.738281 53.519531 41.695312 53.222656 41.695312 Z M 53.222656 41.695312 "/>
        <path style=" stroke:none;fill-rule:nonzero;fill:rgb(91.372549%,78.039216%,8.627451%);fill-opacity:1;"
              d="M 36.648438 41.695312 C 36.648438 41.738281 36.648438 41.738281 36.648438 41.695312 C 35.972656 41.695312 35.300781 41.695312 34.582031 41.695312 C 34.246094 41.695312 34.246094 41.738281 34.246094 42.039062 C 34.246094 42.632812 34.246094 43.230469 34.246094 43.828125 C 34.246094 44.039062 34.328125 44.082031 34.5 44.082031 C 35.933594 44.082031 37.367188 44.082031 38.800781 44.082031 C 39.011719 44.082031 39.09375 43.996094 39.09375 43.785156 C 39.09375 43.1875 39.09375 42.589844 39.09375 41.996094 C 39.09375 41.738281 39.011719 41.65625 38.757812 41.65625 C 38.042969 41.738281 37.324219 41.695312 36.648438 41.695312 Z M 36.648438 41.695312 "/>
        <path style=" stroke:none;fill-rule:nonzero;fill:rgb(91.372549%,78.039216%,8.627451%);fill-opacity:1;"
              d="M 53.8125 41.695312 C 54.488281 41.695312 55.164062 41.695312 55.839844 41.695312 C 55.964844 41.695312 56.007812 41.613281 56.007812 41.484375 C 56.007812 40.800781 56.007812 40.121094 56.007812 39.398438 C 56.007812 39.269531 55.964844 39.226562 55.796875 39.226562 C 55.121094 39.226562 54.445312 39.226562 53.8125 39.226562 C 53.601562 39.226562 53.5625 39.3125 53.5625 39.480469 C 53.5625 39.824219 53.5625 40.164062 53.5625 40.460938 C 53.5625 40.800781 53.5625 41.101562 53.5625 41.441406 C 53.601562 41.613281 53.644531 41.695312 53.8125 41.695312 Z M 53.8125 41.695312 "/>
        <path style=" stroke:none;fill-rule:nonzero;fill:rgb(91.372549%,78.039216%,8.627451%);fill-opacity:1;"
              d="M 58.199219 39.226562 C 58.367188 39.226562 58.453125 39.140625 58.453125 39.015625 C 58.453125 38.332031 58.453125 37.695312 58.453125 37.011719 C 58.453125 36.839844 58.367188 36.800781 58.199219 36.800781 C 57.566406 36.800781 56.933594 36.800781 56.300781 36.800781 C 56.132812 36.800781 56.050781 36.882812 56.050781 37.097656 C 56.050781 37.695312 56.050781 38.332031 56.050781 38.929688 C 56.050781 39.140625 56.132812 39.226562 56.34375 39.226562 C 56.683594 39.226562 56.976562 39.226562 57.316406 39.226562 C 57.609375 39.226562 57.90625 39.226562 58.199219 39.226562 Z M 58.199219 39.226562 "/>
        <path style=" stroke:none;fill-rule:nonzero;fill:rgb(13.72549%,31.372549%,44.313725%);fill-opacity:1;"
              d="M 48.796875 6.175781 C 48.796875 6.472656 48.796875 6.816406 48.796875 7.113281 C 48.796875 7.28125 48.835938 7.324219 48.964844 7.324219 C 49.640625 7.324219 50.3125 7.324219 50.945312 7.324219 C 51.074219 7.324219 51.113281 7.242188 51.113281 7.113281 C 51.113281 6.429688 51.113281 5.792969 51.113281 5.109375 C 51.113281 4.941406 51.074219 4.898438 50.902344 4.898438 C 50.273438 4.898438 49.679688 4.898438 49.046875 4.898438 C 48.835938 4.898438 48.796875 4.984375 48.796875 5.152344 C 48.835938 5.496094 48.796875 5.835938 48.796875 6.175781 Z M 48.796875 6.175781 "/>
    </g>
</svg>
