<svg width="150" height="71" viewBox="0 0 150 71" fill="none" xmlns="http://www.w3.org/2000/svg">
    <path d="M96.9093 29.6459H94.1523V32.4141H96.9093V29.6459Z" fill="#121428"/>
    <path d="M91.4372 29.6459H88.6802V32.4141H91.4372V29.6459Z" fill="#121428"/>
    <path d="M88.6387 13.121H83.1665V29.6459H88.6387V13.121Z" fill="#121428"/>
    <path d="M94.1525 21.3835H91.3955V29.6459H94.1525V21.3835Z" fill="#121428"/>
    <path d="M102.382 13.121H96.9097V29.6459H102.382V13.121Z" fill="#121428"/>
    <path d="M107.854 32.414H118.84V29.6459H110.611V26.8778H121.597V21.3835H118.84V18.6154H107.854V21.3835H105.097V29.6459H107.854V32.414ZM110.611 21.3835H116.083V24.1516H110.611V21.3835Z" fill="#121428"/>
    <path d="M135.299 29.6459H132.542V13.121H124.312V15.8892H127.069V29.6459H124.312V32.414H135.299V29.6459Z" fill="#121428"/>
    <path d="M146.285 29.6459V13.121H138.056V15.8892H140.771V29.6459H138.056V32.414H149V29.6459H146.285Z" fill="#121428"/>
    <path d="M88.9235 42.3122H86.1665V47.8484H88.9235V50.5746H94.3957V56.1109H86.1665V58.837H97.1527V56.1109H99.9097V50.5746H97.1527V47.8484H91.6805V42.3122H99.9097V39.586H88.9235V42.3122Z" fill="#121428"/>
    <path d="M113.611 45.0803H105.382V47.8484H102.625V56.1109H105.382V58.879H113.611V56.1109H116.368V47.8484H113.611V45.0803ZM110.854 56.1109H108.097V47.8484H110.854V56.1109Z" fill="#121428"/>
    <path d="M132.826 39.586H130.069V42.3541H132.826V39.586Z" fill="#121428"/>
    <path d="M124.597 36.8179V39.586H121.84V47.8484H119.083V50.5746H121.84V58.837H127.312V50.5746H130.069V47.8484H127.312V39.586H130.069V36.8179H124.597Z" fill="#121428"/>
    <path d="M149.285 53.3427H146.528V56.1108H149.285V53.3427Z" fill="#121428"/>
    <path d="M143.771 47.8484H146.528V45.0803H143.771V39.586H138.298V45.0803H135.542V47.8484H138.298V56.1109H141.055V58.837H146.528V56.1109H143.771V47.8484Z" fill="#121428"/>
    <path d="M34.2926 42.0186C34.6267 42.0186 34.6268 42.0186 34.6268 41.6831C34.6268 41.0959 34.6268 40.5087 34.6268 39.9215C34.6268 39.6699 34.7103 39.586 34.9609 39.586C35.5875 39.6279 36.1723 39.586 36.7989 39.6279C37.0078 39.6279 37.0078 39.5021 37.0078 39.3343C36.966 38.7472 37.0078 38.118 37.0078 37.5309C37.0078 37.1534 37.0496 37.1534 37.3837 37.1534C38.804 37.1534 40.2243 37.1534 41.6445 37.1534C41.8116 37.1534 41.8534 37.1115 41.8534 36.9437C41.8534 36.3146 41.8534 35.6855 41.8534 35.0563C41.8534 34.8466 41.9369 34.7627 42.1458 34.7627C44.3597 34.7627 46.5737 34.7627 48.7876 34.7627C48.9965 34.7627 49.08 34.7208 49.08 34.5111C49.08 33.9239 49.08 33.2948 49.08 32.7076C49.08 32.4979 49.0383 32.456 48.8294 32.456C48.2028 32.456 47.618 32.456 46.9914 32.456C46.6572 32.456 46.6155 32.414 46.6155 32.0785C46.6155 31.4913 46.6155 30.9461 46.6155 30.3589C46.6155 30.1492 46.5319 30.0653 46.3231 30.0653C45.7382 30.0653 45.1952 30.0653 44.6104 30.0653C44.2344 30.0653 44.2344 30.0234 44.1927 29.6459C44.1927 29.0587 44.1927 28.4715 44.1927 27.8844C44.1927 27.6747 44.1509 27.5908 43.9002 27.5908C43.3154 27.6327 42.7306 27.5908 42.1458 27.5908C41.9787 27.5908 41.8534 27.5069 41.8534 27.2972C41.8534 26.6261 41.8534 25.9131 41.8534 25.2421C41.8534 25.0324 41.9787 24.9904 42.1458 24.9904C42.7306 24.9904 43.3154 24.9904 43.9002 24.9904C44.318 24.9904 44.318 24.9485 44.318 24.571C44.318 24.0677 44.318 23.5644 44.318 23.0192C44.318 22.8095 44.4015 22.6837 44.6104 22.6837C46.4901 22.6837 48.4117 22.6837 50.2914 22.6837C50.5839 22.6837 50.8763 22.6837 51.1687 22.6837C51.4611 22.6837 51.5028 22.5998 51.5028 22.3062C51.5028 21.7609 51.5028 21.1738 51.5028 20.6285C51.5028 20.293 51.5446 20.293 51.837 20.293C53.1737 20.293 54.5105 20.293 55.889 20.293C56.2649 20.293 56.3067 20.2511 56.3067 19.8736C56.3067 19.3284 56.3067 18.7412 56.3067 18.1959C56.3067 17.9443 56.3902 17.9023 56.6409 17.9023C57.1839 17.9023 57.7687 17.9023 58.3118 17.9023C58.5624 17.9023 58.6459 17.9862 58.6459 18.2379C58.6459 18.7831 58.6459 19.3703 58.6459 19.9155C58.6459 20.2091 58.6877 20.2511 58.9801 20.2511C59.5649 20.2511 60.1498 20.2511 60.7346 20.2511C60.9852 20.2511 61.0688 20.3349 61.0688 20.5866C61.0688 21.2157 61.0688 21.8029 61.0688 22.432C61.0688 22.5998 61.1105 22.6837 61.3194 22.6837C61.946 22.6837 62.5308 22.6837 63.1574 22.6837C63.4498 22.6837 63.4916 22.7256 63.4916 23.0611C63.4916 24.4032 63.4916 25.7454 63.4916 27.1294C63.4916 27.5069 63.4916 27.5069 63.8675 27.5069C64.4523 27.5069 65.0371 27.5069 65.622 27.5069C65.789 27.5069 65.8726 27.465 65.8726 27.2972C65.8726 26.9617 65.8726 26.6681 65.8726 26.3325C65.8726 22.8095 65.8726 19.3284 65.8726 15.8053C65.8726 15.4278 65.8726 15.4278 66.2485 15.4278C66.8334 15.4278 67.3764 15.4278 67.9612 15.4278C68.2119 15.4278 68.2954 15.3439 68.2954 15.0923C68.2954 14.5051 68.2954 13.9599 68.2954 13.3727C68.2954 13.0372 68.3372 12.9952 68.6713 12.9952C69.2562 12.9952 69.841 12.9952 70.4258 12.9952C70.6347 12.9952 70.7182 12.9113 70.7182 12.7016C70.7182 12.0725 70.7182 11.4853 70.7182 10.8562C70.7182 10.6046 70.8017 10.5207 71.0524 10.5207C71.6372 10.5207 72.222 10.5207 72.8068 10.5207C73.0575 10.5207 73.141 10.4368 73.0992 10.1852C73.0992 9.59797 73.0992 9.05274 73.0992 8.46556C73.0992 8.25585 73.0575 8.17197 72.8068 8.17197C71.4283 8.17197 70.0081 8.17197 68.6296 8.17197C68.3372 8.17197 68.2954 8.13003 68.2954 7.83644C68.2954 7.2912 68.2954 6.70403 68.2954 6.15879C68.2954 5.82326 68.2536 5.78132 67.9194 5.78132C67.3346 5.78132 66.7916 5.78132 66.2068 5.78132C65.9561 5.78132 65.8726 5.69743 65.8726 5.44579C65.8726 4.85861 65.8726 4.22949 65.8726 3.64231C65.8726 3.4326 65.789 3.34872 65.5802 3.34872C65.0371 3.34872 64.4523 3.34872 63.9093 3.34872C63.4916 3.34872 63.4916 3.34872 63.4916 2.92931C63.4916 2.38407 63.4916 1.79689 63.4916 1.25166C63.4916 1.04195 63.408 0.958069 63.1991 0.958069C60.1915 0.958069 57.1839 0.958069 54.1763 0.958069C53.9674 0.958069 53.8839 1.04195 53.8839 1.25166C53.8839 1.88078 53.8839 2.46796 53.8839 3.09707C53.8839 3.30678 53.8003 3.39066 53.5915 3.39066C52.9649 3.39066 52.3383 3.39066 51.7535 3.39066C51.5446 3.39066 51.5028 3.47455 51.5028 3.64231C51.5028 4.22949 51.5028 4.85861 51.5028 5.44579C51.5028 5.65549 51.5446 5.73938 51.7952 5.73938C53.1737 5.73938 54.5522 5.73938 55.9307 5.73938C56.2231 5.73938 56.2649 5.78132 56.2649 6.07491C56.2649 6.66208 56.2649 7.20732 56.2649 7.7945C56.2649 8.04615 56.3485 8.13003 56.5991 8.13003C57.1839 8.13003 57.7687 8.13003 58.3535 8.13003C58.6042 8.13003 58.6877 8.21391 58.6877 8.46556C58.6877 9.05274 58.6877 9.59797 58.6877 10.1852C58.6877 10.4787 58.7295 10.5207 59.0219 10.5207C59.6067 10.5207 60.1498 10.5207 60.7346 10.5207C61.1105 10.5207 61.1523 10.4787 61.1105 10.1013C61.1105 9.55603 61.1105 8.96885 61.1105 8.42362C61.1105 8.25585 61.1941 8.17197 61.3612 8.17197C61.946 8.17197 62.5308 8.17197 63.1156 8.17197C63.2827 8.17197 63.3662 8.21391 63.3662 8.42362C63.3662 9.0108 63.3662 9.55603 63.3662 10.1432C63.3662 10.3949 63.408 10.4787 63.7004 10.4787C64.1599 10.4787 64.6194 10.4787 65.0789 10.4787C65.9979 10.4787 65.8726 10.3949 65.8726 11.2756C65.8726 11.737 65.8726 12.1564 65.8726 12.6177C65.8726 12.8694 65.789 12.9533 65.5384 12.9533C64.9536 12.9533 64.3688 12.9533 63.784 12.9533C63.5333 12.9533 63.4916 13.0372 63.4916 13.2469C63.4916 13.834 63.4916 14.4212 63.4916 15.0084C63.4916 15.26 63.408 15.3439 63.1574 15.3439C60.1498 15.3439 57.1421 15.3439 54.1345 15.3439C53.8839 15.3439 53.8003 15.26 53.8003 15.0084C53.8003 14.4212 53.8003 13.834 53.8003 13.2469C53.8003 12.9952 53.7168 12.9113 53.4662 12.9113C52.8813 12.9113 52.3383 12.9113 51.7535 12.9113C51.4193 12.9113 51.3775 12.8694 51.3775 12.5339C51.3775 11.9467 51.3775 11.3595 51.3775 10.7723C51.3775 10.5626 51.294 10.4787 51.0851 10.4787C50.5003 10.4787 49.8737 10.4787 49.2889 10.4787C49.0383 10.4787 48.9547 10.3949 48.9547 10.1432C48.9547 9.55603 48.9547 8.92691 48.9547 8.33974C48.9547 8.17197 48.9129 8.08809 48.7459 8.08809C48.1193 8.08809 47.4927 8.08809 46.8661 8.08809C46.6572 8.08809 46.6155 8.17197 46.6155 8.38168C46.6155 8.96885 46.6155 9.59797 46.6155 10.1852C46.6155 10.3949 46.5319 10.4787 46.2813 10.4787C45.6965 10.4787 45.0699 10.4787 44.4851 10.4787C44.2762 10.4787 44.1927 10.5626 44.1927 10.7723C44.1927 11.3595 44.1927 11.9886 44.1927 12.5758C44.1927 12.8275 44.1091 12.9113 43.8585 12.9113C43.2737 12.9113 42.6888 12.9113 42.104 12.9113C41.8534 12.9113 41.8116 12.9952 41.8116 13.2469C41.8116 13.834 41.8116 14.3793 41.8116 14.9665C41.8116 15.302 41.7698 15.3439 41.3939 15.3439C40.8091 15.3439 40.2243 15.3439 39.6395 15.3439C39.4306 15.3439 39.347 15.4278 39.347 15.6375C39.347 16.2247 39.347 16.8119 39.347 17.3991C39.347 17.7346 39.3053 17.7346 38.9711 17.7346C38.3863 17.7346 37.8015 17.7346 37.2166 17.7346C36.966 17.7346 36.9242 17.8185 36.9242 18.0282C36.9242 18.6153 36.9242 19.2025 36.9242 19.7897C36.9242 20.1252 36.8825 20.1672 36.5483 20.1672C35.9635 20.1672 35.4204 20.1672 34.8356 20.1672C34.585 20.1672 34.5014 20.2511 34.5014 20.5027C34.5014 21.0899 34.5014 21.6771 34.5014 22.2642C34.5014 22.5998 34.4597 22.6417 34.1255 22.6417C33.5407 22.6417 32.9558 22.6417 32.371 22.6417C32.1622 22.6417 32.0786 22.6837 32.0786 22.9353C32.0786 23.5225 32.0786 24.1097 32.0786 24.6968C32.0786 24.9485 31.9951 25.0324 31.7444 25.0324C31.1596 25.0324 30.533 25.0324 29.9482 25.0324C29.7394 25.0324 29.6976 25.1162 29.6976 25.284C29.6976 25.9131 29.6976 26.5423 29.6976 27.1714C29.6976 27.3811 29.614 27.465 29.4052 27.465C28.8204 27.465 28.2356 27.465 27.6507 27.465C27.3166 27.465 27.2748 27.5069 27.3166 27.8005C27.3166 28.3877 27.3166 28.9748 27.3166 29.562C27.3166 29.8137 27.4001 29.8976 27.6507 29.8556C28.2356 29.8556 28.7786 29.8556 29.3634 29.8556C29.5305 29.8556 29.614 29.9395 29.614 30.1073C29.614 30.6944 29.614 31.2816 29.614 31.8688C29.614 32.0366 29.5305 32.1204 29.3634 32.1204C28.7368 32.1204 28.152 32.1204 27.5254 32.1204C27.3166 32.1204 27.3166 31.9527 27.3166 31.8269C27.3166 31.2397 27.3166 30.6525 27.3166 30.0653C27.3166 29.8976 27.2748 29.8137 27.1077 29.8137C26.4393 29.8137 25.771 29.8137 25.1026 29.8137C24.9355 29.8137 24.8938 29.8976 24.8938 30.0653C24.8938 30.7364 24.8938 31.3655 24.8938 32.0366C24.8938 32.2043 24.852 32.2463 24.6849 32.2463C24.0583 32.2463 23.4317 32.2463 22.8051 32.2463C22.5545 32.2463 22.5127 32.3302 22.5127 32.5818C22.5127 33.169 22.5127 33.7562 22.5127 34.3433C22.5127 34.6789 22.5127 34.6789 22.1368 34.6789C20.7583 34.6789 19.338 34.6789 17.9595 34.6789C17.7089 34.6789 17.6671 34.7627 17.6671 34.9725C17.6671 35.6016 17.6671 36.2307 17.6671 36.8598C17.6671 37.0695 17.6253 37.1115 17.4165 37.1115C16.7899 37.1115 16.2051 37.1115 15.5785 37.1115C15.3696 37.1115 15.2861 37.1953 15.2861 37.405C15.2861 38.0342 15.2861 38.6633 15.2861 39.2924C15.2861 39.5021 15.2443 39.5441 15.0354 39.5441C13.6152 39.5441 12.1949 39.5441 10.7746 39.5441C10.4822 39.5441 10.4405 39.6279 10.4405 39.8796C10.4405 40.5926 10.4405 41.3056 10.4405 41.9766C9.68856 41.8928 8.97843 41.9347 8.22652 41.9347C8.05943 41.9347 8.05943 42.1025 8.05943 42.2283C8.05943 42.8574 8.05943 43.4446 8.05943 44.0737C8.05943 44.3254 8.01766 44.3673 7.76703 44.3673C6.38853 44.3673 4.96827 44.3673 3.548 44.3673C3.21382 44.3673 3.21382 44.3673 3.21382 44.7028C3.21382 45.3319 3.21382 45.9611 3.21382 46.5902C3.21382 46.7579 3.17205 46.7999 3.00496 46.7579C2.37837 46.7579 1.75178 46.7579 1.08342 46.7579C0.874561 46.7579 0.791016 46.7999 0.791016 47.0515C0.791016 47.6807 0.791016 48.2678 0.791016 48.897C0.791016 49.1067 0.832788 49.1486 1.04165 49.1486C1.66824 49.1486 2.25305 49.1486 2.87964 49.1486C3.13028 49.1486 3.21382 49.2325 3.17205 49.4841C3.17205 50.0713 3.17205 50.7004 3.17205 51.2876C3.17205 51.4973 3.21382 51.5812 3.46446 51.5812C4.04927 51.5812 4.63409 51.5812 5.2189 51.5812C5.55308 51.5812 5.59485 51.6231 5.59485 51.9587C5.59485 52.5458 5.59485 53.0911 5.59485 53.6783C5.59485 53.9299 5.6784 54.0138 5.92903 54.0138C6.47208 54.0138 7.05689 54.0138 7.59993 54.0138C7.85057 54.0138 7.93411 53.9299 7.89234 53.7202C7.89234 53.133 7.89234 52.5458 7.89234 51.9587C7.89234 51.6231 7.93411 51.5812 8.26829 51.5812C8.85311 51.5812 9.39615 51.5812 9.98097 51.5812C10.2316 51.5812 10.3151 51.4973 10.3151 51.2457C10.3151 50.6585 10.3151 50.0713 10.3151 49.4841C10.3151 49.2325 10.3987 49.1486 10.6493 49.1486C12.0278 49.1486 13.4481 49.1486 14.8266 49.1905C15.0772 49.1905 15.119 49.1067 15.119 48.897C15.119 48.3098 15.119 47.6807 15.119 47.0935C15.119 46.8418 15.2025 46.7579 15.4532 46.7579C16.038 46.7579 16.6228 46.7579 17.2076 46.7579C17.4582 46.7579 17.5418 46.6741 17.5418 46.4224C17.5418 45.8772 17.5418 45.29 17.5418 44.7448C17.5418 44.3673 17.5418 44.3673 17.9177 44.3673C20.0481 44.3673 22.2203 44.3673 24.3507 44.3673C24.7267 44.3673 24.7267 44.3673 24.7267 43.9898C24.7267 43.4446 24.7267 42.8574 24.7267 42.3122C24.7267 41.9766 24.7684 41.9347 25.1026 41.9347C28.3191 42.0186 31.3267 42.0186 34.2926 42.0186ZM30.2406 27.5908C30.7837 27.5908 31.3685 27.5908 31.9115 27.5908C32.1204 27.5908 32.2039 27.6747 32.2039 27.8844C32.2039 28.4715 32.2039 29.0168 32.2039 29.604C32.2039 29.8137 32.1204 29.9395 31.9115 29.9395C31.3267 29.9395 30.7837 29.9395 30.1989 29.9395C29.99 29.9395 29.9065 29.8556 29.9065 29.6459C29.9065 29.3523 29.9065 29.1007 29.9065 28.8071C29.9065 28.5135 29.9065 28.2618 29.9065 27.9683C29.8647 27.6747 29.99 27.5908 30.2406 27.5908ZM15.3696 44.0737C15.3696 44.3673 15.3278 44.4512 14.9937 44.4512C14.4089 44.4512 13.8658 44.4512 13.281 44.4512C12.9886 44.4512 12.9468 44.5351 12.9468 44.8287C12.9468 45.4158 12.9468 45.9611 12.9468 46.5482C12.9468 46.7999 12.8215 46.8838 12.6126 46.8838C12.0278 46.8838 11.443 46.8838 10.8582 46.8838C10.6076 46.8838 10.524 46.9677 10.524 47.1774C10.524 47.7226 10.524 48.2678 10.524 48.8131C10.524 49.2325 10.524 49.2744 10.0645 49.2744C9.39615 49.2744 8.72779 49.2744 8.10121 49.2744C6.63917 49.2744 5.2189 49.2744 3.75686 49.2744C3.42268 49.2744 3.38091 49.2325 3.38091 48.897C3.38091 48.3937 3.38091 47.8904 3.38091 47.3451C3.38091 46.9677 3.42268 46.9257 3.79864 46.9257C5.09358 46.9257 6.43031 46.9257 7.72525 46.9257C8.18475 46.9257 8.18475 46.8838 8.18475 46.4224C8.18475 45.9191 8.18475 45.3739 8.18475 44.8706C8.18475 44.577 8.31007 44.4931 8.60248 44.4931C9.14552 44.4931 9.73033 44.4931 10.2734 44.4931C10.4405 44.4931 10.5658 44.4092 10.5658 44.2415C10.5658 43.5285 10.5658 42.8155 10.5658 42.1444C10.6911 42.1444 10.7746 42.1025 10.9 42.1025C12.2785 42.1025 13.6569 42.1025 15.0354 42.1025C15.2861 42.1025 15.3278 42.1864 15.3278 42.438C15.3696 42.9413 15.3696 43.4865 15.3696 44.0737ZM17.5418 42.0186C17.2494 42.0186 16.957 42.0186 16.6646 42.0186C16.3722 42.0186 16.1215 42.0186 15.8291 42.0186C15.5367 42.0186 15.4949 41.9347 15.4949 41.6411C15.4949 41.0959 15.4949 40.5506 15.4949 39.9635C15.4949 39.7538 15.5785 39.6279 15.7873 39.6279C16.3722 39.6279 16.9988 39.6279 17.5836 39.6279C17.7507 39.6279 17.876 39.7118 17.876 39.8796C17.876 40.4668 17.876 41.0959 17.876 41.6831C17.7924 41.9347 17.7089 42.0186 17.5418 42.0186ZM19.8811 39.6279C19.2962 39.6279 18.7114 39.6279 18.1266 39.6279C17.9177 39.6279 17.8342 39.5441 17.8342 39.3343C17.8342 38.7472 17.8342 38.2019 17.8342 37.6148C17.8342 37.3631 17.9595 37.2373 18.2102 37.2792C18.795 37.3212 19.338 37.3212 19.9228 37.3212C20.1317 37.3212 20.1735 37.405 20.1735 37.6148C20.1735 37.9083 20.1735 38.2019 20.1735 38.4955C20.1735 38.7891 20.1735 39.0827 20.1735 39.3763C20.1735 39.5441 20.0899 39.6279 19.8811 39.6279ZM25.0191 36.8179C25.0191 37.0276 24.9355 37.1115 24.7267 37.1115C24.4343 37.1115 24.1418 37.1115 23.8494 37.1115C23.557 37.1115 23.2229 37.1115 22.9304 37.1115C22.7634 37.1115 22.6798 37.0276 22.6798 36.8598C22.6798 36.2726 22.6798 35.6855 22.6798 35.0983C22.6798 34.8886 22.8051 34.8047 23.014 34.8047C23.5988 34.8047 24.1836 34.8047 24.7684 34.8047C24.9773 34.8047 25.0608 34.8886 25.0608 35.0983C25.0191 35.6855 25.0191 36.2726 25.0191 36.8179ZM25.0608 34.4692C25.0608 34.1756 25.0608 33.9239 25.0608 33.6303C25.0608 33.3367 25.0608 33.0432 25.0608 32.7496C25.0608 32.5399 25.1444 32.414 25.3533 32.414C25.9381 32.414 26.5229 32.414 27.1077 32.414C27.2748 32.414 27.3583 32.4979 27.3583 32.6657C27.3583 33.2948 27.3583 33.882 27.3583 34.5111C27.3583 34.6789 27.2748 34.7627 27.1077 34.7627C26.5229 34.7627 25.9381 34.7627 25.3533 34.7627C25.1444 34.7627 25.0608 34.6369 25.0608 34.4692Z" fill="#121428"/>
    <path d="M75.8981 44.4931C75.6057 44.4931 75.5639 44.4512 75.5639 44.1157C75.5639 43.5285 75.5639 42.9413 75.5639 42.3541C75.5639 42.1025 75.4804 42.0186 75.2298 42.0186C74.4779 42.0186 73.726 42.0186 72.9741 42.0186C71.5538 42.0186 70.1335 42.0186 68.7133 42.0186C68.3791 42.0186 68.3791 42.0186 68.3791 42.3541C68.3791 43.6962 68.3791 45.0803 68.3791 46.4224C68.3791 46.8418 68.3791 46.8418 67.9614 46.8418C67.4183 46.8418 66.8753 46.8418 66.3322 46.8418C65.9145 46.8418 65.8727 46.7999 65.8727 46.3385C65.8727 45.332 65.8727 44.2834 65.8727 43.2768C65.8727 42.9413 65.8727 42.6058 65.8727 42.3122C65.8727 42.1025 65.7892 41.9767 65.5803 42.0186C65.0373 42.0186 64.4525 42.0186 63.9094 42.0186C63.4917 42.0186 63.4917 42.0186 63.4917 41.5992C63.4917 41.012 63.4917 40.4668 63.4917 39.8796C63.4917 39.6699 63.4081 39.586 63.1993 39.586C62.6145 39.586 62.0297 39.586 61.4448 39.586C61.236 39.586 61.1524 39.6279 61.1524 39.8376C61.1524 42.0186 61.1524 44.2415 61.1524 46.4224C61.1524 46.6741 61.236 46.758 61.4866 46.758C62.0714 46.758 62.6562 46.758 63.2411 46.758C63.5335 46.758 63.617 46.7999 63.617 47.0935C63.617 48.4776 63.617 49.9036 63.617 51.2876C63.617 51.6231 63.5335 51.6651 63.2411 51.6651C62.6562 51.6651 62.1132 51.6651 61.5284 51.6651C61.2777 51.6651 61.1942 51.749 61.1942 52.0006C61.1942 53.3847 61.1942 54.7268 61.1942 56.1109C61.1942 56.4464 61.1524 56.4883 60.8183 56.4883C60.2334 56.4883 59.6486 56.4883 59.0638 56.4883C58.7714 56.4883 58.7296 56.4464 58.7296 56.1109C58.7296 55.5237 58.7296 54.9365 58.7296 54.3493C58.7296 54.1396 58.6879 54.0557 58.4372 54.0557C56.265 54.0557 54.0929 54.0557 51.9207 54.0557C51.503 54.0557 51.503 54.0557 51.503 53.6363C51.503 53.0911 51.503 52.5039 51.503 51.9587C51.503 51.749 51.4194 51.6651 51.2106 51.6651C50.6258 51.6651 50.0827 51.6651 49.4979 51.6651C49.122 51.6651 49.122 51.6651 49.122 51.2876C49.122 50.7004 49.122 50.1552 49.122 49.568C49.122 49.3583 49.0802 49.2325 48.8295 49.2325C48.2447 49.2325 47.6181 49.2325 47.0333 49.2325C46.7827 49.2325 46.6991 49.1486 46.6991 48.897C46.6991 48.2678 46.6991 47.6387 46.6991 47.0096C46.6991 46.7999 46.7827 46.716 46.9916 46.716C47.5764 46.716 48.203 46.716 48.7878 46.716C49.0384 46.716 49.122 46.6321 49.122 46.3805C49.122 45.7933 49.122 45.2481 49.122 44.6609C49.122 44.3254 49.122 44.3254 48.7878 44.3254C48.3283 44.3254 47.8688 44.3254 47.4093 44.3254C44.9447 44.3254 42.5219 44.3254 40.0573 44.3254C39.9738 44.3254 39.8902 44.3254 39.8067 44.3254C39.6396 44.3254 39.5978 44.4092 39.5978 44.577C39.5978 46.045 39.5978 47.471 39.5978 48.9389C39.5978 49.1486 39.6814 49.1906 39.8485 49.1906C40.4333 49.1906 40.9763 49.1906 41.5611 49.1906C42.0206 49.1906 42.0206 49.1906 42.0206 49.6519C42.0206 50.1971 42.0206 50.7424 42.0206 51.2876C42.0206 51.5393 42.1042 51.6231 42.3548 51.5812C42.9396 51.5812 43.5244 51.5812 44.1092 51.5812C44.3181 51.5812 44.4434 51.6651 44.4434 51.8748C44.4434 53.3008 44.4434 54.7268 44.4434 56.1528C44.4434 56.4045 44.3181 56.4883 44.1092 56.4883C43.5244 56.4883 42.9396 56.4883 42.3548 56.4883C42.1042 56.4883 42.0206 56.5722 42.0206 56.8239C42.0206 58.166 42.0206 59.5501 42.0206 60.8922C42.0206 61.3116 41.9789 61.3116 41.6029 61.3116C39.4725 61.3116 37.3421 61.3116 35.1699 61.3116C34.794 61.3116 34.794 61.3116 34.794 61.6891C34.794 62.2343 34.794 62.7795 34.794 63.3248C34.794 63.7022 34.7522 63.7442 34.3763 63.7442C31.4522 63.7442 28.5281 63.7442 25.604 63.7442C25.1445 63.7442 25.1445 63.7442 25.1445 64.2055C25.1445 64.7088 25.1445 65.2121 25.1445 65.7574C25.1445 66.009 25.2281 66.0929 25.4787 66.051C26.0635 66.051 26.6483 66.051 27.2332 66.051C27.4838 66.051 27.5673 66.1768 27.5673 66.3865C27.5673 66.9317 27.5673 67.5189 27.5673 68.0641C27.5673 68.3997 27.6091 68.4416 27.9433 68.4416C28.4863 68.4416 29.0294 68.4416 29.5724 68.4416C29.9484 68.4416 29.9901 68.4835 29.9901 68.861C29.9901 69.4063 29.9901 69.9934 29.9901 70.5387C29.9901 70.7903 30.0319 70.8742 30.2825 70.8742C32.4547 70.8742 34.5851 70.8742 36.7573 70.8742C37.0915 70.8742 37.0915 70.8742 37.0915 70.4967C37.0915 69.9515 37.0915 69.3643 37.0915 68.8191C37.0915 68.4835 37.1332 68.4416 37.5092 68.4416C38.8459 68.4416 40.2244 68.4416 41.5611 68.4416C41.8953 68.4416 41.9371 68.4416 41.9371 68.1061C41.9371 67.5608 41.9371 67.0156 41.9371 66.4704C41.9371 66.051 41.9371 66.009 42.3966 66.009C44.1928 66.009 45.989 66.009 47.827 66.009C48.203 66.009 48.5789 66.009 48.9549 66.009C49.122 66.009 49.1637 65.9251 49.1637 65.7574C49.1637 65.1702 49.1637 64.583 49.1637 63.9958C49.1637 63.6184 49.1637 63.6184 49.5397 63.6184C51.7118 63.6184 53.884 63.6184 56.098 63.6184C56.3486 63.6184 56.4321 63.5345 56.3904 63.2828C56.3904 62.6956 56.3904 62.1504 56.3904 61.5632C56.3904 61.1858 56.3904 61.1858 56.7663 61.1858C57.8942 61.1858 59.0638 61.1858 60.1917 61.1858C60.5258 61.1858 60.86 61.1858 61.236 61.1858C62.7398 61.1858 64.2436 61.1858 65.7474 61.1858C65.9563 61.1858 65.998 61.0599 65.998 60.8922C65.998 60.3469 65.998 59.7598 65.998 59.2145C65.998 58.837 66.0398 58.7951 66.4158 58.7951C68.5462 58.7951 70.7183 58.7951 72.8487 58.7951C73.1829 58.7951 73.1829 58.7951 73.1829 58.4596C73.1829 57.9143 73.1829 57.3272 73.1829 56.7819C73.1829 56.5722 73.0994 56.4464 72.8905 56.4883C72.3057 56.4883 71.7209 56.4883 71.1361 56.4883C70.8437 56.4883 70.8019 56.4464 70.8019 56.1109C70.8019 55.5656 70.8019 54.9784 70.8019 54.4332C70.8019 54.0977 70.8019 54.0977 70.4677 54.0557C69.131 54.0557 67.7943 54.0557 66.4158 54.0557C66.0398 54.0557 65.998 54.0138 65.998 53.6363C65.998 53.0492 65.998 52.5039 65.998 51.9167C65.998 51.6231 66.0398 51.5393 66.374 51.5393C66.9588 51.5393 67.5436 51.5393 68.1284 51.5393C68.3373 51.5393 68.4208 51.4973 68.4208 51.2457C68.4208 50.6585 68.4208 50.0713 68.4208 49.4841C68.4208 49.1486 68.4626 49.1067 68.7968 49.1067C70.1335 49.1067 71.512 49.1067 72.8487 49.1067C73.2247 49.1067 73.2247 49.1067 73.2247 48.7292C73.2247 48.184 73.2247 47.5968 73.2247 47.0515C73.2247 46.716 73.3082 46.6741 73.6006 46.6741C74.9374 46.6741 76.3159 46.6741 77.6526 46.6741C78.0285 46.6741 78.0285 46.6741 78.0285 46.2966C78.0285 45.7514 78.0285 45.1642 78.0285 44.619C78.0285 44.4092 77.945 44.3254 77.7361 44.3254C77.0678 44.4931 76.4829 44.4931 75.8981 44.4931Z" fill="#121428"/>
    <path d="M63.4914 27.8844C63.4914 27.5488 63.4496 27.5069 63.1572 27.5069C62.5724 27.5069 61.9458 27.5069 61.361 27.5069C61.1521 27.5069 61.1104 27.5908 61.1104 27.7585C61.1104 29.2265 61.1104 30.6525 61.1104 32.1204C61.1104 32.2882 61.1939 32.3301 61.361 32.3301C61.9876 32.3301 62.6142 32.3301 63.2408 32.3301C63.4496 32.3301 63.5332 32.2463 63.5332 32.0366C63.5332 31.3236 63.5332 30.6106 63.5332 29.8976C63.4914 29.2265 63.4914 28.5554 63.4914 27.8844Z" fill="#121428"/>
    <path d="M58.9383 37.1534C59.5649 37.1534 60.2332 37.1534 60.8598 37.1534C61.0269 37.1534 61.1104 37.0695 61.1104 36.9017C61.1104 35.4757 61.1104 34.0497 61.1104 32.6237C61.1104 32.414 61.0269 32.3301 60.818 32.3301C60.1914 32.3301 59.6066 32.3301 58.98 32.3301C58.8129 32.3301 58.7294 32.3721 58.7294 32.5818C58.7294 33.2948 58.7294 34.0078 58.7294 34.7627C58.7294 35.4757 58.7294 36.1887 58.7294 36.9017C58.6876 37.0695 58.7294 37.1534 58.9383 37.1534Z" fill="#121428"/>
    <path d="M53.508 42.0186C52.1295 42.0186 50.751 42.0186 49.3725 42.0186C49.1219 42.0186 49.0801 42.1444 49.0801 42.3541C49.0801 42.9413 49.0801 43.5284 49.0801 44.1156C49.0801 44.3673 49.2054 44.4092 49.3725 44.4092C50.0826 44.4092 50.751 44.4092 51.4611 44.4092C52.1712 44.4092 52.8814 44.4092 53.5497 44.4092C53.7586 44.4092 53.8839 44.3673 53.8421 44.1156C53.8421 43.5284 53.8421 42.9832 53.8421 42.396C53.8839 42.0605 53.8004 42.0186 53.508 42.0186Z" fill="#121428"/>
    <path d="M37.0915 42.0186C37.0915 42.0605 37.0915 42.0605 37.0915 42.0186C36.4231 42.0186 35.7548 42.0186 35.0446 42.0186C34.7105 42.0186 34.7104 42.0605 34.7104 42.3541C34.7104 42.9413 34.7104 43.5285 34.7104 44.1156C34.7104 44.3253 34.794 44.3673 34.9611 44.3673C36.3814 44.3673 37.8016 44.3673 39.2219 44.3673C39.4307 44.3673 39.5143 44.2834 39.5143 44.0737C39.5143 43.4865 39.5143 42.8993 39.5143 42.3122C39.5143 42.0605 39.4307 41.9766 39.1801 41.9766C38.47 42.0605 37.7598 42.0186 37.0915 42.0186Z" fill="#121428"/>
    <path d="M54.0929 42.0186C54.7613 42.0186 55.4296 42.0186 56.098 42.0186C56.2233 42.0186 56.2651 41.9347 56.2651 41.8089C56.2651 41.1378 56.2651 40.4668 56.2651 39.7538C56.2651 39.6279 56.2233 39.586 56.0562 39.586C55.3879 39.586 54.7195 39.586 54.0929 39.586C53.8841 39.586 53.8423 39.6699 53.8423 39.8376C53.8423 40.1732 53.8423 40.5087 53.8423 40.8023C53.8423 41.1378 53.8423 41.4314 53.8423 41.7669C53.8841 41.9347 53.9258 42.0186 54.0929 42.0186Z" fill="#121428"/>
    <path d="M58.437 39.586C58.6041 39.586 58.6877 39.5021 58.6877 39.3763C58.6877 38.7052 58.6877 38.0761 58.6877 37.405C58.6877 37.2373 58.6041 37.1953 58.437 37.1953C57.8105 37.1953 57.1839 37.1953 56.5573 37.1953C56.3902 37.1953 56.3066 37.2792 56.3066 37.4889C56.3066 38.0761 56.3066 38.7052 56.3066 39.2924C56.3066 39.5021 56.3902 39.586 56.5991 39.586C56.9332 39.586 57.2256 39.586 57.5598 39.586C57.8522 39.586 58.1446 39.586 58.437 39.586Z" fill="#121428"/>
    <path d="M49.1216 7.03955C49.1216 7.33314 49.1216 7.66867 49.1216 7.96226C49.1216 8.13002 49.1634 8.17196 49.2887 8.17196C49.957 8.17196 50.6254 8.17196 51.252 8.17196C51.3773 8.17196 51.4191 8.08808 51.4191 7.96226C51.4191 7.2912 51.4191 6.66208 51.4191 5.99102C51.4191 5.82325 51.3773 5.78131 51.2102 5.78131C50.5836 5.78131 49.9988 5.78131 49.3722 5.78131C49.1634 5.78131 49.1216 5.86519 49.1216 6.03296C49.1634 6.36849 49.1216 6.70402 49.1216 7.03955Z" fill="#121428"/>
</svg>
