<svg width="32" height="32" viewBox="0 0 32 32" fill="none" xmlns="http://www.w3.org/2000/svg">
    <g clip-path="url(#clip0_187_153)">
        <rect width="32" height="32" fill="#F9E762"/>
        <path d="M10.8799 20.045C11.0184 20.045 11.0184 20.045 11.0184 19.9059C11.0184 19.6627 11.0184 19.4194 11.0184 19.1761C11.0184 19.0719 11.053 19.0371 11.1568 19.0371C11.4164 19.0545 11.6587 19.0371 11.9183 19.0545C12.0048 19.0545 12.0048 19.0024 12.0048 18.9329C11.9875 18.6896 12.0048 18.4289 12.0048 18.1857C12.0048 18.0293 12.0221 18.0293 12.1606 18.0293C12.749 18.0293 13.3374 18.0293 13.9259 18.0293C13.9951 18.0293 14.0124 18.0119 14.0124 17.9424C14.0124 17.6818 14.0124 17.4211 14.0124 17.1605C14.0124 17.0736 14.047 17.0388 14.1336 17.0388C15.0508 17.0388 15.9681 17.0388 16.8853 17.0388C16.9718 17.0388 17.0065 17.0214 17.0065 16.9346C17.0065 16.6913 17.0065 16.4306 17.0065 16.1874C17.0065 16.1005 16.9891 16.0831 16.9026 16.0831C16.643 16.0831 16.4007 16.0831 16.1411 16.0831C16.0027 16.0831 15.9854 16.0657 15.9854 15.9267C15.9854 15.6834 15.9854 15.4576 15.9854 15.2143C15.9854 15.1274 15.9507 15.0926 15.8642 15.0926C15.6219 15.0926 15.3969 15.0926 15.1546 15.0926C14.9989 15.0926 14.9989 15.0753 14.9816 14.9189C14.9816 14.6756 14.9816 14.4323 14.9816 14.1891C14.9816 14.1022 14.9643 14.0674 14.8604 14.0674C14.6181 14.0848 14.3758 14.0674 14.1336 14.0674C14.0643 14.0674 14.0124 14.0327 14.0124 13.9458C14.0124 13.6678 14.0124 13.3724 14.0124 13.0943C14.0124 13.0075 14.0643 12.9901 14.1336 12.9901C14.3758 12.9901 14.6181 12.9901 14.8604 12.9901C15.0335 12.9901 15.0335 12.9727 15.0335 12.8163C15.0335 12.6078 15.0335 12.3993 15.0335 12.1734C15.0335 12.0865 15.0681 12.0344 15.1546 12.0344C15.9334 12.0344 16.7295 12.0344 17.5083 12.0344C17.6295 12.0344 17.7506 12.0344 17.8718 12.0344C17.9929 12.0344 18.0102 11.9996 18.0102 11.878C18.0102 11.6521 18.0102 11.4088 18.0102 11.1829C18.0102 11.0439 18.0275 11.0439 18.1487 11.0439C18.7025 11.0439 19.2563 11.0439 19.8274 11.0439C19.9832 11.0439 20.0005 11.0265 20.0005 10.8701C20.0005 10.6443 20.0005 10.401 20.0005 10.1751C20.0005 10.0708 20.0351 10.0534 20.1389 10.0534C20.3639 10.0534 20.6062 10.0534 20.8312 10.0534C20.9351 10.0534 20.9697 10.0882 20.9697 10.1925C20.9697 10.4184 20.9697 10.6616 20.9697 10.8875C20.9697 11.0092 20.987 11.0265 21.1081 11.0265C21.3504 11.0265 21.5927 11.0265 21.835 11.0265C21.9388 11.0265 21.9735 11.0613 21.9735 11.1655C21.9735 11.4262 21.9735 11.6695 21.9735 11.9301C21.9735 11.9996 21.9908 12.0344 22.0773 12.0344C22.3369 12.0344 22.5792 12.0344 22.8388 12.0344C22.9599 12.0344 22.9772 12.0518 22.9772 12.1908C22.9772 12.7468 22.9772 13.3029 22.9772 13.8763C22.9772 14.0327 22.9772 14.0327 23.133 14.0327C23.3753 14.0327 23.6176 14.0327 23.8599 14.0327C23.9291 14.0327 23.9637 14.0153 23.9637 13.9458C23.9637 13.8068 23.9637 13.6851 23.9637 13.5461C23.9637 12.0865 23.9637 10.6443 23.9637 9.18462C23.9637 9.02823 23.9637 9.02823 24.1195 9.02823C24.3618 9.02823 24.5868 9.02823 24.829 9.02823C24.9329 9.02823 24.9675 8.99348 24.9675 8.88922C24.9675 8.64595 24.9675 8.42005 24.9675 8.17678C24.9675 8.03777 24.9848 8.02039 25.1233 8.02039C25.3655 8.02039 25.6078 8.02039 25.8501 8.02039C25.9367 8.02039 25.9713 7.98564 25.9713 7.89876C25.9713 7.63811 25.9713 7.39484 25.9713 7.13419C25.9713 7.02993 26.0059 6.99518 26.1097 6.99518C26.352 6.99518 26.5943 6.99518 26.8366 6.99518C26.9404 6.99518 26.9751 6.96042 26.9578 6.85616C26.9578 6.61289 26.9578 6.387 26.9578 6.14373C26.9578 6.05684 26.9404 6.02209 26.8366 6.02209C26.2655 6.02209 25.6771 6.02209 25.1059 6.02209C24.9848 6.02209 24.9675 6.00471 24.9675 5.88308C24.9675 5.65718 24.9675 5.41391 24.9675 5.18802C24.9675 5.049 24.9502 5.03163 24.8117 5.03163C24.5694 5.03163 24.3445 5.03163 24.1022 5.03163C23.9983 5.03163 23.9637 4.99687 23.9637 4.89262C23.9637 4.64934 23.9637 4.3887 23.9637 4.14542C23.9637 4.05854 23.9291 4.02379 23.8426 4.02379C23.6176 4.02379 23.3753 4.02379 23.1503 4.02379C22.9772 4.02379 22.9772 4.02379 22.9772 3.85002C22.9772 3.62413 22.9772 3.38086 22.9772 3.15496C22.9772 3.06808 22.9426 3.03333 22.8561 3.03333C21.61 3.03333 20.3639 3.03333 19.1179 3.03333C19.0313 3.03333 18.9967 3.06808 18.9967 3.15496C18.9967 3.41561 18.9967 3.65888 18.9967 3.91953C18.9967 4.00641 18.9621 4.04116 18.8756 4.04116C18.616 4.04116 18.3564 4.04116 18.1141 4.04116C18.0275 4.04116 18.0102 4.07592 18.0102 4.14542C18.0102 4.3887 18.0102 4.64934 18.0102 4.89262C18.0102 4.9795 18.0275 5.01425 18.1314 5.01425C18.7025 5.01425 19.2736 5.01425 19.8447 5.01425C19.9659 5.01425 19.9832 5.03163 19.9832 5.15326C19.9832 5.39654 19.9832 5.62243 19.9832 5.8657C19.9832 5.96996 20.0178 6.00471 20.1216 6.00471C20.3639 6.00471 20.6062 6.00471 20.8485 6.00471C20.9524 6.00471 20.987 6.03947 20.987 6.14373C20.987 6.387 20.987 6.61289 20.987 6.85616C20.987 6.9778 21.0043 6.99518 21.1254 6.99518C21.3677 6.99518 21.5927 6.99518 21.835 6.99518C21.9908 6.99518 22.0081 6.9778 21.9908 6.82141C21.9908 6.59552 21.9908 6.35225 21.9908 6.12635C21.9908 6.05684 22.0254 6.02209 22.0946 6.02209C22.3369 6.02209 22.5792 6.02209 22.8215 6.02209C22.8907 6.02209 22.9253 6.03947 22.9253 6.12635C22.9253 6.36962 22.9253 6.59552 22.9253 6.83879C22.9253 6.94305 22.9426 6.9778 23.0638 6.9778C23.2541 6.9778 23.4445 6.9778 23.6349 6.9778C24.0156 6.9778 23.9637 6.94305 23.9637 7.30795C23.9637 7.4991 23.9637 7.67286 23.9637 7.864C23.9637 7.96826 23.9291 8.00302 23.8253 8.00302C23.583 8.00302 23.3407 8.00302 23.0984 8.00302C22.9945 8.00302 22.9772 8.03777 22.9772 8.12465C22.9772 8.36792 22.9772 8.6112 22.9772 8.85447C22.9772 8.95873 22.9426 8.99348 22.8388 8.99348C21.5927 8.99348 20.3466 8.99348 19.1006 8.99348C18.9967 8.99348 18.9621 8.95873 18.9621 8.85447C18.9621 8.6112 18.9621 8.36792 18.9621 8.12465C18.9621 8.02039 18.9275 7.98564 18.8236 7.98564C18.5814 7.98564 18.3564 7.98564 18.1141 7.98564C17.9756 7.98564 17.9583 7.96826 17.9583 7.82925C17.9583 7.58598 17.9583 7.34271 17.9583 7.09944C17.9583 7.01255 17.9237 6.9778 17.8372 6.9778C17.5949 6.9778 17.3353 6.9778 17.093 6.9778C16.9891 6.9778 16.9545 6.94305 16.9545 6.83879C16.9545 6.59552 16.9545 6.33487 16.9545 6.0916C16.9545 6.02209 16.9372 5.98734 16.868 5.98734C16.6084 5.98734 16.3488 5.98734 16.0892 5.98734C16.0027 5.98734 15.9854 6.02209 15.9854 6.10897C15.9854 6.35225 15.9854 6.61289 15.9854 6.85616C15.9854 6.94305 15.9507 6.9778 15.8469 6.9778C15.6046 6.9778 15.345 6.9778 15.1027 6.9778C15.0162 6.9778 14.9816 7.01255 14.9816 7.09944C14.9816 7.34271 14.9816 7.60336 14.9816 7.84663C14.9816 7.95089 14.947 7.98564 14.8431 7.98564C14.6008 7.98564 14.3585 7.98564 14.1162 7.98564C14.0124 7.98564 13.9951 8.02039 13.9951 8.12465C13.9951 8.36792 13.9951 8.59382 13.9951 8.83709C13.9951 8.9761 13.9778 8.99348 13.822 8.99348C13.5797 8.99348 13.3374 8.99348 13.0952 8.99348C13.0086 8.99348 12.974 9.02823 12.974 9.11512C12.974 9.35839 12.974 9.60166 12.974 9.84493C12.974 9.98394 12.9567 9.98394 12.8182 9.98394C12.576 9.98394 12.3337 9.98394 12.0914 9.98394C11.9875 9.98394 11.9702 10.0187 11.9702 10.1056C11.9702 10.3488 11.9702 10.5921 11.9702 10.8354C11.9702 10.9744 11.9529 10.9918 11.8145 10.9918C11.5722 10.9918 11.3472 10.9918 11.1049 10.9918C11.0011 10.9918 10.9664 11.0265 10.9664 11.1308C10.9664 11.3741 10.9664 11.6173 10.9664 11.8606C10.9664 11.9996 10.9491 12.017 10.8107 12.017C10.5684 12.017 10.3261 12.017 10.0838 12.017C9.99727 12.017 9.96266 12.0344 9.96266 12.1386C9.96266 12.3819 9.96266 12.6252 9.96266 12.8684C9.96266 12.9727 9.92804 13.0075 9.8242 13.0075C9.58191 13.0075 9.32231 13.0075 9.08002 13.0075C8.99349 13.0075 8.97618 13.0422 8.97618 13.1117C8.97618 13.3724 8.97618 13.633 8.97618 13.8937C8.97618 13.9805 8.94157 14.0153 8.85503 14.0153C8.61274 14.0153 8.37045 14.0153 8.12816 14.0153C7.9897 14.0153 7.9724 14.0327 7.9897 14.1543C7.9897 14.3976 7.9897 14.6409 7.9897 14.8841C7.9897 14.9884 8.02432 15.0231 8.12816 15.0058C8.37045 15.0058 8.59543 15.0058 8.83773 15.0058C8.90695 15.0058 8.94157 15.0405 8.94157 15.11C8.94157 15.3533 8.94157 15.5966 8.94157 15.8398C8.94157 15.9093 8.90695 15.9441 8.83773 15.9441C8.57813 15.9441 8.33584 15.9441 8.07624 15.9441C7.9897 15.9441 7.9897 15.8746 7.9897 15.8225C7.9897 15.5792 7.9897 15.3359 7.9897 15.0926C7.9897 15.0231 7.9724 14.9884 7.90317 14.9884C7.62626 14.9884 7.34936 14.9884 7.07245 14.9884C7.00323 14.9884 6.98592 15.0231 6.98592 15.0926C6.98592 15.3707 6.98592 15.6313 6.98592 15.9093C6.98592 15.9789 6.96861 15.9962 6.89939 15.9962C6.63979 15.9962 6.38019 15.9962 6.12059 15.9962C6.01675 15.9962 5.99944 16.031 5.99944 16.1352C5.99944 16.3785 5.99944 16.6218 5.99944 16.8651C5.99944 17.0041 5.99944 17.0041 5.84368 17.0041C5.27256 17.0041 4.68414 17.0041 4.11302 17.0041C4.00918 17.0041 3.99187 17.0388 3.99187 17.1257C3.99187 17.3863 3.99187 17.647 3.99187 17.9076C3.99187 17.9945 3.97457 18.0119 3.88803 18.0119C3.62843 18.0119 3.38614 18.0119 3.12654 18.0119C3.04001 18.0119 3.0054 18.0467 3.0054 18.1335C3.0054 18.3942 3.0054 18.6548 3.0054 18.9155C3.0054 19.0024 2.98809 19.0197 2.90156 19.0197C2.31313 19.0197 1.72471 19.0197 1.13628 19.0197C1.01514 19.0197 0.997829 19.0545 0.997829 19.1588C0.997829 19.4542 0.997829 19.7496 0.997829 20.0276C0.68631 19.9928 0.392097 20.0102 0.0805779 20.0102C0.0113516 20.0102 0.0113516 20.0797 0.0113516 20.1318C0.0113516 20.3925 0.0113516 20.6358 0.0113516 20.8964C0.0113516 21.0007 -0.00595498 21.018 -0.109795 21.018C-0.680913 21.018 -1.26934 21.018 -1.85776 21.018C-1.99622 21.018 -1.99622 21.018 -1.99622 21.1571C-1.99622 21.4177 -1.99622 21.6784 -1.99622 21.939C-1.99622 22.0085 -2.01352 22.0259 -2.08275 22.0085C-2.34235 22.0085 -2.60195 22.0085 -2.87885 22.0085C-2.96539 22.0085 -3 22.0259 -3 22.1301C-3 22.3908 -3 22.6341 -3 22.8947C-3 22.9816 -2.98269 22.999 -2.89616 22.999C-2.63656 22.999 -2.39427 22.999 -2.13467 22.999C-2.03083 22.999 -1.99622 23.0337 -2.01352 23.138C-2.01352 23.3813 -2.01352 23.6419 -2.01352 23.8852C-2.01352 23.9721 -1.99622 24.0068 -1.89238 24.0068C-1.65008 24.0068 -1.40779 24.0068 -1.1655 24.0068C-1.02705 24.0068 -1.00974 24.0242 -1.00974 24.1632C-1.00974 24.4065 -1.00974 24.6324 -1.00974 24.8756C-1.00974 24.9799 -0.975126 25.0147 -0.871286 25.0147C-0.6463 25.0147 -0.404007 25.0147 -0.179021 25.0147C-0.0751817 25.0147 -0.0405684 24.9799 -0.0578749 24.893C-0.0578749 24.6497 -0.0578749 24.4065 -0.0578749 24.1632C-0.0578749 24.0242 -0.0405684 24.0068 0.0978847 24.0068C0.340177 24.0068 0.565163 24.0068 0.807456 24.0068C0.911296 24.0068 0.945909 23.9721 0.945909 23.8678C0.945909 23.6245 0.945909 23.3813 0.945909 23.138C0.945909 23.0337 0.980522 22.999 1.08436 22.999C1.65548 22.999 2.24391 22.999 2.81502 23.0163C2.91886 23.0163 2.93617 22.9816 2.93617 22.8947C2.93617 22.6514 2.93617 22.3908 2.93617 22.1475C2.93617 22.0433 2.97078 22.0085 3.07462 22.0085C3.31692 22.0085 3.55921 22.0085 3.8015 22.0085C3.90534 22.0085 3.93995 21.9738 3.93995 21.8695C3.93995 21.6436 3.93995 21.4003 3.93995 21.1744C3.93995 21.018 3.93995 21.018 4.09571 21.018C4.97835 21.018 5.8783 21.018 6.76093 21.018C6.91669 21.018 6.91669 21.018 6.91669 20.8617C6.91669 20.6358 6.91669 20.3925 6.91669 20.1666C6.91669 20.0276 6.934 20.0102 7.07245 20.0102C8.40506 20.045 9.65114 20.045 10.8799 20.045ZM9.20117 14.0674C9.42615 14.0674 9.66844 14.0674 9.89343 14.0674C9.97996 14.0674 10.0146 14.1022 10.0146 14.1891C10.0146 14.4323 10.0146 14.6582 10.0146 14.9015C10.0146 14.9884 9.97996 15.0405 9.89343 15.0405C9.65114 15.0405 9.42615 15.0405 9.18386 15.0405C9.09733 15.0405 9.06271 15.0058 9.06271 14.9189C9.06271 14.7972 9.06271 14.693 9.06271 14.5714C9.06271 14.4497 9.06271 14.3455 9.06271 14.2238C9.04541 14.1022 9.09733 14.0674 9.20117 14.0674ZM3.04001 20.8964C3.04001 21.018 3.0227 21.0528 2.88425 21.0528C2.64196 21.0528 2.41697 21.0528 2.17468 21.0528C2.05353 21.0528 2.03623 21.0876 2.03623 21.2092C2.03623 21.4525 2.03623 21.6784 2.03623 21.9216C2.03623 22.0259 1.98431 22.0606 1.89777 22.0606C1.65548 22.0606 1.41319 22.0606 1.1709 22.0606C1.06706 22.0606 1.03244 22.0954 1.03244 22.1823C1.03244 22.4082 1.03244 22.6341 1.03244 22.86C1.03244 23.0337 1.03244 23.0511 0.842069 23.0511C0.565164 23.0511 0.288258 23.0511 0.0286582 23.0511C-0.577073 23.0511 -1.1655 23.0511 -1.77123 23.0511C-1.90968 23.0511 -1.92699 23.0337 -1.92699 22.8947C-1.92699 22.6862 -1.92699 22.4777 -1.92699 22.2518C-1.92699 22.0954 -1.90968 22.078 -1.75392 22.078C-1.21742 22.078 -0.663606 22.078 -0.127101 22.078C0.0632715 22.078 0.0632715 22.0606 0.0632715 21.8695C0.0632715 21.661 0.0632715 21.4351 0.0632715 21.2266C0.0632715 21.1049 0.115191 21.0702 0.236338 21.0702C0.461324 21.0702 0.703616 21.0702 0.928602 21.0702C0.997829 21.0702 1.04975 21.0354 1.04975 20.9659C1.04975 20.6705 1.04975 20.3751 1.04975 20.0971C1.10167 20.0971 1.13628 20.0797 1.1882 20.0797C1.75932 20.0797 2.33044 20.0797 2.90156 20.0797C3.0054 20.0797 3.0227 20.1145 3.0227 20.2187C3.04001 20.4272 3.04001 20.6531 3.04001 20.8964ZM3.93995 20.045C3.81881 20.045 3.69766 20.045 3.57652 20.045C3.45537 20.045 3.35153 20.045 3.23038 20.045C3.10924 20.045 3.09193 20.0102 3.09193 19.8886C3.09193 19.6627 3.09193 19.4368 3.09193 19.1935C3.09193 19.1066 3.12654 19.0545 3.21308 19.0545C3.45537 19.0545 3.71497 19.0545 3.95726 19.0545C4.02649 19.0545 4.07841 19.0893 4.07841 19.1588C4.07841 19.402 4.07841 19.6627 4.07841 19.9059C4.04379 20.0102 4.00918 20.045 3.93995 20.045ZM4.90912 19.0545C4.66683 19.0545 4.42454 19.0545 4.18225 19.0545C4.09571 19.0545 4.0611 19.0197 4.0611 18.9329C4.0611 18.6896 4.0611 18.4637 4.0611 18.2204C4.0611 18.1162 4.11302 18.064 4.21686 18.0814C4.45915 18.0988 4.68414 18.0988 4.92643 18.0988C5.01296 18.0988 5.03027 18.1335 5.03027 18.2204C5.03027 18.3421 5.03027 18.4637 5.03027 18.5853C5.03027 18.707 5.03027 18.8286 5.03027 18.9502C5.03027 19.0197 4.99566 19.0545 4.90912 19.0545ZM7.03784 17.8903C7.03784 17.9772 7.00323 18.0119 6.91669 18.0119C6.79555 18.0119 6.6744 18.0119 6.55325 18.0119C6.43211 18.0119 6.29365 18.0119 6.17251 18.0119C6.10328 18.0119 6.06867 17.9772 6.06867 17.9076C6.06867 17.6644 6.06867 17.4211 6.06867 17.1778C6.06867 17.0909 6.12059 17.0562 6.20712 17.0562C6.44941 17.0562 6.69171 17.0562 6.934 17.0562C7.02053 17.0562 7.05515 17.0909 7.05515 17.1778C7.03784 17.4211 7.03784 17.6644 7.03784 17.8903ZM7.05515 16.9172C7.05515 16.7955 7.05515 16.6913 7.05515 16.5697C7.05515 16.448 7.05515 16.3264 7.05515 16.2047C7.05515 16.1179 7.08976 16.0657 7.17629 16.0657C7.41858 16.0657 7.66088 16.0657 7.90317 16.0657C7.9724 16.0657 8.00701 16.1005 8.00701 16.17C8.00701 16.4306 8.00701 16.6739 8.00701 16.9346C8.00701 17.0041 7.9724 17.0388 7.90317 17.0388C7.66088 17.0388 7.41858 17.0388 7.17629 17.0388C7.08976 17.0388 7.05515 16.9867 7.05515 16.9172Z" fill="#121428"/>
        <path d="M28.1164 21.0702C27.9953 21.0702 27.978 21.0528 27.978 20.9138C27.978 20.6706 27.978 20.4273 27.978 20.184C27.978 20.0798 27.9433 20.045 27.8395 20.045C27.528 20.045 27.2165 20.045 26.9049 20.045C26.3165 20.045 25.7281 20.045 25.1397 20.045C25.0012 20.045 25.0012 20.045 25.0012 20.184C25.0012 20.7401 25.0012 21.3135 25.0012 21.8695C25.0012 22.0433 25.0012 22.0433 24.8281 22.0433C24.6032 22.0433 24.3782 22.0433 24.1532 22.0433C23.9801 22.0433 23.9628 22.0259 23.9628 21.8348C23.9628 21.4178 23.9628 20.9833 23.9628 20.5663C23.9628 20.4273 23.9628 20.2883 23.9628 20.1666C23.9628 20.0798 23.9282 20.0276 23.8417 20.045C23.6167 20.045 23.3744 20.045 23.1494 20.045C22.9763 20.045 22.9763 20.045 22.9763 19.8712C22.9763 19.628 22.9763 19.4021 22.9763 19.1588C22.9763 19.0719 22.9417 19.0372 22.8552 19.0372C22.6129 19.0372 22.3706 19.0372 22.1283 19.0372C22.0418 19.0372 22.0072 19.0545 22.0072 19.1414C22.0072 20.045 22.0072 20.966 22.0072 21.8695C22.0072 21.9738 22.0418 22.0086 22.1456 22.0086C22.3879 22.0086 22.6302 22.0086 22.8725 22.0086C22.9936 22.0086 23.0283 22.0259 23.0283 22.1476C23.0283 22.721 23.0283 23.3118 23.0283 23.8852C23.0283 24.0242 22.9936 24.0416 22.8725 24.0416C22.6302 24.0416 22.4052 24.0416 22.1629 24.0416C22.0591 24.0416 22.0245 24.0764 22.0245 24.1806C22.0245 24.7541 22.0245 25.3101 22.0245 25.8835C22.0245 26.0225 22.0072 26.0399 21.8687 26.0399C21.6264 26.0399 21.3841 26.0399 21.1418 26.0399C21.0207 26.0399 21.0034 26.0225 21.0034 25.8835C21.0034 25.6403 21.0034 25.397 21.0034 25.1537C21.0034 25.0668 20.9861 25.0321 20.8822 25.0321C19.9823 25.0321 19.0824 25.0321 18.1824 25.0321C18.0093 25.0321 18.0093 25.0321 18.0093 24.8583C18.0093 24.6324 18.0093 24.3891 18.0093 24.1633C18.0093 24.0764 17.9747 24.0416 17.8882 24.0416C17.6459 24.0416 17.4209 24.0416 17.1786 24.0416C17.0229 24.0416 17.0229 24.0416 17.0229 23.8852C17.0229 23.642 17.0229 23.4161 17.0229 23.1728C17.0229 23.0859 17.0056 23.0338 16.9017 23.0338C16.6594 23.0338 16.3998 23.0338 16.1575 23.0338C16.0537 23.0338 16.0191 22.999 16.0191 22.8948C16.0191 22.6341 16.0191 22.3735 16.0191 22.1128C16.0191 22.0259 16.0537 21.9912 16.1402 21.9912C16.3825 21.9912 16.6421 21.9912 16.8844 21.9912C16.9883 21.9912 17.0229 21.9564 17.0229 21.8522C17.0229 21.6089 17.0229 21.383 17.0229 21.1397C17.0229 21.0007 17.0229 21.0007 16.8844 21.0007C16.694 21.0007 16.5037 21.0007 16.3133 21.0007C15.2922 21.0007 14.2884 21.0007 13.2673 21.0007C13.2327 21.0007 13.1981 21.0007 13.1635 21.0007C13.0943 21.0007 13.077 21.0355 13.077 21.105C13.077 21.7132 13.077 22.304 13.077 22.9121C13.077 22.999 13.1116 23.0164 13.1808 23.0164C13.4231 23.0164 13.6481 23.0164 13.8904 23.0164C14.0807 23.0164 14.0807 23.0164 14.0807 23.2075C14.0807 23.4334 14.0807 23.6593 14.0807 23.8852C14.0807 23.9895 14.1154 24.0242 14.2192 24.0069C14.4615 24.0069 14.7038 24.0069 14.9461 24.0069C15.0326 24.0069 15.0845 24.0416 15.0845 24.1285C15.0845 24.7193 15.0845 25.3101 15.0845 25.9009C15.0845 26.0052 15.0326 26.0399 14.9461 26.0399C14.7038 26.0399 14.4615 26.0399 14.2192 26.0399C14.1154 26.0399 14.0807 26.0747 14.0807 26.1789C14.0807 26.735 14.0807 27.3084 14.0807 27.8645C14.0807 28.0382 14.0634 28.0382 13.9077 28.0382C13.025 28.0382 12.1424 28.0382 11.2425 28.0382C11.0867 28.0382 11.0867 28.0382 11.0867 28.1946C11.0867 28.4205 11.0867 28.6464 11.0867 28.8723C11.0867 29.0287 11.0694 29.0461 10.9136 29.0461C9.70217 29.0461 8.4907 29.0461 7.27924 29.0461C7.08887 29.0461 7.08887 29.0461 7.08887 29.2372C7.08887 29.4457 7.08887 29.6542 7.08887 29.8801C7.08887 29.9844 7.12348 30.0191 7.22732 30.0018C7.46961 30.0018 7.71191 30.0018 7.9542 30.0018C8.05804 30.0018 8.09265 30.0539 8.09265 30.1408C8.09265 30.3667 8.09265 30.6099 8.09265 30.8358C8.09265 30.9749 8.10996 30.9922 8.24841 30.9922C8.4734 30.9922 8.69838 30.9922 8.92337 30.9922C9.07913 30.9922 9.09644 31.0096 9.09644 31.166C9.09644 31.3919 9.09644 31.6352 9.09644 31.8611C9.09644 31.9653 9.11374 32.0001 9.21758 32.0001C10.1175 32.0001 11.0002 32.0001 11.9001 32.0001C12.0386 32.0001 12.0386 32.0001 12.0386 31.8437C12.0386 31.6178 12.0386 31.3745 12.0386 31.1486C12.0386 31.0096 12.0559 30.9922 12.2116 30.9922C12.7654 30.9922 13.3366 30.9922 13.8904 30.9922C14.0288 30.9922 14.0461 30.9922 14.0461 30.8532C14.0461 30.6273 14.0461 30.4014 14.0461 30.1755C14.0461 30.0018 14.0461 29.9844 14.2365 29.9844C14.9807 29.9844 15.7249 29.9844 16.4864 29.9844C16.6421 29.9844 16.7979 29.9844 16.9536 29.9844C17.0229 29.9844 17.0402 29.9496 17.0402 29.8801C17.0402 29.6369 17.0402 29.3936 17.0402 29.1503C17.0402 28.9939 17.0402 28.9939 17.1959 28.9939C18.0959 28.9939 18.9958 28.9939 19.9131 28.9939C20.0169 28.9939 20.0515 28.9592 20.0342 28.8549C20.0342 28.6116 20.0342 28.3857 20.0342 28.1425C20.0342 27.9861 20.0342 27.9861 20.19 27.9861C20.6573 27.9861 21.1418 27.9861 21.6091 27.9861C21.7476 27.9861 21.886 27.9861 22.0418 27.9861C22.6648 27.9861 23.2879 27.9861 23.9109 27.9861C23.9974 27.9861 24.0147 27.934 24.0147 27.8645C24.0147 27.6386 24.0147 27.3953 24.0147 27.1694C24.0147 27.013 24.032 26.9956 24.1878 26.9956C25.0704 26.9956 25.9704 26.9956 26.853 26.9956C26.9915 26.9956 26.9915 26.9956 26.9915 26.8566C26.9915 26.6307 26.9915 26.3874 26.9915 26.1616C26.9915 26.0747 26.9569 26.0225 26.8703 26.0399C26.628 26.0399 26.3857 26.0399 26.1435 26.0399C26.0223 26.0399 26.005 26.0225 26.005 25.8835C26.005 25.6576 26.005 25.4144 26.005 25.1885C26.005 25.0495 26.005 25.0495 25.8665 25.0321C25.3127 25.0321 24.7589 25.0321 24.1878 25.0321C24.032 25.0321 24.0147 25.0147 24.0147 24.8583C24.0147 24.615 24.0147 24.3891 24.0147 24.1459C24.0147 24.0242 24.032 23.9895 24.1705 23.9895C24.4128 23.9895 24.6551 23.9895 24.8974 23.9895C24.9839 23.9895 25.0185 23.9721 25.0185 23.8678C25.0185 23.6246 25.0185 23.3813 25.0185 23.138C25.0185 22.999 25.0358 22.9816 25.1743 22.9816C25.7281 22.9816 26.2992 22.9816 26.853 22.9816C27.0088 22.9816 27.0088 22.9816 27.0088 22.8253C27.0088 22.5994 27.0088 22.3561 27.0088 22.1302C27.0088 21.9912 27.0434 21.9738 27.1645 21.9738C27.7184 21.9738 28.2895 21.9738 28.8433 21.9738C28.999 21.9738 28.999 21.9738 28.999 21.8174C28.999 21.5915 28.999 21.3483 28.999 21.1224C28.999 21.0355 28.9644 21.0007 28.8779 21.0007C28.601 21.0702 28.3587 21.0702 28.1164 21.0702Z" fill="#121428"/>
        <path d="M22.9767 14.1891C22.9767 14.0501 22.9594 14.0327 22.8383 14.0327C22.596 14.0327 22.3364 14.0327 22.0941 14.0327C22.0075 14.0327 21.9902 14.0675 21.9902 14.137C21.9902 14.7452 21.9902 15.336 21.9902 15.9441C21.9902 16.0136 22.0248 16.031 22.0941 16.031C22.3537 16.031 22.6133 16.031 22.8729 16.031C22.9594 16.031 22.994 15.9963 22.994 15.9094C22.994 15.614 22.994 15.3186 22.994 15.0232C22.9767 14.7452 22.9767 14.4671 22.9767 14.1891Z" fill="#121428"/>
        <path d="M21.0906 18.0293C21.3502 18.0293 21.6271 18.0293 21.8867 18.0293C21.9559 18.0293 21.9906 17.9946 21.9906 17.925C21.9906 17.3342 21.9906 16.7434 21.9906 16.1526C21.9906 16.0658 21.9559 16.031 21.8694 16.031C21.6098 16.031 21.3675 16.031 21.1079 16.031C21.0387 16.031 21.0041 16.0484 21.0041 16.1353C21.0041 16.4307 21.0041 16.7261 21.0041 17.0388C21.0041 17.3342 21.0041 17.6296 21.0041 17.925C20.9868 17.9946 21.0041 18.0293 21.0906 18.0293Z" fill="#121428"/>
        <path d="M18.8413 20.045C18.2702 20.045 17.6991 20.045 17.128 20.045C17.0241 20.045 17.0068 20.0971 17.0068 20.184C17.0068 20.4273 17.0068 20.6705 17.0068 20.9138C17.0068 21.0181 17.0588 21.0354 17.128 21.0354C17.4222 21.0354 17.6991 21.0354 17.9933 21.0354C18.2875 21.0354 18.5817 21.0354 18.8586 21.0354C18.9452 21.0354 18.9971 21.0181 18.9798 20.9138C18.9798 20.6705 18.9798 20.4446 18.9798 20.2014C18.9971 20.0624 18.9625 20.045 18.8413 20.045Z" fill="#121428"/>
        <path d="M12.0392 20.045C12.0392 20.0623 12.0392 20.0623 12.0392 20.045C11.7623 20.045 11.4854 20.045 11.1912 20.045C11.0527 20.045 11.0527 20.0623 11.0527 20.184C11.0527 20.4272 11.0527 20.6705 11.0527 20.9138C11.0527 21.0007 11.0873 21.0181 11.1566 21.0181C11.745 21.0181 12.3334 21.0181 12.9218 21.0181C13.0084 21.0181 13.043 20.9833 13.043 20.8964C13.043 20.6531 13.043 20.4099 13.043 20.1666C13.043 20.0623 13.0084 20.0276 12.9045 20.0276C12.6103 20.0623 12.3161 20.045 12.0392 20.045Z" fill="#121428"/>
        <path d="M19.0833 20.045C19.3602 20.045 19.6371 20.045 19.914 20.045C19.966 20.045 19.9833 20.0103 19.9833 19.9581C19.9833 19.6801 19.9833 19.4021 19.9833 19.1067C19.9833 19.0545 19.966 19.0372 19.8967 19.0372C19.6198 19.0372 19.3429 19.0372 19.0833 19.0372C18.9968 19.0372 18.9795 19.0719 18.9795 19.1414C18.9795 19.2804 18.9795 19.4195 18.9795 19.5411C18.9795 19.6801 18.9795 19.8017 18.9795 19.9408C18.9968 20.0103 19.0141 20.045 19.0833 20.045Z" fill="#121428"/>
        <path d="M20.8826 19.0372C20.9519 19.0372 20.9865 19.0024 20.9865 18.9503C20.9865 18.6722 20.9865 18.4116 20.9865 18.1336C20.9865 18.0641 20.9519 18.0467 20.8826 18.0467C20.623 18.0467 20.3634 18.0467 20.1038 18.0467C20.0346 18.0467 20 18.0814 20 18.1683C20 18.4116 20 18.6722 20 18.9155C20 19.0024 20.0346 19.0372 20.1211 19.0372C20.2596 19.0372 20.3807 19.0372 20.5192 19.0372C20.6403 19.0372 20.7615 19.0372 20.8826 19.0372Z" fill="#121428"/>
        <path d="M17.0234 5.55291C17.0234 5.67455 17.0234 5.81356 17.0234 5.9352C17.0234 6.0047 17.0407 6.02208 17.0927 6.02208C17.3696 6.02208 17.6465 6.02208 17.9061 6.02208C17.958 6.02208 17.9753 5.98733 17.9753 5.9352C17.9753 5.65717 17.9753 5.39652 17.9753 5.1185C17.9753 5.04899 17.958 5.03162 17.8888 5.03162C17.6292 5.03162 17.3869 5.03162 17.1273 5.03162C17.0407 5.03162 17.0234 5.06637 17.0234 5.13588C17.0407 5.27489 17.0234 5.4139 17.0234 5.55291Z" fill="#121428"/>
    </g>
    <defs>
        <clipPath id="clip0_187_153">
            <rect width="32" height="32" fill="white"/>
        </clipPath>
    </defs>
</svg>
