<svg width="525" height="248" viewBox="0 0 525 248" fill="none" xmlns="http://www.w3.org/2000/svg">
    <path d="M339.776 101.856H330.03V111.641H339.776V101.856Z" fill="#121428"/>
    <path d="M320.432 101.856H310.686V111.641H320.432V101.856Z" fill="#121428"/>
    <path d="M310.539 43.4408H291.195V101.856H310.539V43.4408Z" fill="#121428"/>
    <path d="M330.031 72.6484H320.285V101.856H330.031V72.6484Z" fill="#121428"/>
    <path d="M359.121 43.4408H339.777V101.856H359.121V43.4408Z" fill="#121428"/>
    <path d="M378.466 111.641H417.301V101.856H388.211V92.0706H427.047V72.6484H417.301V62.8631H378.466V72.6484H368.72V101.856H378.466V111.641ZM388.211 72.6484H407.556V82.4336H388.211V72.6484Z" fill="#121428"/>
    <path d="M475.481 101.856H465.735V43.4408H436.646V53.2261H446.391V101.856H436.646V111.641H475.481V101.856Z" fill="#121428"/>
    <path d="M514.317 101.856V43.4408H485.228V53.2261H494.826V101.856H485.228V111.641H523.916V101.856H514.317Z" fill="#121428"/>
    <path d="M311.546 146.631H301.801V166.201H311.546V175.838H330.891V195.409H301.801V205.046H340.636V195.409H350.382V175.838H340.636V166.201H321.292V146.631H350.382V136.994H311.546V146.631Z" fill="#121428"/>
    <path d="M398.817 156.416H369.727V166.201H359.981V195.409H369.727V205.194H398.817V195.409H408.563V166.201H398.817V156.416ZM389.071 195.409H379.325V166.201H389.071V195.409Z" fill="#121428"/>
    <path d="M466.742 136.994H456.996V146.779H466.742V136.994Z" fill="#121428"/>
    <path d="M437.651 127.209V136.994H427.906V166.201H418.16V175.838H427.906V205.046H447.25V175.838H456.996V166.201H447.25V136.994H456.996V127.209H437.651Z" fill="#121428"/>
    <path d="M524.922 185.624H515.176V195.409H524.922V185.624Z" fill="#121428"/>
    <path d="M505.43 166.201H515.176V156.416H505.43V136.994H486.086V156.416H476.34V166.201H486.086V195.409H495.832V205.046H515.176V195.409H505.43V166.201Z" fill="#121428"/>
    <path d="M118.427 145.593C119.609 145.593 119.609 145.593 119.609 144.407C119.609 142.331 119.609 140.256 119.609 138.18C119.609 137.29 119.904 136.994 120.79 136.994C123.005 137.142 125.072 136.994 127.287 137.142C128.025 137.142 128.025 136.697 128.025 136.104C127.878 134.029 128.025 131.805 128.025 129.729C128.025 128.395 128.173 128.395 129.354 128.395C134.375 128.395 139.396 128.395 144.416 128.395C145.007 128.395 145.155 128.246 145.155 127.653C145.155 125.429 145.155 123.206 145.155 120.982C145.155 120.24 145.45 119.944 146.188 119.944C154.014 119.944 161.841 119.944 169.667 119.944C170.405 119.944 170.701 119.796 170.701 119.054C170.701 116.979 170.701 114.755 170.701 112.679C170.701 111.938 170.553 111.789 169.815 111.789C167.6 111.789 165.532 111.789 163.317 111.789C162.136 111.789 161.988 111.641 161.988 110.455C161.988 108.379 161.988 106.452 161.988 104.376C161.988 103.635 161.693 103.338 160.955 103.338C158.887 103.338 156.968 103.338 154.9 103.338C153.571 103.338 153.571 103.19 153.424 101.856C153.424 99.7802 153.424 97.7045 153.424 95.6289C153.424 94.8876 153.276 94.5911 152.39 94.5911C150.323 94.7393 148.256 94.5911 146.188 94.5911C145.598 94.5911 145.155 94.2945 145.155 93.5532C145.155 91.181 145.155 88.6606 145.155 86.2884C145.155 85.5471 145.598 85.3988 146.188 85.3988C148.256 85.3988 150.323 85.3988 152.39 85.3988C153.867 85.3988 153.867 85.2506 153.867 83.9162C153.867 82.1371 153.867 80.3579 153.867 78.4305C153.867 77.6892 154.162 77.2445 154.9 77.2445C161.545 77.2445 168.338 77.2445 174.983 77.2445C176.017 77.2445 177.05 77.2445 178.084 77.2445C179.117 77.2445 179.265 76.9479 179.265 75.9101C179.265 73.9827 179.265 71.907 179.265 69.9796C179.265 68.7935 179.413 68.7936 180.446 68.7936C185.172 68.7936 189.897 68.7936 194.77 68.7936C196.099 68.7936 196.247 68.6453 196.247 67.3109C196.247 65.3835 196.247 63.3079 196.247 61.3805C196.247 60.4909 196.542 60.3426 197.428 60.3426C199.348 60.3426 201.415 60.3426 203.335 60.3426C204.221 60.3426 204.516 60.6392 204.516 61.5287C204.516 63.4561 204.516 65.5318 204.516 67.4592C204.516 68.497 204.664 68.6453 205.697 68.6453C207.764 68.6453 209.832 68.6453 211.899 68.6453C212.785 68.6453 213.08 68.9418 213.08 69.8314C213.08 72.0553 213.08 74.131 213.08 76.3549C213.08 76.9479 213.228 77.2445 213.966 77.2445C216.181 77.2445 218.249 77.2445 220.464 77.2445C221.497 77.2445 221.645 77.3927 221.645 78.5788C221.645 83.3232 221.645 88.0675 221.645 92.9602C221.645 94.2945 221.645 94.2945 222.974 94.2945C225.041 94.2945 227.109 94.2945 229.176 94.2945C229.767 94.2945 230.062 94.1463 230.062 93.5532C230.062 92.3671 230.062 91.3293 230.062 90.1432C230.062 77.6892 230.062 65.3835 230.062 52.9296C230.062 51.5952 230.062 51.5952 231.391 51.5952C233.458 51.5952 235.378 51.5952 237.445 51.5952C238.331 51.5952 238.626 51.2987 238.626 50.4091C238.626 48.3335 238.626 46.4061 238.626 44.3304C238.626 43.1443 238.774 42.9961 239.955 42.9961C242.023 42.9961 244.09 42.9961 246.157 42.9961C246.896 42.9961 247.191 42.6995 247.191 41.9582C247.191 39.7343 247.191 37.6586 247.191 35.4347C247.191 34.5451 247.486 34.2486 248.372 34.2486C250.44 34.2486 252.507 34.2486 254.574 34.2486C255.46 34.2486 255.756 33.9521 255.608 33.0625C255.608 30.9869 255.608 29.0595 255.608 26.9838C255.608 26.2425 255.46 25.946 254.574 25.946C249.701 25.946 244.681 25.946 239.808 25.946C238.774 25.946 238.626 25.7977 238.626 24.7599C238.626 22.8325 238.626 20.7568 238.626 18.8294C238.626 17.6433 238.479 17.4951 237.297 17.4951C235.23 17.4951 233.311 17.4951 231.243 17.4951C230.357 17.4951 230.062 17.1986 230.062 16.309C230.062 14.2333 230.062 12.0094 230.062 9.93374C230.062 9.19244 229.767 8.89591 229.028 8.89591C227.109 8.89591 225.041 8.89591 223.122 8.89591C221.645 8.89591 221.645 8.89591 221.645 7.4133C221.645 5.4859 221.645 3.41024 221.645 1.48284C221.645 0.74153 221.35 0.445007 220.611 0.445007C209.979 0.445007 199.348 0.445007 188.716 0.445007C187.977 0.445007 187.682 0.74153 187.682 1.48284C187.682 3.70676 187.682 5.78242 187.682 8.00634C187.682 8.74765 187.387 9.04417 186.648 9.04417C184.433 9.04417 182.218 9.04417 180.151 9.04417C179.413 9.04417 179.265 9.3407 179.265 9.93374C179.265 12.0094 179.265 14.2333 179.265 16.309C179.265 17.0503 179.413 17.3468 180.299 17.3468C185.172 17.3468 190.045 17.3468 194.918 17.3468C195.951 17.3468 196.099 17.4951 196.099 18.5329C196.099 20.6086 196.099 22.536 196.099 24.6116C196.099 25.5012 196.394 25.7977 197.28 25.7977C199.348 25.7977 201.415 25.7977 203.482 25.7977C204.368 25.7977 204.664 26.0942 204.664 26.9838C204.664 29.0595 204.664 30.9869 204.664 33.0625C204.664 34.1004 204.811 34.2486 205.845 34.2486C207.912 34.2486 209.832 34.2486 211.899 34.2486C213.228 34.2486 213.376 34.1004 213.228 32.766C213.228 30.8386 213.228 28.763 213.228 26.8356C213.228 26.2425 213.523 25.946 214.114 25.946C216.181 25.946 218.249 25.946 220.316 25.946C220.907 25.946 221.202 26.0942 221.202 26.8356C221.202 28.9112 221.202 30.8386 221.202 32.9143C221.202 33.8038 221.35 34.1004 222.383 34.1004C224.008 34.1004 225.632 34.1004 227.256 34.1004C230.505 34.1004 230.062 33.8038 230.062 36.9173C230.062 38.5482 230.062 40.0308 230.062 41.6617C230.062 42.5513 229.767 42.8478 228.881 42.8478C226.813 42.8478 224.746 42.8478 222.679 42.8478C221.793 42.8478 221.645 43.1443 221.645 43.8856C221.645 45.9613 221.645 48.0369 221.645 50.1126C221.645 51.0022 221.35 51.2987 220.464 51.2987C209.832 51.2987 199.2 51.2987 188.568 51.2987C187.682 51.2987 187.387 51.0022 187.387 50.1126C187.387 48.0369 187.387 45.9613 187.387 43.8856C187.387 42.9961 187.091 42.6995 186.205 42.6995C184.138 42.6995 182.218 42.6995 180.151 42.6995C178.97 42.6995 178.822 42.5513 178.822 41.3652C178.822 39.2895 178.822 37.2139 178.822 35.1382C178.822 34.3969 178.527 34.1004 177.789 34.1004C175.721 34.1004 173.506 34.1004 171.439 34.1004C170.553 34.1004 170.258 33.8038 170.258 32.9143C170.258 30.8386 170.258 28.6147 170.258 26.539C170.258 25.946 170.11 25.6495 169.519 25.6495C167.304 25.6495 165.089 25.6495 162.874 25.6495C162.136 25.6495 161.988 25.946 161.988 26.6873C161.988 28.763 161.988 30.9869 161.988 33.0625C161.988 33.8038 161.693 34.1004 160.807 34.1004C158.74 34.1004 156.525 34.1004 154.457 34.1004C153.719 34.1004 153.424 34.3969 153.424 35.1382C153.424 37.2139 153.424 39.4378 153.424 41.5134C153.424 42.403 153.128 42.6995 152.242 42.6995C150.175 42.6995 148.108 42.6995 146.041 42.6995C145.155 42.6995 145.007 42.9961 145.007 43.8856C145.007 45.9613 145.007 47.8887 145.007 49.9643C145.007 51.1504 144.859 51.2987 143.53 51.2987C141.463 51.2987 139.396 51.2987 137.328 51.2987C136.59 51.2987 136.295 51.5952 136.295 52.3365C136.295 54.4122 136.295 56.4878 136.295 58.5635C136.295 59.7496 136.147 59.7496 134.966 59.7496C132.898 59.7496 130.831 59.7496 128.764 59.7496C127.878 59.7496 127.73 60.0461 127.73 60.7874C127.73 62.8631 127.73 64.9388 127.73 67.0144C127.73 68.2005 127.582 68.3488 126.401 68.3488C124.334 68.3488 122.414 68.3488 120.347 68.3488C119.461 68.3488 119.166 68.6453 119.166 69.5349C119.166 71.6105 119.166 73.6862 119.166 75.7618C119.166 76.9479 119.018 77.0962 117.837 77.0962C115.769 77.0962 113.702 77.0962 111.635 77.0962C110.896 77.0962 110.601 77.2445 110.601 78.134C110.601 80.2097 110.601 82.2853 110.601 84.361C110.601 85.2506 110.306 85.5471 109.42 85.5471C107.352 85.5471 105.137 85.5471 103.07 85.5471C102.332 85.5471 102.184 85.8436 102.184 86.4367C102.184 88.6606 102.184 90.8845 102.184 93.1084C102.184 93.8497 101.889 94.1463 101.15 94.1463C99.0831 94.1463 97.0158 94.1463 94.9485 94.1463C93.7672 94.1463 93.6195 94.2945 93.7672 95.3324C93.7672 97.408 93.7672 99.4837 93.7672 101.559C93.7672 102.449 94.0625 102.745 94.9485 102.597C97.0158 102.597 98.9355 102.597 101.003 102.597C101.593 102.597 101.889 102.894 101.889 103.487C101.889 105.562 101.889 107.638 101.889 109.714C101.889 110.307 101.593 110.603 101.003 110.603C98.7878 110.603 96.7205 110.603 94.5055 110.603C93.7672 110.603 93.7672 110.01 93.7672 109.565C93.7672 107.49 93.7672 105.414 93.7672 103.338C93.7672 102.745 93.6195 102.449 93.0289 102.449C90.6662 102.449 88.3036 102.449 85.941 102.449C85.3503 102.449 85.2026 102.745 85.2026 103.338C85.2026 105.711 85.2026 107.935 85.2026 110.307C85.2026 110.9 85.055 111.048 84.4643 111.048C82.2493 111.048 80.0344 111.048 77.8194 111.048C76.9334 111.048 76.7857 111.345 76.7857 112.234C76.7857 114.31 76.7857 116.385 76.7857 118.461C76.7857 119.647 76.7857 119.647 75.4568 119.647C70.5838 119.647 65.5632 119.647 60.6903 119.647C59.8043 119.647 59.6566 119.944 59.6566 120.685C59.6566 122.909 59.6566 125.133 59.6566 127.357C59.6566 128.098 59.5089 128.246 58.7706 128.246C56.5556 128.246 54.4883 128.246 52.2734 128.246C51.535 128.246 51.2397 128.543 51.2397 129.284C51.2397 131.508 51.2397 133.732 51.2397 135.956C51.2397 136.697 51.092 136.846 50.3537 136.846C45.3331 136.846 40.3125 136.846 35.2919 136.846C34.2583 136.846 34.1106 137.142 34.1106 138.032C34.1106 140.552 34.1106 143.073 34.1106 145.445C31.4526 145.148 28.9423 145.296 26.2843 145.296C25.6937 145.296 25.6937 145.89 25.6937 146.334C25.6937 148.558 25.6937 150.634 25.6937 152.858C25.6937 153.747 25.546 153.896 24.66 153.896C19.7871 153.896 14.7665 153.896 9.74588 153.896C8.56456 153.896 8.56456 153.896 8.56456 155.082C8.56456 157.306 8.56456 159.53 8.56456 161.753C8.56456 162.347 8.4169 162.495 7.82624 162.347C5.61127 162.347 3.39629 162.347 1.03365 162.347C0.29533 162.347 0 162.495 0 163.384C0 165.608 0 167.684 0 169.908C0 170.649 0.147665 170.797 0.885989 170.797C3.10096 170.797 5.16827 170.797 7.38324 170.797C8.26923 170.797 8.56456 171.094 8.4169 171.984C8.4169 174.059 8.4169 176.283 8.4169 178.359C8.4169 179.1 8.56456 179.397 9.45055 179.397C11.5179 179.397 13.5852 179.397 15.6525 179.397C16.8338 179.397 16.9815 179.545 16.9815 180.731C16.9815 182.807 16.9815 184.734 16.9815 186.81C16.9815 187.699 17.2768 187.996 18.1628 187.996C20.0824 187.996 22.1497 187.996 24.0694 187.996C24.9554 187.996 25.2507 187.699 25.103 186.958C25.103 184.882 25.103 182.807 25.103 180.731C25.103 179.545 25.2507 179.397 26.432 179.397C28.4993 179.397 30.419 179.397 32.4863 179.397C33.3723 179.397 33.6676 179.1 33.6676 178.211C33.6676 176.135 33.6676 174.059 33.6676 171.984C33.6676 171.094 33.9629 170.797 34.8489 170.797C39.7219 170.797 44.7425 170.797 49.6154 170.946C50.5014 170.946 50.6491 170.649 50.6491 169.908C50.6491 167.832 50.6491 165.608 50.6491 163.533C50.6491 162.643 50.9444 162.347 51.8304 162.347C53.8977 162.347 55.965 162.347 58.0323 162.347C58.9183 162.347 59.2136 162.05 59.2136 161.16C59.2136 159.233 59.2136 157.157 59.2136 155.23C59.2136 153.896 59.2136 153.896 60.5426 153.896C68.0735 153.896 75.7521 153.896 83.283 153.896C84.612 153.896 84.612 153.896 84.612 152.561C84.612 150.634 84.612 148.558 84.612 146.631C84.612 145.445 84.7596 145.296 85.941 145.296C97.3112 145.593 107.943 145.593 118.427 145.593ZM104.104 94.5911C106.023 94.5911 108.091 94.5911 110.01 94.5911C110.749 94.5911 111.044 94.8876 111.044 95.6289C111.044 97.7045 111.044 99.6319 111.044 101.708C111.044 102.449 110.749 102.894 110.01 102.894C107.943 102.894 106.023 102.894 103.956 102.894C103.218 102.894 102.922 102.597 102.922 101.856C102.922 100.818 102.922 99.9285 102.922 98.8906C102.922 97.8528 102.922 96.9632 102.922 95.9254C102.775 94.8876 103.218 94.5911 104.104 94.5911ZM51.535 152.858C51.535 153.896 51.3874 154.192 50.2061 154.192C48.1388 154.192 46.2191 154.192 44.1518 154.192C43.1181 154.192 42.9705 154.489 42.9705 155.527C42.9705 157.602 42.9705 159.53 42.9705 161.605C42.9705 162.495 42.5275 162.791 41.7892 162.791C39.7219 162.791 37.6545 162.791 35.5872 162.791C34.7012 162.791 34.4059 163.088 34.4059 163.829C34.4059 165.757 34.4059 167.684 34.4059 169.611C34.4059 171.094 34.4059 171.242 32.7816 171.242C30.419 171.242 28.0563 171.242 25.8414 171.242C20.6731 171.242 15.6525 171.242 10.4842 171.242C9.30289 171.242 9.15522 171.094 9.15522 169.908C9.15522 168.129 9.15522 166.35 9.15522 164.422C9.15522 163.088 9.30289 162.94 10.6319 162.94C15.2095 162.94 19.9348 162.94 24.5124 162.94C26.1367 162.94 26.1367 162.791 26.1367 161.16C26.1367 159.381 26.1367 157.454 26.1367 155.675C26.1367 154.637 26.5797 154.34 27.6133 154.34C29.533 154.34 31.6003 154.34 33.5199 154.34C34.1106 154.34 34.5536 154.044 34.5536 153.451C34.5536 150.93 34.5536 148.41 34.5536 146.038C34.9966 146.038 35.2919 145.89 35.7349 145.89C40.6078 145.89 45.4808 145.89 50.3537 145.89C51.2397 145.89 51.3874 146.186 51.3874 147.076C51.535 148.855 51.535 150.782 51.535 152.858ZM59.2136 145.593C58.18 145.593 57.1463 145.593 56.1127 145.593C55.079 145.593 54.193 145.593 53.1594 145.593C52.1257 145.593 51.978 145.296 51.978 144.259C51.978 142.331 51.978 140.404 51.978 138.328C51.978 137.587 52.2734 137.142 53.0117 137.142C55.079 137.142 57.294 137.142 59.3613 137.142C59.9519 137.142 60.3949 137.439 60.3949 138.032C60.3949 140.107 60.3949 142.331 60.3949 144.407C60.0996 145.296 59.8043 145.593 59.2136 145.593ZM67.4829 137.142C65.4155 137.142 63.3482 137.142 61.2809 137.142C60.5426 137.142 60.2473 136.846 60.2473 136.104C60.2473 134.029 60.2473 132.101 60.2473 130.026C60.2473 129.136 60.6903 128.691 61.5763 128.839C63.6436 128.988 65.5632 128.988 67.6305 128.988C68.3688 128.988 68.5165 129.284 68.5165 130.026C68.5165 131.063 68.5165 132.101 68.5165 133.139C68.5165 134.177 68.5165 135.215 68.5165 136.253C68.5165 136.846 68.2212 137.142 67.4829 137.142ZM85.6456 127.209C85.6456 127.95 85.3503 128.246 84.612 128.246C83.5783 128.246 82.5447 128.246 81.511 128.246C80.4774 128.246 79.296 128.246 78.2624 128.246C77.6717 128.246 77.3764 127.95 77.3764 127.357C77.3764 125.281 77.3764 123.206 77.3764 121.13C77.3764 120.389 77.8194 120.092 78.5577 120.092C80.625 120.092 82.6923 120.092 84.7596 120.092C85.498 120.092 85.7933 120.389 85.7933 121.13C85.6456 123.206 85.6456 125.281 85.6456 127.209ZM85.7933 118.906C85.7933 117.868 85.7933 116.979 85.7933 115.941C85.7933 114.903 85.7933 113.865 85.7933 112.827C85.7933 112.086 86.0886 111.641 86.8269 111.641C88.8943 111.641 90.9616 111.641 93.0289 111.641C93.6195 111.641 93.9149 111.938 93.9149 112.531C93.9149 114.755 93.9149 116.83 93.9149 119.054C93.9149 119.647 93.6195 119.944 93.0289 119.944C90.9616 119.944 88.8943 119.944 86.8269 119.944C86.0886 119.944 85.7933 119.499 85.7933 118.906Z" fill="#121428"/>
    <path d="M265.502 154.34C264.468 154.34 264.32 154.192 264.32 153.006C264.32 150.93 264.32 148.855 264.32 146.779C264.32 145.89 264.025 145.593 263.139 145.593C260.481 145.593 257.823 145.593 255.165 145.593C250.145 145.593 245.124 145.593 240.103 145.593C238.922 145.593 238.922 145.593 238.922 146.779C238.922 151.523 238.922 156.416 238.922 161.16C238.922 162.643 238.922 162.643 237.445 162.643C235.526 162.643 233.606 162.643 231.686 162.643C230.21 162.643 230.062 162.495 230.062 160.864C230.062 157.306 230.062 153.599 230.062 150.041C230.062 148.855 230.062 147.669 230.062 146.631C230.062 145.89 229.767 145.445 229.028 145.593C227.109 145.593 225.042 145.593 223.122 145.593C221.645 145.593 221.645 145.593 221.645 144.11C221.645 142.035 221.645 140.107 221.645 138.032C221.645 137.29 221.35 136.994 220.612 136.994C218.544 136.994 216.477 136.994 214.41 136.994C213.671 136.994 213.376 137.142 213.376 137.883C213.376 145.593 213.376 153.451 213.376 161.16C213.376 162.05 213.671 162.347 214.557 162.347C216.625 162.347 218.692 162.347 220.759 162.347C221.793 162.347 222.088 162.495 222.088 163.533C222.088 168.425 222.088 173.466 222.088 178.359C222.088 179.545 221.793 179.693 220.759 179.693C218.692 179.693 216.772 179.693 214.705 179.693C213.819 179.693 213.524 179.99 213.524 180.879C213.524 185.772 213.524 190.516 213.524 195.409C213.524 196.595 213.376 196.743 212.195 196.743C210.127 196.743 208.06 196.743 205.993 196.743C204.959 196.743 204.811 196.595 204.811 195.409C204.811 193.333 204.811 191.258 204.811 189.182C204.811 188.441 204.664 188.144 203.778 188.144C196.099 188.144 188.421 188.144 180.742 188.144C179.265 188.144 179.265 188.144 179.265 186.661C179.265 184.734 179.265 182.658 179.265 180.731C179.265 179.99 178.97 179.693 178.232 179.693C176.164 179.693 174.245 179.693 172.177 179.693C170.849 179.693 170.848 179.693 170.848 178.359C170.848 176.283 170.848 174.356 170.848 172.28C170.848 171.539 170.701 171.094 169.815 171.094C167.748 171.094 165.533 171.094 163.465 171.094C162.579 171.094 162.284 170.797 162.284 169.908C162.284 167.684 162.284 165.46 162.284 163.236C162.284 162.495 162.579 162.198 163.318 162.198C165.385 162.198 167.6 162.198 169.667 162.198C170.553 162.198 170.848 161.902 170.848 161.012C170.848 158.937 170.848 157.009 170.848 154.933C170.848 153.747 170.849 153.747 169.667 153.747C168.043 153.747 166.419 153.747 164.794 153.747C156.082 153.747 147.517 153.747 138.805 153.747C138.51 153.747 138.215 153.747 137.919 153.747C137.329 153.747 137.181 154.044 137.181 154.637C137.181 159.826 137.181 164.867 137.181 170.056C137.181 170.797 137.476 170.946 138.067 170.946C140.134 170.946 142.054 170.946 144.121 170.946C145.745 170.946 145.745 170.946 145.745 172.577C145.745 174.504 145.745 176.431 145.745 178.359C145.745 179.248 146.041 179.545 146.927 179.397C148.994 179.397 151.061 179.397 153.129 179.397C153.867 179.397 154.31 179.693 154.31 180.434C154.31 185.475 154.31 190.516 154.31 195.557C154.31 196.447 153.867 196.743 153.129 196.743C151.061 196.743 148.994 196.743 146.927 196.743C146.041 196.743 145.745 197.04 145.745 197.929C145.745 202.674 145.745 207.566 145.745 212.311C145.745 213.793 145.598 213.793 144.269 213.793C136.738 213.793 129.207 213.793 121.528 213.793C120.199 213.793 120.199 213.793 120.199 215.128C120.199 217.055 120.199 218.982 120.199 220.91C120.199 222.244 120.052 222.392 118.723 222.392C108.386 222.392 98.0497 222.392 87.7132 222.392C86.0889 222.392 86.0889 222.392 86.0889 224.023C86.0889 225.802 86.0889 227.582 86.0889 229.509C86.0889 230.399 86.3842 230.695 87.2702 230.547C89.3375 230.547 91.4048 230.547 93.4721 230.547C94.3581 230.547 94.6534 230.992 94.6534 231.733C94.6534 233.66 94.6534 235.736 94.6534 237.663C94.6534 238.849 94.8011 238.998 95.9824 238.998C97.9021 238.998 99.8217 238.998 101.741 238.998C103.07 238.998 103.218 239.146 103.218 240.48C103.218 242.408 103.218 244.483 103.218 246.411C103.218 247.3 103.366 247.597 104.252 247.597C111.93 247.597 119.461 247.597 127.14 247.597C128.321 247.597 128.321 247.597 128.321 246.263C128.321 244.335 128.321 242.259 128.321 240.332C128.321 239.146 128.469 238.998 129.798 238.998C134.523 238.998 139.396 238.998 144.121 238.998C145.302 238.998 145.45 238.998 145.45 237.812C145.45 235.884 145.45 233.957 145.45 232.029C145.45 230.547 145.45 230.399 147.074 230.399C153.424 230.399 159.774 230.399 166.271 230.399C167.6 230.399 168.929 230.399 170.258 230.399C170.849 230.399 170.996 230.102 170.996 229.509C170.996 227.433 170.996 225.358 170.996 223.282C170.996 221.948 170.996 221.948 172.325 221.948C180.004 221.948 187.682 221.948 195.509 221.948C196.395 221.948 196.69 221.651 196.542 220.762C196.542 218.686 196.542 216.759 196.542 214.683C196.542 213.348 196.542 213.348 197.871 213.348C201.858 213.348 205.993 213.348 209.98 213.348C211.161 213.348 212.342 213.348 213.671 213.348C218.987 213.348 224.303 213.348 229.619 213.348C230.357 213.348 230.505 212.904 230.505 212.311C230.505 210.383 230.505 208.308 230.505 206.38C230.505 205.046 230.653 204.898 231.982 204.898C239.513 204.898 247.191 204.898 254.722 204.898C255.903 204.898 255.903 204.898 255.903 203.711C255.903 201.784 255.903 199.708 255.903 197.781C255.903 197.04 255.608 196.595 254.87 196.743C252.803 196.743 250.735 196.743 248.668 196.743C247.634 196.743 247.487 196.595 247.487 195.409C247.487 193.481 247.487 191.406 247.487 189.478C247.487 188.292 247.487 188.292 246.305 188.144C241.58 188.144 236.855 188.144 231.982 188.144C230.653 188.144 230.505 187.996 230.505 186.661C230.505 184.586 230.505 182.658 230.505 180.583C230.505 179.545 230.653 179.248 231.834 179.248C233.901 179.248 235.969 179.248 238.036 179.248C238.774 179.248 239.07 179.1 239.07 178.211C239.07 176.135 239.07 174.059 239.07 171.984C239.07 170.797 239.217 170.649 240.399 170.649C245.124 170.649 249.997 170.649 254.722 170.649C256.051 170.649 256.051 170.649 256.051 169.315C256.051 167.387 256.051 165.312 256.051 163.384C256.051 162.198 256.346 162.05 257.38 162.05C262.105 162.05 266.978 162.05 271.704 162.05C273.033 162.05 273.033 162.05 273.033 160.716C273.033 158.788 273.033 156.713 273.033 154.785C273.033 154.044 272.737 153.747 271.999 153.747C269.636 154.34 267.569 154.34 265.502 154.34Z" fill="#121428"/>
    <path d="M221.644 95.6289C221.644 94.4428 221.497 94.2945 220.463 94.2945C218.396 94.2945 216.181 94.2945 214.114 94.2945C213.375 94.2945 213.228 94.591 213.228 95.1841C213.228 100.373 213.228 105.414 213.228 110.603C213.228 111.196 213.523 111.345 214.114 111.345C216.329 111.345 218.543 111.345 220.758 111.345C221.497 111.345 221.792 111.048 221.792 110.307C221.792 107.786 221.792 105.266 221.792 102.745C221.644 100.373 221.644 98.0011 221.644 95.6289Z" fill="#121428"/>
    <path d="M205.549 128.395C207.764 128.395 210.127 128.395 212.342 128.395C212.932 128.395 213.228 128.098 213.228 127.505C213.228 122.464 213.228 117.423 213.228 112.382C213.228 111.641 212.932 111.345 212.194 111.345C209.979 111.345 207.912 111.345 205.697 111.345C205.106 111.345 204.811 111.493 204.811 112.234C204.811 114.755 204.811 117.275 204.811 119.944C204.811 122.464 204.811 124.985 204.811 127.505C204.663 128.098 204.811 128.395 205.549 128.395Z" fill="#121428"/>
    <path d="M186.353 145.593C181.48 145.593 176.607 145.593 171.734 145.593C170.848 145.593 170.701 146.038 170.701 146.779C170.701 148.855 170.701 150.93 170.701 153.006C170.701 153.896 171.144 154.044 171.734 154.044C174.245 154.044 176.607 154.044 179.118 154.044C181.628 154.044 184.138 154.044 186.501 154.044C187.239 154.044 187.682 153.896 187.534 153.006C187.534 150.93 187.534 149.003 187.534 146.927C187.682 145.741 187.387 145.593 186.353 145.593Z" fill="#121428"/>
    <path d="M128.321 145.593C128.321 145.741 128.321 145.741 128.321 145.593C125.959 145.593 123.596 145.593 121.086 145.593C119.904 145.593 119.904 145.741 119.904 146.779C119.904 148.855 119.904 150.93 119.904 153.006C119.904 153.747 120.2 153.896 120.79 153.896C125.811 153.896 130.832 153.896 135.852 153.896C136.59 153.896 136.886 153.599 136.886 152.858C136.886 150.782 136.886 148.707 136.886 146.631C136.886 145.741 136.59 145.445 135.704 145.445C133.194 145.741 130.684 145.593 128.321 145.593Z" fill="#121428"/>
    <path d="M188.421 145.593C190.784 145.593 193.146 145.593 195.509 145.593C195.952 145.593 196.1 145.296 196.1 144.852C196.1 142.48 196.1 140.107 196.1 137.587C196.1 137.142 195.952 136.994 195.361 136.994C192.999 136.994 190.636 136.994 188.421 136.994C187.683 136.994 187.535 137.29 187.535 137.883C187.535 139.069 187.535 140.256 187.535 141.293C187.535 142.48 187.535 143.517 187.535 144.703C187.683 145.296 187.83 145.593 188.421 145.593Z" fill="#121428"/>
    <path d="M203.777 136.994C204.368 136.994 204.663 136.697 204.663 136.253C204.663 133.88 204.663 131.656 204.663 129.284C204.663 128.691 204.368 128.543 203.777 128.543C201.563 128.543 199.348 128.543 197.133 128.543C196.542 128.543 196.247 128.839 196.247 129.581C196.247 131.656 196.247 133.88 196.247 135.956C196.247 136.697 196.542 136.994 197.28 136.994C198.462 136.994 199.495 136.994 200.677 136.994C201.71 136.994 202.744 136.994 203.777 136.994Z" fill="#121428"/>
    <path d="M170.847 21.9429C170.847 22.9808 170.847 24.1669 170.847 25.2047C170.847 25.7977 170.995 25.946 171.438 25.946C173.801 25.946 176.163 25.946 178.378 25.946C178.821 25.946 178.969 25.6495 178.969 25.2047C178.969 22.8325 178.969 20.6086 178.969 18.2364C178.969 17.6433 178.821 17.4951 178.231 17.4951C176.016 17.4951 173.948 17.4951 171.733 17.4951C170.995 17.4951 170.847 17.7916 170.847 18.3847C170.995 19.5707 170.847 20.7568 170.847 21.9429Z" fill="#121428"/>
</svg>
