<svg width="32" height="32" viewBox="0 0 32 32" fill="none" xmlns="http://www.w3.org/2000/svg">
  <rect width="32" height="32" rx="4" fill="#F9FCFD"/>
  <path d="M16.2 8.46258C18.6386 8.46258 18.9711 8.46258 19.9687 8.46258C20.8554 8.46258 21.2988 8.68426 21.6313 8.79511C22.0747 9.01679 22.4072 9.12764 22.7398 9.46017C23.0723 9.7927 23.294 10.1252 23.4048 10.5686C23.5157 10.9011 23.6265 11.3445 23.7374 12.2313C23.7374 13.2288 23.7374 13.4505 23.7374 15.9999C23.7374 18.5493 23.7374 18.771 23.7374 19.7686C23.7374 20.6553 23.5157 21.0987 23.4048 21.4313C23.1831 21.8746 23.0723 22.2072 22.7398 22.5397C22.4072 22.8722 22.0747 23.0939 21.6313 23.2047C21.2988 23.3156 20.8554 23.4264 19.9687 23.5373C18.9711 23.5373 18.7494 23.5373 16.2 23.5373C13.6506 23.5373 13.4289 23.5373 12.4313 23.5373C11.5446 23.5373 11.1012 23.3156 10.7687 23.2047C10.3253 22.9831 9.99277 22.8722 9.66024 22.5397C9.32771 22.2072 9.10602 21.8746 8.99518 21.4313C8.88434 21.0987 8.77349 20.6553 8.66265 19.7686C8.66265 18.771 8.66265 18.5493 8.66265 15.9999C8.66265 13.4505 8.66265 13.2288 8.66265 12.2313C8.66265 11.3445 8.88434 10.9011 8.99518 10.5686C9.21687 10.1252 9.32771 9.7927 9.66024 9.46017C9.99277 9.12764 10.3253 8.90595 10.7687 8.79511C11.1012 8.68426 11.5446 8.57342 12.4313 8.46258C13.4289 8.46258 13.7614 8.46258 16.2 8.46258ZM16.2 6.79993C13.6506 6.79993 13.4289 6.79993 12.4313 6.79993C11.4337 6.79993 10.7687 7.02161 10.2145 7.2433C9.66024 7.46499 9.10602 7.79752 8.55181 8.35173C7.99759 8.90595 7.7759 9.34933 7.44337 10.0144C7.22169 10.5686 7.11084 11.2337 7 12.2313C7 13.2288 7 13.5614 7 15.9999C7 18.5493 7 18.771 7 19.7686C7 20.7662 7.22169 21.4313 7.44337 21.9855C7.66506 22.5397 7.99759 23.0939 8.55181 23.6481C9.10602 24.2023 9.5494 24.424 10.2145 24.7566C10.7687 24.9782 11.4337 25.0891 12.4313 25.1999C13.4289 25.1999 13.7614 25.1999 16.2 25.1999C18.6386 25.1999 18.9711 25.1999 19.9687 25.1999C20.9663 25.1999 21.6313 24.9782 22.1855 24.7566C22.7398 24.5349 23.294 24.2023 23.8482 23.6481C24.4024 23.0939 24.6241 22.6505 24.9566 21.9855C25.1783 21.4313 25.2892 20.7662 25.4 19.7686C25.4 18.771 25.4 18.4385 25.4 15.9999C25.4 13.5614 25.4 13.2288 25.4 12.2313C25.4 11.2337 25.1783 10.5686 24.9566 10.0144C24.7349 9.46017 24.4024 8.90595 23.8482 8.35173C23.294 7.79752 22.8506 7.57583 22.1855 7.2433C21.6313 7.02161 20.9663 6.91077 19.9687 6.79993C18.9711 6.79993 18.7494 6.79993 16.2 6.79993Z" fill="#121428"/>
  <path d="M16.2 11.2337C13.5398 11.2337 11.4337 13.3397 11.4337 15.9999C11.4337 18.6602 13.5398 20.7662 16.2 20.7662C18.8602 20.7662 20.9663 18.6602 20.9663 15.9999C20.9663 13.3397 18.8602 11.2337 16.2 11.2337ZM16.2 19.1035C14.5374 19.1035 13.0964 17.7734 13.0964 15.9999C13.0964 14.3373 14.4265 12.8963 16.2 12.8963C17.8627 12.8963 19.3036 14.2264 19.3036 15.9999C19.3036 17.6626 17.8627 19.1035 16.2 19.1035Z" fill="#121428"/>
  <path d="M21.0771 12.2313C21.6893 12.2313 22.1855 11.735 22.1855 11.1228C22.1855 10.5106 21.6893 10.0144 21.0771 10.0144C20.4649 10.0144 19.9687 10.5106 19.9687 11.1228C19.9687 11.735 20.4649 12.2313 21.0771 12.2313Z" fill="#121428"/>
</svg>
