<svg width="32" height="32" viewBox="0 0 32 32" fill="none" xmlns="http://www.w3.org/2000/svg">
    <g clip-path="url(#clip0_187_127)">
        <rect width="32" height="32" fill="#F9E762"/>
        <path d="M-10.3002 47.5292C-9.95403 47.5292 -9.95403 47.5292 -9.95403 47.1816C-9.95403 46.5735 -9.95403 45.9653 -9.95403 45.3571C-9.95403 45.0965 -9.86749 45.0096 -9.60789 45.0096C-8.95889 45.053 -8.35316 45.0096 -7.70416 45.053C-7.48783 45.053 -7.48783 44.9227 -7.48783 44.7489C-7.5311 44.1407 -7.48783 43.4891 -7.48783 42.8809C-7.48783 42.49 -7.44456 42.49 -7.09843 42.49C-5.62737 42.49 -4.1563 42.49 -2.68523 42.49C-2.51217 42.49 -2.4689 42.4465 -2.4689 42.2728C-2.4689 41.6211 -2.4689 40.9695 -2.4689 40.3179C-2.4689 40.1007 -2.38237 40.0138 -2.16603 40.0138C0.127098 40.0138 2.42023 40.0138 4.71336 40.0138C4.9297 40.0138 5.01623 39.9704 5.01623 39.7532C5.01623 39.145 5.01623 38.4934 5.01623 37.8852C5.01623 37.668 4.97296 37.6245 4.75663 37.6245C4.10763 37.6245 3.5019 37.6245 2.85289 37.6245C2.50676 37.6245 2.46349 37.5811 2.46349 37.2336C2.46349 36.6254 2.46349 36.0606 2.46349 35.4525C2.46349 35.2352 2.37696 35.1484 2.16063 35.1484C1.5549 35.1484 0.992432 35.1484 0.3867 35.1484C-0.00270081 35.1484 -0.00270081 35.1049 -0.0459671 34.7139C-0.0459671 34.1058 -0.0459671 33.4976 -0.0459671 32.8894C-0.0459671 32.6722 -0.0892372 32.5853 -0.348835 32.5853C-0.954567 32.6288 -1.5603 32.5853 -2.16603 32.5853C-2.3391 32.5853 -2.4689 32.4984 -2.4689 32.2812C-2.4689 31.5862 -2.4689 30.8477 -2.4689 30.1526C-2.4689 29.9354 -2.3391 29.8919 -2.16603 29.8919C-1.5603 29.8919 -0.954567 29.8919 -0.348835 29.8919C0.0838318 29.8919 0.0838318 29.8485 0.0838318 29.4575C0.0838318 28.9362 0.0838318 28.4149 0.0838318 27.8502C0.0838318 27.633 0.170364 27.5027 0.3867 27.5027C2.3337 27.5027 4.32396 27.5027 6.27096 27.5027C6.57383 27.5027 6.87669 27.5027 7.17956 27.5027C7.48243 27.5027 7.52569 27.4158 7.52569 27.1117C7.52569 26.547 7.52569 25.9388 7.52569 25.374C7.52569 25.0265 7.56896 25.0265 7.87183 25.0265C9.25636 25.0265 10.6409 25.0265 12.0687 25.0265C12.4581 25.0265 12.5014 24.9831 12.5014 24.5921C12.5014 24.0274 12.5014 23.4192 12.5014 22.8544C12.5014 22.5938 12.5879 22.5503 12.8475 22.5503C13.41 22.5503 14.0157 22.5503 14.5782 22.5503C14.8378 22.5503 14.9243 22.6372 14.9243 22.8979C14.9243 23.4626 14.9243 24.0708 14.9243 24.6355C14.9243 24.9396 14.9676 24.9831 15.2704 24.9831C15.8762 24.9831 16.4819 24.9831 17.0876 24.9831C17.3472 24.9831 17.4338 25.0699 17.4338 25.3306C17.4338 25.9822 17.4338 26.5904 17.4338 27.242C17.4338 27.4158 17.477 27.5027 17.6933 27.5027C18.3424 27.5027 18.9481 27.5027 19.5971 27.5027C19.8999 27.5027 19.9432 27.5461 19.9432 27.8936C19.9432 29.2838 19.9432 30.6739 19.9432 32.1075C19.9432 32.4984 19.9432 32.4984 20.3326 32.4984C20.9383 32.4984 21.5441 32.4984 22.1498 32.4984C22.3229 32.4984 22.4094 32.455 22.4094 32.2812C22.4094 31.9337 22.4094 31.6296 22.4094 31.2821C22.4094 27.633 22.4094 24.0274 22.4094 20.3783C22.4094 19.9873 22.4094 19.9873 22.7988 19.9873C23.4045 19.9873 23.967 19.9873 24.5727 19.9873C24.8323 19.9873 24.9189 19.9004 24.9189 19.6398C24.9189 19.0316 24.9189 18.4668 24.9189 17.8587C24.9189 17.5111 24.9621 17.4677 25.3083 17.4677C25.914 17.4677 26.5197 17.4677 27.1255 17.4677C27.3418 17.4677 27.4283 17.3808 27.4283 17.1636C27.4283 16.512 27.4283 15.9038 27.4283 15.2522C27.4283 14.9915 27.5149 14.9046 27.7745 14.9046C28.3802 14.9046 28.9859 14.9046 29.5917 14.9046C29.8513 14.9046 29.9378 14.8178 29.8945 14.5571C29.8945 13.9489 29.8945 13.3842 29.8945 12.776C29.8945 12.5588 29.8513 12.4719 29.5917 12.4719C28.1639 12.4719 26.6928 12.4719 25.265 12.4719C24.9621 12.4719 24.9189 12.4285 24.9189 12.1244C24.9189 11.5597 24.9189 10.9515 24.9189 10.3867C24.9189 10.0392 24.8756 9.99577 24.5295 9.99577C23.9237 9.99577 23.3613 9.99577 22.7555 9.99577C22.4959 9.99577 22.4094 9.90888 22.4094 9.64823C22.4094 9.04005 22.4094 8.38843 22.4094 7.78025C22.4094 7.56305 22.3229 7.47616 22.1066 7.47616C21.5441 7.47616 20.9384 7.47616 20.3759 7.47616C19.9432 7.47616 19.9432 7.47616 19.9432 7.04175C19.9432 6.47701 19.9432 5.86883 19.9432 5.30409C19.9432 5.08688 19.8567 5 19.6404 5C16.5252 5 13.41 5 10.2948 5C10.0784 5 9.99189 5.08688 9.99189 5.30409C9.99189 5.95571 9.99189 6.56389 9.99189 7.21551C9.99189 7.43272 9.90536 7.5196 9.68903 7.5196C9.04002 7.5196 8.39103 7.5196 7.78529 7.5196C7.56896 7.5196 7.52569 7.60649 7.52569 7.78025C7.52569 8.38843 7.52569 9.04005 7.52569 9.64823C7.52569 9.86544 7.56896 9.95232 7.82856 9.95232C9.25636 9.95232 10.6842 9.95232 12.112 9.95232C12.4148 9.95232 12.4581 9.99577 12.4581 10.2999C12.4581 10.908 12.4581 11.4728 12.4581 12.081C12.4581 12.3416 12.5446 12.4285 12.8042 12.4285C13.41 12.4285 14.0157 12.4285 14.6214 12.4285C14.881 12.4285 14.9676 12.5154 14.9676 12.776C14.9676 13.3842 14.9676 13.9489 14.9676 14.5571C14.9676 14.8612 15.0108 14.9046 15.3137 14.9046C15.9194 14.9046 16.4819 14.9046 17.0876 14.9046C17.477 14.9046 17.5203 14.8612 17.477 14.4702C17.477 13.9055 17.477 13.2973 17.477 12.7326C17.477 12.5588 17.5636 12.4719 17.7366 12.4719C18.3424 12.4719 18.9481 12.4719 19.5538 12.4719C19.7269 12.4719 19.8134 12.5154 19.8134 12.7326C19.8134 13.3408 19.8134 13.9055 19.8134 14.5137C19.8134 14.7743 19.8567 14.8612 20.1596 14.8612C20.6355 14.8612 21.1114 14.8612 21.5873 14.8612C22.5392 14.8612 22.4094 14.7743 22.4094 15.6866C22.4094 16.1645 22.4094 16.5989 22.4094 17.0767C22.4094 17.3374 22.3229 17.4243 22.0633 17.4243C21.4576 17.4243 20.8518 17.4243 20.2461 17.4243C19.9865 17.4243 19.9432 17.5111 19.9432 17.7283C19.9432 18.3365 19.9432 18.9447 19.9432 19.5529C19.9432 19.8135 19.8567 19.9004 19.5971 19.9004C16.4819 19.9004 13.3667 19.9004 10.2515 19.9004C9.99189 19.9004 9.90536 19.8135 9.90536 19.5529C9.90536 18.9447 9.90536 18.3365 9.90536 17.7283C9.90536 17.4677 9.81882 17.3808 9.55922 17.3808C8.95349 17.3808 8.39103 17.3808 7.78529 17.3808C7.43916 17.3808 7.39589 17.3374 7.39589 16.9898C7.39589 16.3817 7.39589 15.7735 7.39589 15.1653C7.39589 14.9481 7.30936 14.8612 7.09303 14.8612C6.48729 14.8612 5.83829 14.8612 5.23256 14.8612C4.97296 14.8612 4.88643 14.7743 4.88643 14.5137C4.88643 13.9055 4.88643 13.2539 4.88643 12.6457C4.88643 12.4719 4.84316 12.385 4.6701 12.385C4.0211 12.385 3.3721 12.385 2.7231 12.385C2.50676 12.385 2.46349 12.4719 2.46349 12.6891C2.46349 13.2973 2.46349 13.9489 2.46349 14.5571C2.46349 14.7743 2.37696 14.8612 2.11736 14.8612C1.51163 14.8612 0.862629 14.8612 0.256897 14.8612C0.0405655 14.8612 -0.0459671 14.9481 -0.0459671 15.1653C-0.0459671 15.7735 -0.0459671 16.4251 -0.0459671 17.0333C-0.0459671 17.2939 -0.132504 17.3808 -0.392101 17.3808C-0.997833 17.3808 -1.60357 17.3808 -2.2093 17.3808C-2.4689 17.3808 -2.51217 17.4677 -2.51217 17.7283C-2.51217 18.3365 -2.51217 18.9013 -2.51217 19.5094C-2.51217 19.857 -2.55544 19.9004 -2.94484 19.9004C-3.55057 19.9004 -4.1563 19.9004 -4.76203 19.9004C-4.97836 19.9004 -5.0649 19.9873 -5.0649 20.2045C-5.0649 20.8127 -5.0649 21.4209 -5.0649 22.029C-5.0649 22.3766 -5.10816 22.3766 -5.4543 22.3766C-6.06003 22.3766 -6.66576 22.3766 -7.2715 22.3766C-7.5311 22.3766 -7.57436 22.4635 -7.57436 22.6807C-7.57436 23.2888 -7.57436 23.897 -7.57436 24.5052C-7.57436 24.8527 -7.61763 24.8962 -7.96376 24.8962C-8.5695 24.8962 -9.13196 24.8962 -9.73769 24.8962C-9.9973 24.8962 -10.0838 24.9831 -10.0838 25.2437C-10.0838 25.8519 -10.0838 26.4601 -10.0838 27.0683C-10.0838 27.4158 -10.1271 27.4592 -10.4732 27.4592C-11.079 27.4592 -11.6847 27.4592 -12.2904 27.4592C-12.5068 27.4592 -12.5933 27.5027 -12.5933 27.7633C-12.5933 28.3715 -12.5933 28.9797 -12.5933 29.5879C-12.5933 29.8485 -12.6798 29.9354 -12.9394 29.9354C-13.5452 29.9354 -14.1942 29.9354 -14.7999 29.9354C-15.0162 29.9354 -15.0595 30.0223 -15.0595 30.196C-15.0595 30.8477 -15.0595 31.4993 -15.0595 32.1509C-15.0595 32.3681 -15.146 32.455 -15.3624 32.455C-15.9681 32.455 -16.5738 32.455 -17.1796 32.455C-17.5257 32.455 -17.569 32.4984 -17.5257 32.8025C-17.5257 33.4107 -17.5257 34.0189 -17.5257 34.6271C-17.5257 34.8877 -17.4392 34.9746 -17.1796 34.9312C-16.5738 34.9312 -16.0114 34.9312 -15.4056 34.9312C-15.2326 34.9312 -15.146 35.018 -15.146 35.1918C-15.146 35.8 -15.146 36.4082 -15.146 37.0163C-15.146 37.1901 -15.2326 37.277 -15.4056 37.277C-16.0546 37.277 -16.6604 37.277 -17.3094 37.277C-17.5257 37.277 -17.5257 37.1032 -17.5257 36.9729C-17.5257 36.3647 -17.5257 35.7565 -17.5257 35.1484C-17.5257 34.9746 -17.569 34.8877 -17.742 34.8877C-18.4343 34.8877 -19.1266 34.8877 -19.8188 34.8877C-19.9919 34.8877 -20.0352 34.9746 -20.0352 35.1484C-20.0352 35.8434 -20.0352 36.495 -20.0352 37.1901C-20.0352 37.3639 -20.0784 37.4073 -20.2515 37.4073C-20.9005 37.4073 -21.5495 37.4073 -22.1985 37.4073C-22.4581 37.4073 -22.5014 37.4942 -22.5014 37.7548C-22.5014 38.363 -22.5014 38.9712 -22.5014 39.5794C-22.5014 39.9269 -22.5014 39.9269 -22.8908 39.9269C-24.3186 39.9269 -25.7896 39.9269 -27.2174 39.9269C-27.477 39.9269 -27.5203 40.0138 -27.5203 40.231C-27.5203 40.8826 -27.5203 41.5343 -27.5203 42.1859C-27.5203 42.4031 -27.5635 42.4465 -27.7799 42.4465C-28.4289 42.4465 -29.0346 42.4465 -29.6836 42.4465C-29.8999 42.4465 -29.9865 42.5334 -29.9865 42.7506C-29.9865 43.4022 -29.9865 44.0539 -29.9865 44.7055C-29.9865 44.9227 -30.0297 44.9661 -30.2461 44.9661C-31.7171 44.9661 -33.1882 44.9661 -34.6593 44.9661C-34.9621 44.9661 -35.0054 45.053 -35.0054 45.3137C-35.0054 46.0522 -35.0054 46.7907 -35.0054 47.4857C-35.7842 47.3988 -36.5197 47.4423 -37.2985 47.4423C-37.4716 47.4423 -37.4716 47.6161 -37.4716 47.7464C-37.4716 48.398 -37.4716 49.0062 -37.4716 49.6578C-37.4716 49.9185 -37.5149 49.9619 -37.7745 49.9619C-39.2023 49.9619 -40.6733 49.9619 -42.1444 49.9619C-42.4905 49.9619 -42.4905 49.9619 -42.4905 50.3094C-42.4905 50.961 -42.4905 51.6127 -42.4905 52.2643C-42.4905 52.4381 -42.5338 52.4815 -42.7069 52.4381C-43.3559 52.4381 -44.0049 52.4381 -44.6971 52.4381C-44.9135 52.4381 -45 52.4815 -45 52.7421C-45 53.3938 -45 54.0019 -45 54.6536C-45 54.8708 -44.9567 54.9142 -44.7404 54.9142C-44.0914 54.9142 -43.4857 54.9142 -42.8367 54.9142C-42.5771 54.9142 -42.4905 55.0011 -42.5338 55.2617C-42.5338 55.8699 -42.5338 56.5216 -42.5338 57.1297C-42.5338 57.3469 -42.4905 57.4338 -42.2309 57.4338C-41.6252 57.4338 -41.0195 57.4338 -40.4137 57.4338C-40.0676 57.4338 -40.0243 57.4773 -40.0243 57.8248C-40.0243 58.433 -40.0243 58.9977 -40.0243 59.6059C-40.0243 59.8665 -39.9378 59.9534 -39.6782 59.9534C-39.1157 59.9534 -38.51 59.9534 -37.9475 59.9534C-37.6879 59.9534 -37.6014 59.8665 -37.6447 59.6493C-37.6447 59.0412 -37.6447 58.433 -37.6447 57.8248C-37.6447 57.4773 -37.6014 57.4338 -37.2553 57.4338C-36.6495 57.4338 -36.0871 57.4338 -35.4813 57.4338C-35.2217 57.4338 -35.1352 57.3469 -35.1352 57.0863C-35.1352 56.4781 -35.1352 55.8699 -35.1352 55.2617C-35.1352 55.0011 -35.0487 54.9142 -34.7891 54.9142C-33.3613 54.9142 -31.8902 54.9142 -30.4624 54.9577C-30.2028 54.9577 -30.1595 54.8708 -30.1595 54.6536C-30.1595 54.0454 -30.1595 53.3938 -30.1595 52.7856C-30.1595 52.5249 -30.073 52.4381 -29.8134 52.4381C-29.2077 52.4381 -28.6019 52.4381 -27.9962 52.4381C-27.7366 52.4381 -27.6501 52.3512 -27.6501 52.0905C-27.6501 51.5258 -27.6501 50.9176 -27.6501 50.3529C-27.6501 49.9619 -27.6501 49.9619 -27.2607 49.9619C-25.0541 49.9619 -22.8042 49.9619 -20.5976 49.9619C-20.2082 49.9619 -20.2082 49.9619 -20.2082 49.5709C-20.2082 49.0062 -20.2082 48.398 -20.2082 47.8333C-20.2082 47.4857 -20.165 47.4423 -19.8188 47.4423C-16.4873 47.5292 -13.3721 47.5292 -10.3002 47.5292ZM-14.497 32.5853C-13.9346 32.5853 -13.3288 32.5853 -12.7664 32.5853C-12.55 32.5853 -12.4635 32.6722 -12.4635 32.8894C-12.4635 33.4976 -12.4635 34.0623 -12.4635 34.6705C-12.4635 34.8877 -12.55 35.018 -12.7664 35.018C-13.3721 35.018 -13.9346 35.018 -14.5403 35.018C-14.7566 35.018 -14.8432 34.9312 -14.8432 34.7139C-14.8432 34.4099 -14.8432 34.1492 -14.8432 33.8451C-14.8432 33.541 -14.8432 33.2804 -14.8432 32.9763C-14.8864 32.6722 -14.7566 32.5853 -14.497 32.5853ZM-29.8999 49.6578C-29.8999 49.9619 -29.9432 50.0488 -30.2893 50.0488C-30.8951 50.0488 -31.4575 50.0488 -32.0633 50.0488C-32.3661 50.0488 -32.4094 50.1357 -32.4094 50.4398C-32.4094 51.0479 -32.4094 51.6127 -32.4094 52.2208C-32.4094 52.4815 -32.5392 52.5684 -32.7555 52.5684C-33.3613 52.5684 -33.967 52.5684 -34.5727 52.5684C-34.8323 52.5684 -34.9189 52.6553 -34.9189 52.8725C-34.9189 53.4372 -34.9189 54.0019 -34.9189 54.5667C-34.9189 55.0011 -34.9189 55.0445 -35.3948 55.0445C-36.0871 55.0445 -36.7793 55.0445 -37.4283 55.0445C-38.9427 55.0445 -40.4137 55.0445 -41.9281 55.0445C-42.2742 55.0445 -42.3175 55.0011 -42.3175 54.6536C-42.3175 54.1323 -42.3175 53.611 -42.3175 53.0462C-42.3175 52.6553 -42.2742 52.6118 -41.8848 52.6118C-40.5435 52.6118 -39.159 52.6118 -37.8177 52.6118C-37.3418 52.6118 -37.3418 52.5684 -37.3418 52.0905C-37.3418 51.5692 -37.3418 51.0045 -37.3418 50.4832C-37.3418 50.1791 -37.212 50.0922 -36.9091 50.0922C-36.3467 50.0922 -35.7409 50.0922 -35.1785 50.0922C-35.0054 50.0922 -34.8756 50.0053 -34.8756 49.8316C-34.8756 49.0931 -34.8756 48.3546 -34.8756 47.6595C-34.7458 47.6595 -34.6593 47.6161 -34.5295 47.6161C-33.1017 47.6161 -31.6739 47.6161 -30.2461 47.6161C-29.9865 47.6161 -29.9432 47.7029 -29.9432 47.9636C-29.8999 48.4849 -29.8999 49.0496 -29.8999 49.6578ZM-27.6501 47.5292C-27.9529 47.5292 -28.2558 47.5292 -28.5587 47.5292C-28.8615 47.5292 -29.1211 47.5292 -29.424 47.5292C-29.7269 47.5292 -29.7701 47.4423 -29.7701 47.1382C-29.7701 46.5735 -29.7701 46.0087 -29.7701 45.4005C-29.7701 45.1833 -29.6836 45.053 -29.4673 45.053C-28.8615 45.053 -28.2125 45.053 -27.6068 45.053C-27.4337 45.053 -27.3039 45.1399 -27.3039 45.3137C-27.3039 45.9218 -27.3039 46.5735 -27.3039 47.1816C-27.3905 47.4423 -27.477 47.5292 -27.6501 47.5292ZM-25.2271 45.053C-25.8329 45.053 -26.4386 45.053 -27.0443 45.053C-27.2607 45.053 -27.3472 44.9661 -27.3472 44.7489C-27.3472 44.1407 -27.3472 43.576 -27.3472 42.9678C-27.3472 42.7072 -27.2174 42.5768 -26.9578 42.6203C-26.3521 42.6637 -25.7896 42.6637 -25.1839 42.6637C-24.9675 42.6637 -24.9243 42.7506 -24.9243 42.9678C-24.9243 43.2719 -24.9243 43.576 -24.9243 43.8801C-24.9243 44.1842 -24.9243 44.4883 -24.9243 44.7924C-24.9243 44.9661 -25.0108 45.053 -25.2271 45.053ZM-19.9054 42.1424C-19.9054 42.3596 -19.9919 42.4465 -20.2082 42.4465C-20.5111 42.4465 -20.814 42.4465 -21.1168 42.4465C-21.4197 42.4465 -21.7658 42.4465 -22.0687 42.4465C-22.2418 42.4465 -22.3283 42.3596 -22.3283 42.1859C-22.3283 41.5777 -22.3283 40.9695 -22.3283 40.3613C-22.3283 40.1441 -22.1985 40.0572 -21.9822 40.0572C-21.3764 40.0572 -20.7707 40.0572 -20.165 40.0572C-19.9486 40.0572 -19.8621 40.1441 -19.8621 40.3613C-19.9054 40.9695 -19.9054 41.5777 -19.9054 42.1424ZM-19.8621 39.7097C-19.8621 39.4056 -19.8621 39.145 -19.8621 38.8409C-19.8621 38.5368 -19.8621 38.2327 -19.8621 37.9286C-19.8621 37.7114 -19.7756 37.5811 -19.5592 37.5811C-18.9535 37.5811 -18.3478 37.5811 -17.742 37.5811C-17.569 37.5811 -17.4824 37.668 -17.4824 37.8417C-17.4824 38.4934 -17.4824 39.1015 -17.4824 39.7532C-17.4824 39.9269 -17.569 40.0138 -17.742 40.0138C-18.3478 40.0138 -18.9535 40.0138 -19.5592 40.0138C-19.7756 40.0138 -19.8621 39.8835 -19.8621 39.7097Z" fill="#121428"/>
        <path d="M5.05957 11.299C5.05957 11.6031 5.05957 11.9507 5.05957 12.2547C5.05957 12.4285 5.10284 12.472 5.23264 12.472C5.9249 12.472 6.61717 12.472 7.26617 12.472C7.39597 12.472 7.43924 12.3851 7.43924 12.2547C7.43924 11.5597 7.43924 10.9081 7.43924 10.213C7.43924 10.0392 7.39597 9.99579 7.2229 9.99579C6.5739 9.99579 5.96817 9.99579 5.31917 9.99579C5.10284 9.99579 5.05957 10.0827 5.05957 10.2564C5.10284 10.604 5.05957 10.9515 5.05957 11.299Z" fill="#121428"/>
    </g>
    <defs>
        <clipPath id="clip0_187_127">
            <rect width="32" height="32" fill="white"/>
        </clipPath>
    </defs>
</svg>
