<svg width="827" height="753" viewBox="0 0 827 753" fill="none" xmlns="http://www.w3.org/2000/svg">
    <path d="M357.918 440.996C361.477 440.996 361.477 440.996 361.477 437.039C361.477 430.708 361.477 424.377 361.477 418.441C361.477 415.672 362.268 414.484 365.037 414.88C371.76 415.276 378.088 414.88 384.811 415.276C387.184 415.276 387.184 413.693 387.184 412.11C386.788 405.779 387.184 399.052 387.184 392.721C387.184 388.764 387.579 388.764 391.139 388.764C406.563 388.764 421.987 388.764 437.016 388.764C438.598 388.764 438.993 387.973 438.993 386.39C438.993 379.663 438.993 372.937 438.993 365.814C438.993 363.44 439.784 362.648 442.157 362.648C465.886 362.648 490.011 362.648 513.74 362.648C516.113 362.648 516.904 362.253 516.904 359.879C516.904 353.547 516.904 346.821 516.904 340.49C516.904 338.511 516.113 337.72 514.136 337.72C507.413 337.72 500.689 337.72 494.362 337.72C490.802 337.72 490.407 337.324 490.407 333.367C490.407 327.036 490.407 321.1 490.407 314.769C490.407 312.395 489.616 311.604 487.243 311.604C480.915 311.604 474.983 311.604 468.655 311.604C464.7 311.604 464.304 311.208 464.304 307.251C464.304 300.92 464.304 294.589 464.304 288.654C464.304 286.279 463.513 285.488 461.14 285.488C454.813 285.884 448.485 285.488 442.552 285.884C440.575 285.884 439.389 285.092 439.389 283.114C439.389 275.596 439.389 268.473 439.389 260.955C439.389 258.976 440.575 258.581 442.552 258.581C448.88 258.581 455.208 258.581 461.14 258.581C465.491 258.581 465.886 258.185 465.886 253.832C465.886 248.293 465.886 242.753 465.886 237.213C465.886 234.839 466.677 233.652 469.05 233.652C489.22 233.652 509.786 233.652 529.956 233.652C533.12 233.652 536.283 233.652 539.447 233.652C542.611 233.652 543.007 232.861 543.402 229.695C543.402 223.76 543.402 217.428 543.402 211.493C543.402 207.932 543.798 207.536 546.962 207.536C561.595 207.536 575.832 207.536 590.465 207.536C594.42 207.536 594.816 207.14 594.816 203.183C594.816 197.248 594.816 191.313 594.816 185.377C594.816 183.003 596.002 182.212 598.375 182.212C604.307 182.212 610.635 182.212 616.568 182.212C618.941 182.212 620.127 183.003 620.127 185.773C620.127 191.708 620.127 198.039 620.127 203.975C620.127 207.14 620.523 207.536 623.687 207.536C630.014 207.536 636.342 207.536 642.67 207.536C645.438 207.536 646.229 208.327 646.229 211.097C646.229 217.824 646.229 224.551 646.229 230.882C646.229 232.861 646.625 233.652 648.998 233.652C655.721 233.652 662.049 233.652 668.772 233.652C671.936 233.652 672.332 234.048 672.332 237.609C672.332 252.25 672.332 266.495 672.332 281.135C672.332 285.092 672.332 285.092 676.682 285.092C683.01 285.092 689.338 285.092 695.27 285.092C697.247 285.092 698.039 284.301 698.039 282.718C698.039 279.157 698.039 275.991 698.039 272.43C698.039 234.839 698.039 197.248 698.039 159.657C698.039 155.7 698.038 155.7 702.389 155.7C708.717 155.7 714.649 155.7 720.977 155.7C723.35 155.7 724.536 154.909 724.536 152.139C724.141 145.808 724.536 139.872 724.536 133.541C724.536 129.98 724.932 129.584 728.491 129.584C734.819 129.584 741.147 129.584 747.079 129.584C749.452 129.584 750.243 128.793 750.243 126.419C750.243 119.692 750.243 113.361 750.243 106.634C750.243 104.26 751.034 103.073 753.802 103.073C760.13 103.073 766.458 103.073 772.786 103.073C775.554 103.073 776.345 102.281 775.95 99.5114C775.95 93.1803 775.95 87.2449 775.95 80.9138C775.95 78.5396 775.159 78.1439 773.182 78.1439C758.153 78.1439 743.124 78.1439 728.096 78.1439C724.932 78.1439 724.141 77.7482 724.141 74.187C724.141 68.2515 724.141 61.9204 724.141 55.985C724.141 52.028 723.745 52.028 720.186 52.028C713.858 52.028 707.926 52.028 701.598 52.028C699.225 52.028 698.039 51.2366 698.039 48.4668C698.039 42.1357 698.039 35.4089 698.039 29.0777C698.039 26.7036 697.247 25.9122 694.875 25.9122C688.942 25.9122 682.614 25.9122 676.682 25.9122C672.332 25.9122 672.332 25.9122 672.332 21.5595C672.332 15.6241 672.332 9.293 672.332 3.35758C672.332 1.3791 671.541 0.192017 669.563 0.192017C637.133 0.192017 604.703 0.192017 572.273 0.192017C569.9 0.192017 569.109 0.983406 569.505 3.35758C569.9 10.0844 569.505 16.4155 569.505 23.1423C569.505 25.5165 568.714 26.3079 566.341 26.3079C559.617 26.3079 552.894 26.3079 546.566 26.3079C544.589 26.3079 543.798 27.0993 543.798 29.0777C543.798 35.4089 543.798 42.1357 543.798 48.4668C543.798 50.841 544.589 51.6323 546.962 51.6323C561.99 51.6323 576.623 51.6323 591.652 51.6323C594.816 51.6323 595.211 52.028 595.211 55.5893C595.211 61.9204 595.211 67.8558 595.211 74.187C595.211 76.9568 596.398 77.7482 598.771 77.7482C605.099 77.7482 611.426 77.7482 617.359 77.7482C620.127 77.7482 620.918 78.9353 620.918 81.3094C620.918 87.6406 620.918 93.576 620.918 99.9071C620.918 103.073 621.314 103.864 624.873 103.864C631.201 103.864 637.133 103.864 643.461 103.864C647.416 103.864 647.811 103.468 647.811 99.5114C647.811 93.576 647.811 87.6406 647.811 81.7051C647.811 79.7267 648.602 79.331 650.58 79.331C656.908 79.331 663.235 79.331 669.563 79.331C671.145 79.331 672.332 80.1224 672.332 81.7051C672.332 88.0363 672.332 93.9717 672.332 100.303C672.332 103.073 672.727 103.864 675.891 104.26C681.032 104.26 685.778 104.26 690.92 104.26C700.807 104.26 699.225 103.468 699.62 112.569C699.62 117.318 699.62 122.066 699.62 127.21C699.62 129.98 698.829 130.771 696.061 130.771C689.733 130.771 683.405 130.771 677.078 130.771C674.705 130.771 673.914 131.563 673.914 133.937C673.914 140.268 673.914 146.599 673.914 152.93C673.914 155.7 673.123 156.887 670.354 156.887C637.924 156.887 605.89 156.887 573.459 156.887C570.691 156.887 569.9 155.7 569.9 152.93C569.9 146.599 569.9 140.268 569.9 134.333C569.9 131.563 568.714 130.771 566.341 130.771C560.013 130.771 554.08 130.771 547.753 130.771C544.193 130.771 543.798 130.376 543.798 126.814C543.798 120.483 543.798 114.152 543.798 108.217C543.798 105.843 543.007 105.051 540.634 105.051C534.306 105.051 527.583 105.051 521.255 105.051C518.486 105.051 517.695 104.26 517.695 101.49C517.695 95.1588 517.695 88.432 517.695 82.1008C517.695 80.1224 517.3 79.7267 515.322 79.7267C508.599 79.7267 501.876 79.7267 495.153 79.7267C492.78 79.7267 492.384 80.5181 492.384 82.8922C492.384 89.2234 492.384 95.9502 492.384 102.281C492.384 104.655 491.593 105.447 488.825 105.447C482.497 105.447 475.774 105.447 469.446 105.447C467.073 105.447 466.282 106.238 466.282 108.612C466.282 114.944 466.282 121.67 466.282 128.001C466.282 130.771 465.491 131.563 462.722 131.563C456.395 131.563 450.067 131.563 443.739 131.563C441.366 131.563 440.575 132.75 440.575 135.124C440.575 141.455 440.575 147.39 440.575 153.722C440.575 157.283 440.18 158.074 436.225 158.074C429.897 158.074 423.569 158.074 417.637 158.074C415.264 158.074 414.473 158.866 414.473 161.24C414.473 167.571 414.473 173.902 414.473 179.837C414.473 183.399 414.077 183.794 410.518 183.794C404.19 183.794 397.862 183.794 391.93 183.794C389.557 183.794 388.766 184.586 388.766 186.96C388.766 193.291 388.766 199.622 388.766 205.558C388.766 209.119 388.37 209.515 384.811 209.515C378.483 209.515 372.551 209.515 366.223 209.515C363.455 209.515 362.664 210.702 362.664 213.076C362.664 219.407 362.664 225.738 362.664 231.673C362.664 235.235 362.268 235.63 358.709 235.63C352.381 235.63 346.053 235.63 339.725 235.63C337.352 235.63 336.561 236.026 336.561 238.796C336.561 245.127 336.561 251.458 336.561 257.789C336.561 260.559 335.375 261.351 333.002 261.351C326.674 261.351 319.951 261.351 313.623 261.351C311.646 261.351 310.855 262.142 310.855 264.12C310.855 270.847 310.855 277.574 310.855 284.301C310.855 286.675 310.064 287.466 307.691 287.466C301.363 287.466 295.035 287.466 288.707 287.466C285.148 287.466 284.752 287.862 284.752 291.028C284.752 297.359 284.752 303.69 284.752 310.021C284.752 312.395 285.543 313.582 288.312 313.187C294.639 313.187 300.572 313.187 306.9 313.187C308.877 313.187 309.668 314.374 309.668 315.956C309.668 322.288 309.668 328.619 309.668 334.95C309.668 336.928 308.877 337.72 306.9 337.72C300.176 337.72 293.453 337.72 287.125 337.72C285.148 337.72 284.752 336.137 284.752 334.554C284.752 328.223 284.752 321.892 284.752 315.561C284.752 313.582 284.357 312.791 282.379 312.791C275.261 312.791 268.142 312.791 260.627 312.791C259.045 312.791 258.254 313.582 258.65 315.165C258.65 322.288 258.65 329.014 258.65 336.137C258.65 338.115 258.254 338.511 256.277 338.511C249.554 338.511 242.83 338.511 236.107 338.511C233.339 338.511 232.943 339.698 232.943 342.072C232.943 348.403 232.943 354.735 232.943 360.67C232.943 364.231 232.943 364.231 228.988 364.231C213.96 364.231 198.931 364.231 183.902 364.231C181.134 364.231 180.739 365.023 180.739 367.397C180.739 374.124 180.739 380.85 180.739 387.577C180.739 389.556 179.948 390.347 177.97 390.347C171.247 390.347 164.524 390.347 158.196 390.347C155.823 390.347 155.032 391.138 155.032 393.513C155.032 400.239 155.032 406.966 155.032 413.693C155.032 415.672 154.636 416.067 152.659 416.067C137.235 416.067 121.811 416.067 106.782 416.067C104.014 416.067 103.223 416.859 103.223 420.024C103.223 427.542 103.223 435.061 103.223 442.579C95.3129 441.787 87.4031 442.183 79.4933 442.183C77.5159 442.183 77.5159 444.162 77.5159 445.349C77.5159 452.076 77.5159 458.407 77.5159 465.133C77.5159 467.508 76.7249 468.299 74.352 468.299C59.3234 468.299 44.2948 468.299 29.2662 468.299C25.7068 468.299 25.7068 468.299 25.7068 471.86C25.7068 478.587 25.7068 485.314 25.7068 492.041C25.7068 493.623 25.3113 494.019 23.7294 494.019C17.006 494.019 9.88723 494.019 3.16391 494.019C0.790978 494.019 0 494.811 0 497.185C0 503.911 0 510.243 0 516.969C0 518.948 0.790978 519.739 2.76842 519.739C9.49174 519.739 15.8196 519.739 22.5429 519.739C25.3113 519.739 26.1023 520.531 25.7068 523.301C25.7068 529.632 25.7068 536.358 25.7068 542.69C25.7068 545.064 26.1023 545.855 28.8707 545.855C35.1985 545.855 41.5264 545.855 47.8542 545.855C51.4136 545.855 51.8091 546.251 51.8091 549.812C51.8091 556.143 51.8091 562.079 51.8091 568.41C51.8091 571.18 52.6001 571.971 55.3685 571.971C61.3008 571.971 67.6287 571.971 73.561 571.971C75.9339 571.971 77.1204 571.18 77.1204 568.805C77.1204 562.474 77.1204 556.143 77.1204 550.208C77.1204 546.647 77.5159 546.251 81.0753 546.251C87.4031 546.251 93.3354 546.251 99.6633 546.251C102.432 546.251 103.223 545.459 103.223 542.69C103.223 536.358 103.223 530.027 103.223 523.696C103.223 521.322 104.014 520.135 106.782 520.135C121.811 520.135 136.839 520.135 151.868 520.531C154.636 520.531 155.032 519.739 155.032 517.365C155.032 511.034 155.032 504.307 155.032 497.976C155.032 495.206 156.218 494.415 158.591 494.415C164.919 494.415 171.247 494.415 177.179 494.415C179.948 494.415 180.739 493.228 180.739 490.854C180.739 484.918 180.739 478.587 180.739 472.652C180.739 468.695 181.134 468.695 184.693 468.695C207.632 468.695 230.966 468.695 253.904 468.695C258.254 468.695 258.254 468.695 258.254 464.738C258.254 458.802 258.254 452.867 258.254 446.931C258.254 443.37 258.65 442.974 262.209 442.974C293.849 440.6 325.883 440.996 357.918 440.996ZM314.414 285.884C320.346 285.884 326.674 285.884 332.606 285.884C334.979 285.884 335.77 286.675 335.77 289.049C335.77 295.38 335.77 301.316 335.77 307.647C335.77 310.021 334.584 311.208 332.211 311.208C325.883 311.208 319.951 311.208 313.623 311.208C311.25 311.208 310.459 310.021 310.459 308.043C310.459 304.877 310.459 302.107 310.459 298.942C310.459 296.172 310.459 293.006 310.459 290.236C310.459 287.071 311.646 285.884 314.414 285.884ZM154.241 463.155C154.241 466.716 153.845 467.112 150.286 467.112C143.958 467.112 138.026 467.112 131.698 467.112C128.534 467.112 128.139 467.903 128.139 471.069C128.139 477.4 128.139 483.335 128.534 489.666C128.534 492.436 127.348 493.623 124.579 493.623C118.251 493.623 111.923 493.623 105.991 493.623C103.618 493.623 102.432 494.415 102.432 496.789C102.432 502.724 102.432 508.66 102.432 514.595C102.432 519.344 102.432 519.344 97.6858 519.344C90.567 519.344 83.4482 519.344 76.3294 519.344C60.5098 519.344 45.0858 519.344 29.2662 519.344C25.7068 519.344 25.3113 518.948 25.3113 515.387C25.3113 509.847 25.3113 504.307 25.3113 498.767C25.3113 494.811 25.7068 494.415 29.6617 494.415C43.8993 494.415 57.7414 494.415 71.979 494.415C76.7249 494.415 77.1204 494.019 77.1204 489.271C77.1204 483.731 77.1204 478.191 77.1204 472.652C77.1204 469.486 78.3069 468.299 81.4708 468.695C87.4031 468.695 93.7309 468.695 99.6633 468.695C101.641 468.695 102.827 467.903 102.827 465.925C102.827 458.407 102.827 450.888 102.432 443.37C103.618 443.37 104.805 442.974 105.991 442.974C120.624 442.974 135.653 442.974 150.286 442.974C152.659 442.974 153.45 444.162 153.45 446.536C154.241 450.888 154.241 456.824 154.241 463.155ZM177.575 440.996C174.411 440.996 171.247 440.996 168.083 440.996C164.919 440.996 162.151 440.996 158.987 440.996C155.823 440.996 155.427 440.205 155.427 437.039C155.427 431.104 155.427 425.168 155.427 419.233C155.427 416.859 156.218 415.672 158.591 415.672C164.919 415.672 171.642 415.672 177.97 415.672C179.948 415.672 181.134 416.463 181.134 418.441C181.134 424.773 181.134 431.499 181.134 437.83C180.343 439.809 179.552 440.996 177.575 440.996ZM202.886 415.276C196.558 415.276 190.23 415.276 184.298 415.276C181.925 415.276 181.134 414.484 181.134 412.11C181.134 405.779 181.134 399.844 181.134 393.513C181.134 390.743 182.321 389.556 185.089 389.951C191.417 390.347 197.349 390.347 203.677 390.347C205.654 390.347 206.445 391.534 206.445 393.513C206.445 396.678 206.445 399.844 206.445 403.009C206.445 406.175 206.445 409.34 206.445 412.506C206.05 414.089 205.259 415.276 202.886 415.276ZM258.254 385.203C258.254 387.577 257.068 388.369 255.091 388.369C251.927 388.369 248.763 388.369 245.599 388.369C242.435 388.369 238.876 388.369 235.712 388.369C233.734 388.369 232.943 387.577 232.943 385.599C232.943 379.268 232.943 372.936 232.943 367.001C232.943 364.627 234.13 363.836 236.503 363.836C242.83 363.836 249.158 363.836 255.091 363.836C257.068 363.836 258.254 364.627 258.254 367.001C258.254 372.936 258.254 379.268 258.254 385.203ZM258.65 359.879C258.65 356.713 258.65 353.943 258.65 350.778C258.65 347.612 258.65 344.446 258.65 341.281C258.65 338.907 259.441 337.72 261.814 337.72C268.142 337.72 274.47 337.72 280.402 337.72C282.379 337.72 283.17 338.511 283.17 340.49C283.17 347.216 283.17 353.547 283.17 360.274C283.17 362.253 282.379 363.044 280.402 363.044C274.074 363.044 267.746 363.044 261.418 363.044C259.441 363.044 258.65 361.857 258.65 359.879Z" fill="#F9FCFD"/>
    <path d="M824.595 467.508C818.267 467.508 811.939 467.508 805.611 467.508C802.448 467.508 801.657 466.716 801.657 463.551C801.657 457.219 801.657 450.888 801.657 444.953C801.657 442.183 800.866 441.392 798.097 441.392C790.187 441.392 781.882 441.392 773.972 441.392C758.548 441.392 743.52 441.392 728.096 441.392C724.536 441.392 724.536 441.392 724.536 444.953C724.536 459.594 724.536 474.234 724.536 488.875C724.536 493.228 724.536 493.228 720.186 493.228C714.253 493.228 708.321 493.228 702.389 493.228C698.038 493.228 697.643 492.832 697.643 488.084C697.643 477.004 697.643 465.925 697.643 455.241C697.643 451.68 697.643 448.118 697.643 444.557C697.643 442.183 696.852 440.996 694.083 441.392C688.151 441.392 682.219 441.392 676.286 441.392C671.936 441.392 671.936 441.392 671.936 437.039C671.936 430.708 671.936 424.772 671.936 418.441C671.936 416.067 671.145 415.672 668.772 415.672C662.444 415.672 656.116 415.672 649.789 415.672C647.811 415.672 646.625 416.067 646.625 418.441C646.625 441.787 646.625 465.529 646.625 488.875C646.625 491.645 647.811 492.436 650.184 492.436C656.512 492.436 662.84 492.436 668.772 492.436C671.936 492.436 672.727 493.228 672.727 496.393C672.727 511.43 672.727 526.466 672.727 541.502C672.727 545.064 671.936 545.459 668.377 545.459C662.049 545.459 656.116 545.459 649.789 545.459C647.416 545.459 646.229 546.251 646.229 549.021C646.229 563.661 646.229 578.302 646.229 592.943C646.229 596.504 645.834 596.9 642.274 596.9C635.947 596.9 629.619 596.9 623.291 596.9C620.127 596.9 619.732 596.504 619.336 592.943C619.336 586.612 619.336 580.281 619.336 573.949C619.336 571.575 618.545 570.784 616.172 570.784C592.838 570.784 569.504 570.784 546.171 570.784C541.82 570.784 541.82 570.784 541.82 566.431C541.82 560.496 541.82 554.165 541.82 548.229C541.82 546.251 541.029 545.064 538.656 545.064C532.328 545.064 526.396 545.064 520.068 545.064C516.113 545.064 515.718 545.064 515.718 541.107C515.718 534.776 515.718 528.84 515.718 522.509C515.718 520.135 515.322 518.948 512.554 518.948C506.226 519.344 499.503 518.948 493.175 518.948C490.802 518.948 489.616 517.761 489.616 515.387C489.616 508.66 489.616 501.933 489.616 495.206C489.616 493.228 490.407 492.041 492.779 492.041C499.107 492.041 505.831 492.041 512.158 492.041C514.927 492.041 515.718 491.249 515.718 488.479C515.718 482.148 515.718 476.213 515.718 469.882C515.718 466.32 515.718 466.32 512.158 466.32C507.017 466.32 502.271 466.32 497.13 466.32C470.632 466.32 444.53 466.32 418.032 466.32C417.241 466.32 416.055 466.32 415.264 466.32C413.682 466.32 412.891 467.112 412.891 468.695C412.891 484.127 412.891 499.954 412.891 515.387C412.891 517.365 413.682 517.761 415.659 517.761C421.987 517.761 427.919 517.761 434.247 517.761C439.388 517.761 439.388 517.761 438.993 522.905C438.993 528.84 438.993 534.38 438.993 540.315C438.993 543.085 440.179 543.877 442.552 543.481C448.88 543.481 455.208 543.481 461.14 543.481C463.513 543.481 464.7 544.272 464.7 547.042C464.7 562.474 464.7 577.906 464.7 592.943C464.7 595.713 463.513 596.504 461.14 596.504C454.812 596.504 448.485 596.504 442.552 596.504C439.784 596.504 438.993 597.295 438.993 600.065C438.993 614.706 438.993 629.347 438.993 643.987C438.993 648.34 438.597 648.736 434.247 648.736C411.309 648.736 388.37 648.736 365.036 648.736C361.082 648.736 361.082 648.736 361.082 652.693C361.082 658.628 361.082 664.564 361.082 670.499C361.082 674.456 360.686 674.852 356.731 674.852C325.092 674.852 293.848 674.852 262.209 674.852C257.463 674.852 257.463 674.852 257.463 679.6C257.463 685.14 257.463 690.679 257.463 696.219C257.463 698.989 258.254 699.78 261.023 699.78C267.351 699.78 273.678 699.78 279.611 699.78C282.379 699.78 283.17 700.967 283.17 703.737C283.17 709.673 283.17 716.004 283.17 721.939C283.17 725.501 283.566 725.896 287.125 725.896C293.057 725.896 298.594 725.896 304.527 725.896C308.481 725.896 308.877 726.292 309.272 730.645C309.272 736.58 309.272 742.911 309.272 748.847C309.272 751.221 309.668 752.408 312.436 752.408C335.77 752.408 358.709 752.408 382.042 752.408C385.602 752.408 385.602 752.408 385.602 748.451C385.602 742.515 385.602 736.58 385.602 730.645C385.602 727.083 385.997 726.292 389.952 726.292C404.585 726.292 419.218 726.292 433.852 726.292C437.411 726.292 437.806 726.292 437.806 722.335C437.806 716.4 437.806 710.86 437.806 704.924C437.806 700.176 438.202 700.176 442.552 700.176C461.931 700.176 481.31 700.176 500.689 700.176C504.644 700.176 508.995 700.176 512.949 700.176C514.927 700.176 515.322 699.385 515.322 697.802C515.322 691.471 515.322 685.14 515.322 678.809C515.322 674.852 515.322 674.456 519.277 674.456C542.611 674.456 566.34 674.456 589.674 674.456C592.443 674.456 593.234 673.665 592.838 670.895C592.838 664.564 592.838 658.628 592.838 652.297C592.838 648.34 592.838 647.944 597.189 647.944C609.449 647.944 621.709 647.944 633.969 647.944C637.529 647.944 641.483 647.944 645.043 647.944C661.258 647.944 677.473 647.944 693.688 647.944C696.061 647.944 696.456 646.757 696.456 644.779C696.456 638.843 696.456 632.512 696.456 626.577C696.456 622.224 696.852 621.828 700.807 621.828C723.745 621.828 747.079 621.828 770.017 621.828C773.972 621.828 773.972 621.828 773.972 617.872C773.972 611.936 773.972 606.001 773.972 600.065C773.972 597.691 773.181 596.504 770.808 596.9C764.481 596.9 758.153 596.9 752.22 596.9C749.056 596.9 748.266 596.504 748.266 592.943C748.266 587.007 748.266 580.676 748.266 574.741C748.266 570.784 748.265 570.784 744.706 570.784C730.073 570.784 715.835 570.784 701.202 570.784C696.852 570.784 696.456 570.388 696.456 566.431C696.456 560.1 696.456 554.165 696.456 547.834C696.456 544.668 697.247 543.877 700.411 543.877C706.739 543.877 713.067 543.877 718.999 543.877C721.372 543.877 722.163 543.481 722.163 540.711C722.163 534.38 722.163 528.049 722.163 522.113C722.163 518.552 722.559 518.156 726.118 518.156C740.751 518.156 755.384 518.156 770.017 518.156C773.972 518.156 773.972 518.156 773.972 514.199C773.972 508.264 773.972 502.329 773.972 496.393C773.972 492.832 774.763 492.436 778.323 492.436C792.956 492.436 807.589 492.436 822.222 492.436C826.177 492.436 826.177 492.436 826.177 488.479C826.177 482.544 826.177 476.608 826.177 470.673C827.759 468.299 826.968 467.508 824.595 467.508Z" fill="#F9FCFD"/>
    <path d="M672.332 289.445C672.332 285.884 671.936 285.488 668.377 285.488C662.049 285.488 655.326 285.488 648.998 285.488C647.02 285.488 646.229 286.279 646.229 288.258C646.229 303.69 646.229 319.518 646.229 334.95C646.229 336.928 647.416 337.324 648.998 337.324C655.721 337.324 662.445 337.324 669.168 337.324C671.541 337.324 671.936 336.533 671.936 334.159C671.936 326.64 671.936 319.122 671.936 311.604C672.332 304.086 672.332 296.568 672.332 289.445Z" fill="#F9FCFD"/>
    <path d="M622.895 388.764C629.619 388.764 636.738 388.764 643.461 388.764C645.438 388.764 646.229 387.973 646.229 385.994C646.229 370.562 646.229 355.526 646.229 340.094C646.229 337.72 645.043 336.928 643.065 336.928C636.342 336.928 630.014 336.928 623.291 336.928C621.313 336.928 620.522 337.72 620.522 339.698C620.522 347.612 620.522 355.13 620.522 363.044C620.522 370.562 620.522 378.476 620.522 385.994C620.918 387.973 621.313 388.764 622.895 388.764Z" fill="#F9FCFD"/>
    <path d="M564.758 440.996C549.73 440.996 535.097 440.996 520.068 440.996C517.695 440.996 516.904 442.183 516.904 444.557C516.904 450.888 516.904 457.22 516.904 463.551C516.904 466.321 518.091 466.716 520.464 466.716C527.978 466.716 535.492 466.716 543.007 466.716C550.521 466.716 558.035 466.716 565.549 466.716C567.922 466.716 569.109 465.925 568.713 463.551C568.713 457.22 568.713 451.284 568.713 444.953C568.713 441.392 568.318 440.996 564.758 440.996Z" fill="#F9FCFD"/>
    <path d="M387.975 440.996C387.975 440.996 387.975 441.392 387.975 440.996C380.856 440.996 373.342 440.996 366.223 440.996C362.664 440.996 362.268 441.392 362.268 444.557C362.268 450.889 362.268 457.22 362.268 463.155C362.268 465.529 363.059 465.925 365.037 465.925C380.461 465.925 395.489 465.925 410.913 465.925C413.286 465.925 414.077 465.134 414.077 462.759C414.077 456.428 414.077 450.097 414.077 444.162C414.077 441.392 413.286 440.6 410.518 440.6C403.003 441.392 395.489 440.996 387.975 440.996Z" fill="#F9FCFD"/>
    <path d="M571.086 440.996C578.205 440.996 585.324 440.996 592.443 440.996C594.025 440.996 594.42 440.205 594.42 439.018C594.42 431.895 594.42 424.377 594.42 417.254C594.42 416.067 594.025 415.276 592.443 415.276C585.324 415.276 578.205 415.276 571.086 415.276C569.109 415.276 568.713 416.463 568.713 418.046C568.713 421.607 568.713 425.168 568.713 428.729C568.713 432.291 568.713 435.456 568.713 439.018C568.713 440.205 569.504 440.996 571.086 440.996Z" fill="#F9FCFD"/>
    <path d="M617.754 414.88C619.336 414.88 620.127 414.089 620.127 412.506C620.127 405.383 620.127 398.657 620.127 391.534C620.127 389.951 619.336 389.16 617.754 389.16C611.031 389.16 604.308 389.16 597.584 389.16C595.607 389.16 594.816 390.347 594.816 392.325C594.816 398.657 594.816 405.383 594.816 411.715C594.816 414.089 596.002 414.88 597.98 414.88C601.539 414.88 604.703 414.88 608.263 414.88C611.426 414.88 614.59 414.484 617.754 414.88Z" fill="#F9FCFD"/>
    <path d="M517.695 65.4817C517.695 68.6472 517.695 72.2085 517.695 75.3741C517.695 76.9568 518.091 77.7482 519.673 77.7482C526.792 77.7482 533.91 77.7482 541.029 77.7482C542.216 77.7482 542.611 76.9568 542.611 75.7698C542.611 68.6473 542.611 61.9204 542.611 54.7979C542.611 53.2152 541.82 52.4238 540.238 52.4238C533.515 52.4238 527.187 52.4238 520.464 52.4238C518.486 52.4238 517.695 53.2152 517.695 55.1936C517.695 58.7549 517.695 62.3161 517.695 65.4817Z" fill="#F9FCFD"/>
</svg>
