<svg width="32" height="32" viewBox="0 0 32 32" fill="none" xmlns="http://www.w3.org/2000/svg">
  <rect width="32" height="32" rx="4" fill="#F9FCFD"/>
  <path d="M25.9954 13.993C26.0403 12.7346 25.7559 11.4856 25.1686 10.362C24.7702 9.90091 24.2172 9.58978 23.606 9.48277C21.0781 9.2608 18.5397 9.16982 16.0017 9.21022C13.473 9.16799 10.9437 9.25603 8.42467 9.47398C7.92663 9.56165 7.46574 9.78771 7.09823 10.1246C6.28056 10.8543 6.18971 12.1028 6.09886 13.1578C5.96705 15.0547 5.96705 16.958 6.09886 18.8549C6.12514 19.4488 6.21651 20.0382 6.37142 20.6133C6.48096 21.0574 6.70259 21.4682 7.01646 21.809C7.38647 22.1637 7.8581 22.4027 8.37015 22.4948C10.3288 22.7288 12.3024 22.8257 14.2755 22.7849C17.4553 22.8289 20.2445 22.7849 23.5424 22.5387C24.067 22.4523 24.5519 22.213 24.9324 21.853C25.1868 21.6067 25.3768 21.3053 25.4866 20.9738C25.8115 20.009 25.9711 18.9992 25.9591 17.9845C25.9954 17.4922 25.9954 14.5205 25.9954 13.993ZM13.9485 18.5121V13.0699L19.3269 15.8042C17.8187 16.613 15.8291 17.5274 13.9485 18.5121Z" fill="#121428"/>
</svg>
